<mxfile host="app.diagrams.net" modified="2023-01-12T07:33:59.689Z" agent="5.0 (Macintosh; Intel Mac OS X 10_15_7) AppleWebKit/537.36 (KHTML, like Gecko) Chrome/108.0.0.0 Safari/537.36" etag="Ks3aan3fizp7b398uxBI" version="20.8.3" type="github">
  <diagram name="Page-1" id="edf60f1a-56cd-e834-aa8a-f176f3a09ee4">
    <mxGraphModel dx="2234" dy="803" grid="1" gridSize="10" guides="1" tooltips="1" connect="1" arrows="1" fold="1" page="0" pageScale="1" pageWidth="1100" pageHeight="850" background="none" math="0" shadow="0">
      <root>
        <mxCell id="0" />
        <mxCell id="1" parent="0" />
        <mxCell id="B9yrI63sCQJKP1Z30c3m-1" value="" style="rounded=1;whiteSpace=wrap;html=1;verticalAlign=middle;strokeWidth=1;fontFamily=Lucida Console;dashed=1;shadow=0;glass=0;dashPattern=1 2;" parent="1" vertex="1">
          <mxGeometry x="-179" y="515" width="652" height="85" as="geometry" />
        </mxCell>
        <mxCell id="B9yrI63sCQJKP1Z30c3m-2" style="edgeStyle=orthogonalEdgeStyle;rounded=0;orthogonalLoop=1;jettySize=auto;html=1;exitX=1;exitY=0.5;exitDx=0;exitDy=0;fontFamily=Lucida Console;fontSize=16;endArrow=open;endFill=0;" parent="1" source="B9yrI63sCQJKP1Z30c3m-3" target="B9yrI63sCQJKP1Z30c3m-7" edge="1">
          <mxGeometry relative="1" as="geometry" />
        </mxCell>
        <mxCell id="B9yrI63sCQJKP1Z30c3m-3" value="&lt;font style=&quot;font-size: 16px;&quot;&gt;任务生成&lt;/font&gt;" style="rounded=1;whiteSpace=wrap;html=1;verticalAlign=middle;strokeWidth=0;fontFamily=Lucida Console;" parent="1" vertex="1">
          <mxGeometry x="-360" y="255" width="120" height="30" as="geometry" />
        </mxCell>
        <mxCell id="B9yrI63sCQJKP1Z30c3m-4" style="edgeStyle=orthogonalEdgeStyle;rounded=0;orthogonalLoop=1;jettySize=auto;html=1;exitX=1;exitY=0.5;exitDx=0;exitDy=0;entryX=0;entryY=0.5;entryDx=0;entryDy=0;fontFamily=Lucida Console;fontSize=12;endArrow=open;endFill=0;curved=1;" parent="1" source="B9yrI63sCQJKP1Z30c3m-7" target="B9yrI63sCQJKP1Z30c3m-8" edge="1">
          <mxGeometry relative="1" as="geometry" />
        </mxCell>
        <mxCell id="B9yrI63sCQJKP1Z30c3m-5" style="edgeStyle=orthogonalEdgeStyle;curved=1;rounded=0;orthogonalLoop=1;jettySize=auto;html=1;exitX=1;exitY=0.5;exitDx=0;exitDy=0;entryX=0;entryY=0.5;entryDx=0;entryDy=0;fontFamily=Lucida Console;fontSize=12;endArrow=open;endFill=0;" parent="1" source="B9yrI63sCQJKP1Z30c3m-7" target="B9yrI63sCQJKP1Z30c3m-9" edge="1">
          <mxGeometry relative="1" as="geometry" />
        </mxCell>
        <mxCell id="B9yrI63sCQJKP1Z30c3m-6" style="edgeStyle=orthogonalEdgeStyle;curved=1;rounded=0;orthogonalLoop=1;jettySize=auto;html=1;exitX=1;exitY=0.5;exitDx=0;exitDy=0;entryX=0;entryY=0.5;entryDx=0;entryDy=0;fontFamily=Lucida Console;fontSize=12;endArrow=open;endFill=0;" parent="1" source="B9yrI63sCQJKP1Z30c3m-7" target="B9yrI63sCQJKP1Z30c3m-10" edge="1">
          <mxGeometry relative="1" as="geometry" />
        </mxCell>
        <mxCell id="B9yrI63sCQJKP1Z30c3m-7" value="&lt;font style=&quot;font-size: 16px;&quot;&gt;任务下发&lt;/font&gt;" style="rounded=1;whiteSpace=wrap;html=1;verticalAlign=middle;strokeWidth=0;fontFamily=Lucida Console;" parent="1" vertex="1">
          <mxGeometry x="-163" y="255" width="120" height="30" as="geometry" />
        </mxCell>
        <mxCell id="B9yrI63sCQJKP1Z30c3m-8" value="&lt;font style=&quot;font-size: 12px;&quot;&gt;任务1&lt;/font&gt;" style="rounded=0;whiteSpace=wrap;html=1;verticalAlign=middle;strokeWidth=1;dashed=1;dashPattern=1 1;fontFamily=Lucida Console;" parent="1" vertex="1">
          <mxGeometry x="17" y="210" width="80" height="30" as="geometry" />
        </mxCell>
        <mxCell id="B9yrI63sCQJKP1Z30c3m-9" value="&lt;font style=&quot;font-size: 12px;&quot;&gt;任务2&lt;/font&gt;" style="rounded=0;whiteSpace=wrap;html=1;verticalAlign=middle;strokeWidth=1;dashed=1;dashPattern=1 1;fontFamily=Lucida Console;" parent="1" vertex="1">
          <mxGeometry x="18" y="255" width="80" height="30" as="geometry" />
        </mxCell>
        <mxCell id="B9yrI63sCQJKP1Z30c3m-10" value="&lt;font style=&quot;font-size: 12px;&quot;&gt;任务3&lt;/font&gt;" style="rounded=0;whiteSpace=wrap;html=1;verticalAlign=middle;strokeWidth=1;dashed=1;dashPattern=1 1;fontFamily=Lucida Console;" parent="1" vertex="1">
          <mxGeometry x="17" y="302" width="80" height="30" as="geometry" />
        </mxCell>
        <mxCell id="B9yrI63sCQJKP1Z30c3m-11" style="edgeStyle=orthogonalEdgeStyle;curved=1;rounded=0;orthogonalLoop=1;jettySize=auto;html=1;exitX=1;exitY=0.5;exitDx=0;exitDy=0;entryX=0;entryY=0.5;entryDx=0;entryDy=0;fontFamily=Lucida Console;fontSize=12;endArrow=open;endFill=0;" parent="1" source="B9yrI63sCQJKP1Z30c3m-12" target="B9yrI63sCQJKP1Z30c3m-14" edge="1">
          <mxGeometry relative="1" as="geometry" />
        </mxCell>
        <mxCell id="B9yrI63sCQJKP1Z30c3m-12" value="&lt;font style=&quot;font-size: 16px;&quot;&gt;任务接收&lt;/font&gt;" style="rounded=1;whiteSpace=wrap;html=1;verticalAlign=middle;strokeWidth=0;fontFamily=Lucida Console;" parent="1" vertex="1">
          <mxGeometry x="-360" y="396" width="120" height="30" as="geometry" />
        </mxCell>
        <mxCell id="B9yrI63sCQJKP1Z30c3m-13" style="edgeStyle=orthogonalEdgeStyle;curved=1;rounded=0;orthogonalLoop=1;jettySize=auto;html=1;exitX=1;exitY=0.5;exitDx=0;exitDy=0;entryX=0;entryY=0.5;entryDx=0;entryDy=0;fontFamily=Lucida Console;fontSize=12;endArrow=open;endFill=0;" parent="1" source="B9yrI63sCQJKP1Z30c3m-14" target="B9yrI63sCQJKP1Z30c3m-16" edge="1">
          <mxGeometry relative="1" as="geometry" />
        </mxCell>
        <mxCell id="B9yrI63sCQJKP1Z30c3m-14" value="&lt;font style=&quot;font-size: 16px;&quot;&gt;任务持久化&lt;/font&gt;" style="rounded=1;whiteSpace=wrap;html=1;verticalAlign=middle;strokeWidth=0;fontFamily=Lucida Console;" parent="1" vertex="1">
          <mxGeometry x="-160" y="396" width="120" height="30" as="geometry" />
        </mxCell>
        <mxCell id="B9yrI63sCQJKP1Z30c3m-15" style="edgeStyle=orthogonalEdgeStyle;curved=1;rounded=0;orthogonalLoop=1;jettySize=auto;html=1;exitX=1;exitY=0.5;exitDx=0;exitDy=0;entryX=0;entryY=0.5;entryDx=0;entryDy=0;fontFamily=Lucida Console;fontSize=12;endArrow=open;endFill=0;" parent="1" source="B9yrI63sCQJKP1Z30c3m-16" target="B9yrI63sCQJKP1Z30c3m-17" edge="1">
          <mxGeometry relative="1" as="geometry" />
        </mxCell>
        <mxCell id="B9yrI63sCQJKP1Z30c3m-16" value="&lt;font style=&quot;font-size: 16px;&quot;&gt;任务拆分&lt;/font&gt;" style="rounded=1;whiteSpace=wrap;html=1;verticalAlign=middle;strokeWidth=0;fontFamily=Lucida Console;fillColor=#a20025;strokeColor=#6F0000;fontColor=#ffffff;" parent="1" vertex="1">
          <mxGeometry x="10" y="396" width="120" height="30" as="geometry" />
        </mxCell>
        <mxCell id="B9yrI63sCQJKP1Z30c3m-17" value="&lt;font style=&quot;font-size: 12px;&quot;&gt;指令1&lt;/font&gt;" style="rounded=0;whiteSpace=wrap;html=1;verticalAlign=middle;strokeWidth=1;fontFamily=Lucida Console;" parent="1" vertex="1">
          <mxGeometry x="180" y="401" width="60" height="20" as="geometry" />
        </mxCell>
        <mxCell id="B9yrI63sCQJKP1Z30c3m-18" value="&lt;font style=&quot;font-size: 12px;&quot;&gt;指令2&lt;/font&gt;" style="rounded=0;whiteSpace=wrap;html=1;verticalAlign=middle;strokeWidth=1;fontFamily=Lucida Console;" parent="1" vertex="1">
          <mxGeometry x="240" y="401" width="60" height="20" as="geometry" />
        </mxCell>
        <mxCell id="B9yrI63sCQJKP1Z30c3m-19" value="&lt;font style=&quot;font-size: 12px;&quot;&gt;指令3&lt;/font&gt;" style="rounded=0;whiteSpace=wrap;html=1;verticalAlign=middle;strokeWidth=1;fontFamily=Lucida Console;" parent="1" vertex="1">
          <mxGeometry x="300" y="401" width="60" height="20" as="geometry" />
        </mxCell>
        <mxCell id="B9yrI63sCQJKP1Z30c3m-20" value="&lt;font style=&quot;font-size: 12px;&quot;&gt;······&lt;/font&gt;" style="rounded=0;whiteSpace=wrap;html=1;verticalAlign=middle;strokeWidth=1;fontFamily=Lucida Console;" parent="1" vertex="1">
          <mxGeometry x="360" y="401" width="60" height="20" as="geometry" />
        </mxCell>
        <mxCell id="B9yrI63sCQJKP1Z30c3m-21" value="&lt;font style=&quot;font-size: 12px;&quot;&gt;指令n&lt;/font&gt;" style="rounded=0;whiteSpace=wrap;html=1;verticalAlign=middle;strokeWidth=1;fontFamily=Lucida Console;" parent="1" vertex="1">
          <mxGeometry x="420" y="401" width="60" height="20" as="geometry" />
        </mxCell>
        <mxCell id="B9yrI63sCQJKP1Z30c3m-22" value="指令队列" style="text;html=1;strokeColor=none;fillColor=none;align=center;verticalAlign=middle;whiteSpace=wrap;rounded=0;strokeWidth=1;fontFamily=Lucida Console;fontSize=12;" parent="1" vertex="1">
          <mxGeometry x="180" y="371" width="60" height="30" as="geometry" />
        </mxCell>
        <mxCell id="B9yrI63sCQJKP1Z30c3m-23" style="edgeStyle=orthogonalEdgeStyle;curved=1;rounded=0;orthogonalLoop=1;jettySize=auto;html=1;exitX=1;exitY=0.5;exitDx=0;exitDy=0;entryX=0;entryY=0.5;entryDx=0;entryDy=0;fontFamily=Lucida Console;fontSize=12;endArrow=open;endFill=0;" parent="1" source="B9yrI63sCQJKP1Z30c3m-24" target="B9yrI63sCQJKP1Z30c3m-26" edge="1">
          <mxGeometry relative="1" as="geometry" />
        </mxCell>
        <mxCell id="B9yrI63sCQJKP1Z30c3m-24" value="&lt;font style=&quot;font-size: 16px;&quot;&gt;指令队列持久化&lt;/font&gt;" style="rounded=1;whiteSpace=wrap;html=1;verticalAlign=middle;strokeWidth=0;fontFamily=Lucida Console;" parent="1" vertex="1">
          <mxGeometry x="-360" y="545" width="120" height="30" as="geometry" />
        </mxCell>
        <mxCell id="B9yrI63sCQJKP1Z30c3m-25" style="edgeStyle=orthogonalEdgeStyle;curved=1;rounded=0;orthogonalLoop=1;jettySize=auto;html=1;exitX=1;exitY=0.5;exitDx=0;exitDy=0;entryX=0;entryY=0.5;entryDx=0;entryDy=0;fontFamily=Lucida Console;fontSize=12;endArrow=open;endFill=0;" parent="1" source="B9yrI63sCQJKP1Z30c3m-26" target="B9yrI63sCQJKP1Z30c3m-31" edge="1">
          <mxGeometry relative="1" as="geometry" />
        </mxCell>
        <mxCell id="B9yrI63sCQJKP1Z30c3m-26" value="&lt;font style=&quot;font-size: 16px;&quot;&gt;指令获取设备&lt;/font&gt;" style="rounded=1;whiteSpace=wrap;html=1;verticalAlign=middle;strokeWidth=0;fontFamily=Lucida Console;" parent="1" vertex="1">
          <mxGeometry x="-160" y="545" width="130" height="30" as="geometry" />
        </mxCell>
        <mxCell id="B9yrI63sCQJKP1Z30c3m-27" style="edgeStyle=orthogonalEdgeStyle;curved=1;rounded=0;orthogonalLoop=1;jettySize=auto;html=1;exitX=1;exitY=0.5;exitDx=0;exitDy=0;fontFamily=Lucida Console;fontSize=12;endArrow=open;endFill=0;" parent="1" source="B9yrI63sCQJKP1Z30c3m-31" target="B9yrI63sCQJKP1Z30c3m-33" edge="1">
          <mxGeometry relative="1" as="geometry" />
        </mxCell>
        <mxCell id="B9yrI63sCQJKP1Z30c3m-28" value="否" style="edgeLabel;html=1;align=center;verticalAlign=middle;resizable=0;points=[];fontSize=12;fontFamily=Lucida Console;" parent="B9yrI63sCQJKP1Z30c3m-27" vertex="1" connectable="0">
          <mxGeometry x="-0.1364" y="1" relative="1" as="geometry">
            <mxPoint y="1" as="offset" />
          </mxGeometry>
        </mxCell>
        <mxCell id="B9yrI63sCQJKP1Z30c3m-29" style="edgeStyle=orthogonalEdgeStyle;curved=1;rounded=0;orthogonalLoop=1;jettySize=auto;html=1;exitX=0.5;exitY=1;exitDx=0;exitDy=0;fontFamily=Lucida Console;fontSize=12;endArrow=open;endFill=0;" parent="1" source="B9yrI63sCQJKP1Z30c3m-31" target="B9yrI63sCQJKP1Z30c3m-36" edge="1">
          <mxGeometry relative="1" as="geometry" />
        </mxCell>
        <mxCell id="B9yrI63sCQJKP1Z30c3m-30" value="是" style="edgeLabel;html=1;align=center;verticalAlign=middle;resizable=0;points=[];fontSize=12;fontFamily=Lucida Console;" parent="B9yrI63sCQJKP1Z30c3m-29" vertex="1" connectable="0">
          <mxGeometry x="-0.0897" y="2" relative="1" as="geometry">
            <mxPoint x="-2" as="offset" />
          </mxGeometry>
        </mxCell>
        <mxCell id="B9yrI63sCQJKP1Z30c3m-31" value="设备可用" style="rhombus;whiteSpace=wrap;html=1;rounded=0;strokeWidth=1;fontFamily=Lucida Console;fontSize=12;" parent="1" vertex="1">
          <mxGeometry x="19" y="536" width="82" height="48" as="geometry" />
        </mxCell>
        <mxCell id="B9yrI63sCQJKP1Z30c3m-32" style="edgeStyle=orthogonalEdgeStyle;curved=1;rounded=0;orthogonalLoop=1;jettySize=auto;html=1;exitX=1;exitY=0.5;exitDx=0;exitDy=0;entryX=0;entryY=0.5;entryDx=0;entryDy=0;fontFamily=Lucida Console;fontSize=12;endArrow=open;endFill=0;" parent="1" source="B9yrI63sCQJKP1Z30c3m-33" target="B9yrI63sCQJKP1Z30c3m-34" edge="1">
          <mxGeometry relative="1" as="geometry" />
        </mxCell>
        <mxCell id="B9yrI63sCQJKP1Z30c3m-33" value="&lt;font style=&quot;font-size: 16px;&quot;&gt;任务排队&lt;/font&gt;" style="rounded=1;whiteSpace=wrap;html=1;verticalAlign=middle;strokeWidth=0;fontFamily=Lucida Console;" parent="1" vertex="1">
          <mxGeometry x="170" y="545" width="120" height="30" as="geometry" />
        </mxCell>
        <mxCell id="B9yrI63sCQJKP1Z30c3m-34" value="&lt;font style=&quot;font-size: 16px;&quot;&gt;任务调度&lt;/font&gt;" style="rounded=1;whiteSpace=wrap;html=1;verticalAlign=middle;strokeWidth=0;fontFamily=Lucida Console;" parent="1" vertex="1">
          <mxGeometry x="334" y="545" width="120" height="30" as="geometry" />
        </mxCell>
        <mxCell id="B9yrI63sCQJKP1Z30c3m-35" style="edgeStyle=orthogonalEdgeStyle;curved=1;rounded=0;orthogonalLoop=1;jettySize=auto;html=1;exitX=1;exitY=0.5;exitDx=0;exitDy=0;entryX=0;entryY=0.5;entryDx=0;entryDy=0;fontFamily=Lucida Console;fontSize=12;endArrow=open;endFill=0;" parent="1" source="B9yrI63sCQJKP1Z30c3m-36" target="B9yrI63sCQJKP1Z30c3m-38" edge="1">
          <mxGeometry relative="1" as="geometry" />
        </mxCell>
        <mxCell id="B9yrI63sCQJKP1Z30c3m-36" value="&lt;font style=&quot;font-size: 16px;&quot;&gt;下发指令&lt;/font&gt;" style="rounded=1;whiteSpace=wrap;html=1;verticalAlign=middle;strokeWidth=0;fontFamily=Lucida Console;" parent="1" vertex="1">
          <mxGeometry y="636" width="120" height="30" as="geometry" />
        </mxCell>
        <mxCell id="B9yrI63sCQJKP1Z30c3m-37" style="edgeStyle=orthogonalEdgeStyle;curved=1;rounded=0;orthogonalLoop=1;jettySize=auto;html=1;exitX=1;exitY=0.5;exitDx=0;exitDy=0;entryX=0;entryY=0.5;entryDx=0;entryDy=0;fontFamily=Lucida Console;fontSize=12;endArrow=open;endFill=0;" parent="1" source="B9yrI63sCQJKP1Z30c3m-38" target="B9yrI63sCQJKP1Z30c3m-40" edge="1">
          <mxGeometry relative="1" as="geometry" />
        </mxCell>
        <mxCell id="B9yrI63sCQJKP1Z30c3m-38" value="&lt;font style=&quot;font-size: 16px;&quot;&gt;设备执行&lt;/font&gt;" style="rounded=1;whiteSpace=wrap;html=1;verticalAlign=middle;strokeWidth=0;fontFamily=Lucida Console;" parent="1" vertex="1">
          <mxGeometry x="170" y="636" width="120" height="30" as="geometry" />
        </mxCell>
        <mxCell id="B9yrI63sCQJKP1Z30c3m-39" style="edgeStyle=orthogonalEdgeStyle;curved=1;rounded=0;orthogonalLoop=1;jettySize=auto;html=1;exitX=1;exitY=0.5;exitDx=0;exitDy=0;entryX=0;entryY=0.5;entryDx=0;entryDy=0;fontFamily=Lucida Console;fontSize=12;endArrow=open;endFill=0;" parent="1" source="B9yrI63sCQJKP1Z30c3m-40" target="B9yrI63sCQJKP1Z30c3m-42" edge="1">
          <mxGeometry relative="1" as="geometry" />
        </mxCell>
        <mxCell id="B9yrI63sCQJKP1Z30c3m-40" value="&lt;font style=&quot;font-size: 16px;&quot;&gt;设备上报&lt;/font&gt;" style="rounded=1;whiteSpace=wrap;html=1;verticalAlign=middle;strokeWidth=0;fontFamily=Lucida Console;" parent="1" vertex="1">
          <mxGeometry x="334" y="636" width="120" height="30" as="geometry" />
        </mxCell>
        <mxCell id="B9yrI63sCQJKP1Z30c3m-41" style="edgeStyle=orthogonalEdgeStyle;curved=1;rounded=0;orthogonalLoop=1;jettySize=auto;html=1;exitX=1;exitY=0.5;exitDx=0;exitDy=0;fontFamily=Lucida Console;fontSize=12;endArrow=open;endFill=0;" parent="1" source="B9yrI63sCQJKP1Z30c3m-42" target="B9yrI63sCQJKP1Z30c3m-47" edge="1">
          <mxGeometry relative="1" as="geometry" />
        </mxCell>
        <mxCell id="B9yrI63sCQJKP1Z30c3m-42" value="&lt;font style=&quot;font-size: 16px;&quot;&gt;执行完成&lt;/font&gt;" style="rounded=1;whiteSpace=wrap;html=1;verticalAlign=middle;strokeWidth=0;fontFamily=Lucida Console;" parent="1" vertex="1">
          <mxGeometry x="495" y="636" width="120" height="30" as="geometry" />
        </mxCell>
        <mxCell id="B9yrI63sCQJKP1Z30c3m-43" style="edgeStyle=orthogonalEdgeStyle;curved=1;rounded=0;orthogonalLoop=1;jettySize=auto;html=1;exitX=0.5;exitY=1;exitDx=0;exitDy=0;entryX=0.5;entryY=0;entryDx=0;entryDy=0;fontFamily=Lucida Console;fontSize=12;endArrow=open;endFill=0;" parent="1" source="B9yrI63sCQJKP1Z30c3m-47" target="B9yrI63sCQJKP1Z30c3m-48" edge="1">
          <mxGeometry relative="1" as="geometry" />
        </mxCell>
        <mxCell id="B9yrI63sCQJKP1Z30c3m-44" value="是" style="edgeLabel;html=1;align=center;verticalAlign=middle;resizable=0;points=[];fontSize=12;fontFamily=Lucida Console;" parent="B9yrI63sCQJKP1Z30c3m-43" vertex="1" connectable="0">
          <mxGeometry x="-0.1368" relative="1" as="geometry">
            <mxPoint as="offset" />
          </mxGeometry>
        </mxCell>
        <mxCell id="B9yrI63sCQJKP1Z30c3m-45" style="edgeStyle=orthogonalEdgeStyle;curved=1;rounded=0;orthogonalLoop=1;jettySize=auto;html=1;exitX=1;exitY=0.5;exitDx=0;exitDy=0;entryX=0.5;entryY=0;entryDx=0;entryDy=0;strokeWidth=1;fontFamily=Lucida Console;fontSize=16;fontColor=#3333FF;endArrow=classic;endFill=1;" parent="1" source="B9yrI63sCQJKP1Z30c3m-47" target="B9yrI63sCQJKP1Z30c3m-50" edge="1">
          <mxGeometry relative="1" as="geometry">
            <Array as="points">
              <mxPoint x="733" y="460" />
              <mxPoint x="142" y="460" />
            </Array>
          </mxGeometry>
        </mxCell>
        <mxCell id="B9yrI63sCQJKP1Z30c3m-46" value="&lt;font color=&quot;#330000&quot; style=&quot;font-size: 12px;&quot;&gt;否&lt;/font&gt;" style="edgeLabel;html=1;align=center;verticalAlign=middle;resizable=0;points=[];fontSize=16;fontFamily=Lucida Console;fontColor=#3333FF;" parent="B9yrI63sCQJKP1Z30c3m-45" vertex="1" connectable="0">
          <mxGeometry x="-0.8894" y="5" relative="1" as="geometry">
            <mxPoint y="-5" as="offset" />
          </mxGeometry>
        </mxCell>
        <mxCell id="_zQ-AfZV-65REH8LVejj-1" value="触发下一条指令" style="edgeLabel;html=1;align=center;verticalAlign=middle;resizable=0;points=[];" parent="B9yrI63sCQJKP1Z30c3m-45" vertex="1" connectable="0">
          <mxGeometry x="0.1058" y="1" relative="1" as="geometry">
            <mxPoint as="offset" />
          </mxGeometry>
        </mxCell>
        <mxCell id="B9yrI63sCQJKP1Z30c3m-47" value="最后一条指令" style="rhombus;whiteSpace=wrap;html=1;rounded=0;strokeWidth=1;fontFamily=Lucida Console;fontSize=12;" parent="1" vertex="1">
          <mxGeometry x="651" y="627" width="82" height="48" as="geometry" />
        </mxCell>
        <mxCell id="B9yrI63sCQJKP1Z30c3m-48" value="&lt;font style=&quot;font-size: 16px;&quot;&gt;任务状态上报&lt;/font&gt;" style="rounded=1;whiteSpace=wrap;html=1;verticalAlign=middle;strokeWidth=0;fontFamily=Lucida Console;" parent="1" vertex="1">
          <mxGeometry x="632" y="728" width="120" height="30" as="geometry" />
        </mxCell>
        <mxCell id="B9yrI63sCQJKP1Z30c3m-49" value="&lt;font color=&quot;#3333ff&quot; style=&quot;font-size: 12px;&quot;&gt;拆解依据：业务流程及设备&lt;/font&gt;" style="rounded=1;whiteSpace=wrap;html=1;verticalAlign=middle;strokeWidth=1;fontFamily=Lucida Console;dashed=1;strokeColor=none;" parent="1" vertex="1">
          <mxGeometry x="-17.5" y="364" width="151" height="29" as="geometry" />
        </mxCell>
        <mxCell id="B9yrI63sCQJKP1Z30c3m-50" value="&lt;font style=&quot;font-size: 14px;&quot; color=&quot;#ff0000&quot;&gt;任务调度策略&lt;/font&gt;" style="text;html=1;strokeColor=none;fillColor=none;align=center;verticalAlign=middle;whiteSpace=wrap;rounded=0;dashed=1;strokeWidth=1;fontFamily=Lucida Console;fontSize=12;" parent="1" vertex="1">
          <mxGeometry x="97" y="510" width="90" height="30" as="geometry" />
        </mxCell>
        <mxCell id="B9yrI63sCQJKP1Z30c3m-51" style="edgeStyle=orthogonalEdgeStyle;curved=1;rounded=0;orthogonalLoop=1;jettySize=auto;html=1;exitX=0.5;exitY=0;exitDx=0;exitDy=0;entryX=0.5;entryY=1;entryDx=0;entryDy=0;fontFamily=Lucida Console;fontSize=14;fontColor=#FF0000;endArrow=open;endFill=0;" parent="1" source="B9yrI63sCQJKP1Z30c3m-52" target="B9yrI63sCQJKP1Z30c3m-26" edge="1">
          <mxGeometry relative="1" as="geometry" />
        </mxCell>
        <mxCell id="B9yrI63sCQJKP1Z30c3m-52" value="&lt;font style=&quot;font-size: 14px;&quot; color=&quot;#ff0000&quot;&gt;设备调度策略&lt;/font&gt;" style="text;html=1;strokeColor=none;fillColor=none;align=center;verticalAlign=middle;whiteSpace=wrap;rounded=0;dashed=1;strokeWidth=1;fontFamily=Lucida Console;fontSize=12;" parent="1" vertex="1">
          <mxGeometry x="-140" y="636" width="90" height="30" as="geometry" />
        </mxCell>
        <mxCell id="B9yrI63sCQJKP1Z30c3m-53" value="&lt;font style=&quot;font-size: 16px;&quot; color=&quot;#330000&quot;&gt;WMS/WES&lt;/font&gt;" style="text;html=1;strokeColor=none;fillColor=none;align=center;verticalAlign=middle;whiteSpace=wrap;rounded=0;shadow=0;glass=0;sketch=0;strokeWidth=1;fontFamily=Lucida Console;fontSize=14;fontColor=#FF0000;" parent="1" vertex="1">
          <mxGeometry x="-484" y="251" width="91" height="40" as="geometry" />
        </mxCell>
        <mxCell id="B9yrI63sCQJKP1Z30c3m-54" value="&lt;font style=&quot;font-size: 16px;&quot; color=&quot;#330000&quot;&gt;WCS-任务&lt;/font&gt;" style="text;html=1;strokeColor=none;fillColor=none;align=center;verticalAlign=middle;whiteSpace=wrap;rounded=0;shadow=0;glass=0;sketch=0;strokeWidth=1;fontFamily=Lucida Console;fontSize=14;fontColor=#FF0000;" parent="1" vertex="1">
          <mxGeometry x="-484" y="392" width="91" height="40" as="geometry" />
        </mxCell>
        <mxCell id="B9yrI63sCQJKP1Z30c3m-55" value="&lt;font style=&quot;font-size: 16px;&quot; color=&quot;#330000&quot;&gt;WCS-指令&lt;/font&gt;" style="text;html=1;strokeColor=none;fillColor=none;align=center;verticalAlign=middle;whiteSpace=wrap;rounded=0;shadow=0;glass=0;sketch=0;strokeWidth=1;fontFamily=Lucida Console;fontSize=14;fontColor=#FF0000;" parent="1" vertex="1">
          <mxGeometry x="-484" y="538.5" width="91" height="40" as="geometry" />
        </mxCell>
        <mxCell id="_zQ-AfZV-65REH8LVejj-3" value="" style="html=1;shadow=0;dashed=0;align=center;verticalAlign=middle;shape=mxgraph.arrows2.arrow;dy=0.6;dx=40;direction=south;notch=0;fillColor=#ffe6cc;strokeColor=#d79b00;" parent="1" vertex="1">
          <mxGeometry x="-310" y="302" width="20" height="82" as="geometry" />
        </mxCell>
        <mxCell id="_zQ-AfZV-65REH8LVejj-4" value="" style="html=1;shadow=0;dashed=0;align=center;verticalAlign=middle;shape=mxgraph.arrows2.arrow;dy=0.6;dx=40;direction=south;notch=0;fillColor=#ffe6cc;strokeColor=#d79b00;" parent="1" vertex="1">
          <mxGeometry x="-310" y="450" width="20" height="82" as="geometry" />
        </mxCell>
        <mxCell id="_zQ-AfZV-65REH8LVejj-10" style="edgeStyle=orthogonalEdgeStyle;rounded=0;orthogonalLoop=1;jettySize=auto;html=1;exitX=0.5;exitY=1;exitDx=0;exitDy=0;entryX=0.5;entryY=0;entryDx=0;entryDy=0;strokeWidth=2;endArrow=open;endFill=0;curved=1;endSize=4;startSize=4;" parent="1" source="_zQ-AfZV-65REH8LVejj-6" target="_zQ-AfZV-65REH8LVejj-7" edge="1">
          <mxGeometry relative="1" as="geometry" />
        </mxCell>
        <mxCell id="_zQ-AfZV-65REH8LVejj-11" style="edgeStyle=orthogonalEdgeStyle;rounded=0;orthogonalLoop=1;jettySize=auto;html=1;exitX=0.5;exitY=1;exitDx=0;exitDy=0;strokeWidth=2;endArrow=open;endFill=0;curved=1;endSize=4;startSize=4;" parent="1" source="_zQ-AfZV-65REH8LVejj-6" target="_zQ-AfZV-65REH8LVejj-8" edge="1">
          <mxGeometry relative="1" as="geometry" />
        </mxCell>
        <mxCell id="_zQ-AfZV-65REH8LVejj-12" style="edgeStyle=orthogonalEdgeStyle;rounded=0;orthogonalLoop=1;jettySize=auto;html=1;exitX=0.5;exitY=1;exitDx=0;exitDy=0;strokeWidth=2;endArrow=open;endFill=0;curved=1;endSize=4;startSize=4;" parent="1" source="_zQ-AfZV-65REH8LVejj-6" target="_zQ-AfZV-65REH8LVejj-9" edge="1">
          <mxGeometry relative="1" as="geometry" />
        </mxCell>
        <mxCell id="_zQ-AfZV-65REH8LVejj-6" value="任务" style="rounded=0;whiteSpace=wrap;html=1;" parent="1" vertex="1">
          <mxGeometry x="-130" y="860" width="100" height="40" as="geometry" />
        </mxCell>
        <mxCell id="_zQ-AfZV-65REH8LVejj-7" value="任务1" style="rounded=0;whiteSpace=wrap;html=1;" parent="1" vertex="1">
          <mxGeometry x="-260" y="950" width="100" height="40" as="geometry" />
        </mxCell>
        <mxCell id="_zQ-AfZV-65REH8LVejj-14" style="edgeStyle=orthogonalEdgeStyle;curved=1;rounded=0;orthogonalLoop=1;jettySize=auto;html=1;exitX=0.5;exitY=1;exitDx=0;exitDy=0;strokeWidth=2;endArrow=open;endFill=0;startSize=4;endSize=4;" parent="1" source="_zQ-AfZV-65REH8LVejj-8" target="_zQ-AfZV-65REH8LVejj-13" edge="1">
          <mxGeometry relative="1" as="geometry" />
        </mxCell>
        <mxCell id="_zQ-AfZV-65REH8LVejj-8" value="任务2" style="rounded=0;whiteSpace=wrap;html=1;" parent="1" vertex="1">
          <mxGeometry x="-130" y="950" width="100" height="40" as="geometry" />
        </mxCell>
        <mxCell id="_zQ-AfZV-65REH8LVejj-9" value="任务3" style="rounded=0;whiteSpace=wrap;html=1;" parent="1" vertex="1">
          <mxGeometry y="950" width="100" height="40" as="geometry" />
        </mxCell>
        <mxCell id="_zQ-AfZV-65REH8LVejj-21" style="edgeStyle=orthogonalEdgeStyle;curved=1;rounded=0;orthogonalLoop=1;jettySize=auto;html=1;exitX=0.5;exitY=1;exitDx=0;exitDy=0;strokeWidth=2;endArrow=open;endFill=0;startSize=4;endSize=4;" parent="1" source="_zQ-AfZV-65REH8LVejj-13" target="_zQ-AfZV-65REH8LVejj-20" edge="1">
          <mxGeometry relative="1" as="geometry" />
        </mxCell>
        <mxCell id="_zQ-AfZV-65REH8LVejj-22" style="edgeStyle=orthogonalEdgeStyle;curved=1;rounded=0;orthogonalLoop=1;jettySize=auto;html=1;exitX=0.5;exitY=1;exitDx=0;exitDy=0;entryX=0.5;entryY=0;entryDx=0;entryDy=0;strokeWidth=2;endArrow=open;endFill=0;startSize=4;endSize=4;" parent="1" source="_zQ-AfZV-65REH8LVejj-13" target="_zQ-AfZV-65REH8LVejj-16" edge="1">
          <mxGeometry relative="1" as="geometry" />
        </mxCell>
        <mxCell id="_zQ-AfZV-65REH8LVejj-23" style="edgeStyle=orthogonalEdgeStyle;curved=1;rounded=0;orthogonalLoop=1;jettySize=auto;html=1;exitX=0.5;exitY=1;exitDx=0;exitDy=0;entryX=0.5;entryY=0;entryDx=0;entryDy=0;strokeWidth=2;endArrow=open;endFill=0;startSize=4;endSize=4;" parent="1" source="_zQ-AfZV-65REH8LVejj-13" target="_zQ-AfZV-65REH8LVejj-19" edge="1">
          <mxGeometry relative="1" as="geometry" />
        </mxCell>
        <mxCell id="_zQ-AfZV-65REH8LVejj-13" value="指令" style="rounded=0;whiteSpace=wrap;html=1;" parent="1" vertex="1">
          <mxGeometry x="-130" y="1030" width="100" height="40" as="geometry" />
        </mxCell>
        <mxCell id="_zQ-AfZV-65REH8LVejj-16" value="指令2" style="rounded=0;whiteSpace=wrap;html=1;" parent="1" vertex="1">
          <mxGeometry x="-130" y="1110" width="100" height="40" as="geometry" />
        </mxCell>
        <mxCell id="_zQ-AfZV-65REH8LVejj-19" value="指令3" style="rounded=0;whiteSpace=wrap;html=1;" parent="1" vertex="1">
          <mxGeometry x="-3" y="1110" width="100" height="40" as="geometry" />
        </mxCell>
        <mxCell id="_zQ-AfZV-65REH8LVejj-20" value="指令1" style="rounded=0;whiteSpace=wrap;html=1;" parent="1" vertex="1">
          <mxGeometry x="-260" y="1110" width="100" height="40" as="geometry" />
        </mxCell>
        <mxCell id="_zQ-AfZV-65REH8LVejj-24" value="" style="shape=curlyBracket;whiteSpace=wrap;html=1;rounded=1;labelPosition=left;verticalLabelPosition=middle;align=right;verticalAlign=middle;strokeWidth=2;" parent="1" vertex="1">
          <mxGeometry x="170" y="900" width="30" height="140" as="geometry" />
        </mxCell>
        <mxCell id="_zQ-AfZV-65REH8LVejj-28" value="属性" style="text;html=1;strokeColor=none;fillColor=none;align=center;verticalAlign=middle;whiteSpace=wrap;rounded=0;strokeWidth=2;" parent="1" vertex="1">
          <mxGeometry x="110" y="955" width="60" height="30" as="geometry" />
        </mxCell>
        <mxCell id="_zQ-AfZV-65REH8LVejj-31" value="" style="shape=curlyBracket;whiteSpace=wrap;html=1;rounded=1;labelPosition=left;verticalLabelPosition=middle;align=right;verticalAlign=middle;strokeWidth=2;" parent="1" vertex="1">
          <mxGeometry x="170" y="1060" width="30" height="140" as="geometry" />
        </mxCell>
        <mxCell id="_zQ-AfZV-65REH8LVejj-32" value="属性" style="text;html=1;strokeColor=none;fillColor=none;align=center;verticalAlign=middle;whiteSpace=wrap;rounded=0;strokeWidth=2;" parent="1" vertex="1">
          <mxGeometry x="110" y="1115" width="60" height="30" as="geometry" />
        </mxCell>
        <mxCell id="MWodSLqaEYV7RXacXT7l-1" value="" style="rounded=0;whiteSpace=wrap;html=1;dashed=1;fillColor=#f5f5f5;fontColor=#333333;strokeColor=#666666;" vertex="1" parent="1">
          <mxGeometry x="-266" y="1450" width="600" height="380" as="geometry" />
        </mxCell>
        <mxCell id="MWodSLqaEYV7RXacXT7l-2" value="" style="rounded=0;whiteSpace=wrap;html=1;dashed=1;fillColor=#f5f5f5;fontColor=#333333;strokeColor=#666666;" vertex="1" parent="1">
          <mxGeometry x="-266" y="1380" width="600" height="50" as="geometry" />
        </mxCell>
        <mxCell id="MWodSLqaEYV7RXacXT7l-3" value="API网关/接口适配" style="rounded=0;whiteSpace=wrap;html=1;dashed=1;strokeColor=#6c8ebf;fillColor=#dae8fc;" vertex="1" parent="1">
          <mxGeometry x="-216" y="1467.5" width="520" height="30" as="geometry" />
        </mxCell>
        <mxCell id="MWodSLqaEYV7RXacXT7l-4" value="" style="rounded=0;whiteSpace=wrap;html=1;dashed=1;" vertex="1" parent="1">
          <mxGeometry x="-216" y="1520" width="520" height="195" as="geometry" />
        </mxCell>
        <mxCell id="MWodSLqaEYV7RXacXT7l-5" value="WMS" style="rounded=0;whiteSpace=wrap;html=1;dashed=1;fillColor=#ffe6cc;strokeColor=#d79b00;" vertex="1" parent="1">
          <mxGeometry x="-182" y="1390" width="200" height="30" as="geometry" />
        </mxCell>
        <mxCell id="MWodSLqaEYV7RXacXT7l-6" value="WES" style="rounded=0;whiteSpace=wrap;html=1;dashed=1;fillColor=#ffe6cc;strokeColor=#d79b00;" vertex="1" parent="1">
          <mxGeometry x="54" y="1390" width="200" height="30" as="geometry" />
        </mxCell>
        <mxCell id="MWodSLqaEYV7RXacXT7l-7" value="上游系统" style="text;html=1;strokeColor=none;fillColor=none;align=center;verticalAlign=middle;whiteSpace=wrap;rounded=0;dashed=1;" vertex="1" parent="1">
          <mxGeometry x="-346" y="1390" width="70" height="30" as="geometry" />
        </mxCell>
        <mxCell id="MWodSLqaEYV7RXacXT7l-8" value="业&lt;br&gt;务&lt;br&gt;层" style="text;html=1;strokeColor=none;fillColor=none;align=center;verticalAlign=middle;whiteSpace=wrap;rounded=0;dashed=1;" vertex="1" parent="1">
          <mxGeometry x="-256" y="1576.5" width="30" height="64" as="geometry" />
        </mxCell>
        <mxCell id="MWodSLqaEYV7RXacXT7l-9" value="" style="rounded=0;whiteSpace=wrap;html=1;dashed=1;" vertex="1" parent="1">
          <mxGeometry x="-216" y="1740" width="520" height="60" as="geometry" />
        </mxCell>
        <mxCell id="MWodSLqaEYV7RXacXT7l-10" value="接&lt;br&gt;入&lt;br&gt;层" style="text;html=1;strokeColor=none;fillColor=none;align=center;verticalAlign=middle;whiteSpace=wrap;rounded=0;dashed=1;" vertex="1" parent="1">
          <mxGeometry x="-256" y="1735" width="30" height="70" as="geometry" />
        </mxCell>
        <mxCell id="MWodSLqaEYV7RXacXT7l-11" value="" style="rounded=0;whiteSpace=wrap;html=1;dashed=1;fillColor=#f5f5f5;fontColor=#333333;strokeColor=#666666;" vertex="1" parent="1">
          <mxGeometry x="-266" y="1857" width="600" height="140" as="geometry" />
        </mxCell>
        <mxCell id="MWodSLqaEYV7RXacXT7l-12" value="设备层" style="text;html=1;strokeColor=none;fillColor=none;align=center;verticalAlign=middle;whiteSpace=wrap;rounded=0;dashed=1;" vertex="1" parent="1">
          <mxGeometry x="-339.75" y="1914.5" width="57.5" height="25" as="geometry" />
        </mxCell>
        <mxCell id="MWodSLqaEYV7RXacXT7l-13" value="任务管理" style="text;html=1;strokeColor=none;fillColor=none;align=center;verticalAlign=middle;whiteSpace=wrap;rounded=0;dashed=1;" vertex="1" parent="1">
          <mxGeometry x="-170" y="1527.5" width="60" height="30" as="geometry" />
        </mxCell>
        <mxCell id="MWodSLqaEYV7RXacXT7l-14" value="作业执行" style="text;html=1;strokeColor=none;fillColor=none;align=center;verticalAlign=middle;whiteSpace=wrap;rounded=0;dashed=1;" vertex="1" parent="1">
          <mxGeometry x="-50" y="1527.5" width="60" height="30" as="geometry" />
        </mxCell>
        <mxCell id="MWodSLqaEYV7RXacXT7l-15" value="WCS" style="text;html=1;strokeColor=none;fillColor=none;align=center;verticalAlign=middle;whiteSpace=wrap;rounded=0;dashed=1;" vertex="1" parent="1">
          <mxGeometry x="-346" y="1587.25" width="70" height="30" as="geometry" />
        </mxCell>
        <mxCell id="MWodSLqaEYV7RXacXT7l-16" value="API" style="text;html=1;strokeColor=none;fillColor=none;align=center;verticalAlign=middle;whiteSpace=wrap;rounded=0;dashed=1;" vertex="1" parent="1">
          <mxGeometry x="-256" y="1460" width="30" height="45" as="geometry" />
        </mxCell>
        <mxCell id="MWodSLqaEYV7RXacXT7l-17" value="流程编排" style="rounded=0;whiteSpace=wrap;html=1;strokeWidth=0.25;" vertex="1" parent="1">
          <mxGeometry x="-186.5" y="1570.25" width="93" height="22.5" as="geometry" />
        </mxCell>
        <mxCell id="MWodSLqaEYV7RXacXT7l-18" value="设备监控" style="text;html=1;strokeColor=none;fillColor=none;align=center;verticalAlign=middle;whiteSpace=wrap;rounded=0;dashed=1;" vertex="1" parent="1">
          <mxGeometry x="70" y="1527.5" width="60" height="30" as="geometry" />
        </mxCell>
        <mxCell id="MWodSLqaEYV7RXacXT7l-19" value="可视化运营" style="text;html=1;strokeColor=none;fillColor=none;align=center;verticalAlign=middle;whiteSpace=wrap;rounded=0;dashed=1;" vertex="1" parent="1">
          <mxGeometry x="190" y="1527.5" width="70" height="30" as="geometry" />
        </mxCell>
        <mxCell id="MWodSLqaEYV7RXacXT7l-20" value="任务拆分" style="rounded=0;whiteSpace=wrap;html=1;strokeWidth=0.25;" vertex="1" parent="1">
          <mxGeometry x="-186.5" y="1597.25" width="93" height="22.5" as="geometry" />
        </mxCell>
        <mxCell id="MWodSLqaEYV7RXacXT7l-21" value="指令调度" style="rounded=0;whiteSpace=wrap;html=1;strokeWidth=0.25;" vertex="1" parent="1">
          <mxGeometry x="-66" y="1570.5" width="93" height="22.5" as="geometry" />
        </mxCell>
        <mxCell id="MWodSLqaEYV7RXacXT7l-22" value="任务调度" style="rounded=0;whiteSpace=wrap;html=1;strokeWidth=0.25;" vertex="1" parent="1">
          <mxGeometry x="-186.5" y="1627.25" width="93" height="22.5" as="geometry" />
        </mxCell>
        <mxCell id="MWodSLqaEYV7RXacXT7l-23" value="设备分配" style="rounded=0;whiteSpace=wrap;html=1;strokeWidth=0.25;" vertex="1" parent="1">
          <mxGeometry x="-66.5" y="1597.5" width="93" height="22.5" as="geometry" />
        </mxCell>
        <mxCell id="MWodSLqaEYV7RXacXT7l-24" value="路径规划" style="rounded=0;whiteSpace=wrap;html=1;strokeWidth=0.25;" vertex="1" parent="1">
          <mxGeometry x="-66.5" y="1627.5" width="93" height="22.5" as="geometry" />
        </mxCell>
        <mxCell id="MWodSLqaEYV7RXacXT7l-25" value="状态监控" style="rounded=0;whiteSpace=wrap;html=1;strokeWidth=0.25;" vertex="1" parent="1">
          <mxGeometry x="53.5" y="1570.25" width="93" height="22.5" as="geometry" />
        </mxCell>
        <mxCell id="MWodSLqaEYV7RXacXT7l-26" value="异常监控" style="rounded=0;whiteSpace=wrap;html=1;strokeWidth=0.25;" vertex="1" parent="1">
          <mxGeometry x="53.5" y="1601.25" width="93" height="22.5" as="geometry" />
        </mxCell>
        <mxCell id="MWodSLqaEYV7RXacXT7l-27" value="任务状态" style="rounded=0;whiteSpace=wrap;html=1;strokeWidth=0.25;" vertex="1" parent="1">
          <mxGeometry x="-186.5" y="1657.25" width="93" height="22.5" as="geometry" />
        </mxCell>
        <mxCell id="MWodSLqaEYV7RXacXT7l-28" value="任务监控" style="rounded=0;whiteSpace=wrap;html=1;strokeWidth=0.25;" vertex="1" parent="1">
          <mxGeometry x="-186.5" y="1684.75" width="93" height="22.5" as="geometry" />
        </mxCell>
        <mxCell id="MWodSLqaEYV7RXacXT7l-29" value="指令下发" style="rounded=0;whiteSpace=wrap;html=1;strokeWidth=0.25;" vertex="1" parent="1">
          <mxGeometry x="-66" y="1657.25" width="93" height="22.5" as="geometry" />
        </mxCell>
        <mxCell id="MWodSLqaEYV7RXacXT7l-30" value="冲突管理" style="rounded=0;whiteSpace=wrap;html=1;strokeWidth=0.25;" vertex="1" parent="1">
          <mxGeometry x="-66" y="1684.75" width="93" height="22.5" as="geometry" />
        </mxCell>
        <mxCell id="MWodSLqaEYV7RXacXT7l-31" value="实时告警" style="rounded=0;whiteSpace=wrap;html=1;strokeWidth=0.25;" vertex="1" parent="1">
          <mxGeometry x="53.5" y="1630.5" width="93" height="23" as="geometry" />
        </mxCell>
        <mxCell id="MWodSLqaEYV7RXacXT7l-32" value="故障处理" style="rounded=0;whiteSpace=wrap;html=1;strokeWidth=0.25;" vertex="1" parent="1">
          <mxGeometry x="53.5" y="1658.25" width="93" height="22.5" as="geometry" />
        </mxCell>
        <mxCell id="MWodSLqaEYV7RXacXT7l-33" value="设备诊断" style="rounded=0;whiteSpace=wrap;html=1;strokeWidth=0.25;" vertex="1" parent="1">
          <mxGeometry x="53.5" y="1684" width="93" height="22.5" as="geometry" />
        </mxCell>
        <mxCell id="MWodSLqaEYV7RXacXT7l-34" value="立体展示" style="rounded=0;whiteSpace=wrap;html=1;strokeWidth=0.25;" vertex="1" parent="1">
          <mxGeometry x="180" y="1570.5" width="93" height="22.5" as="geometry" />
        </mxCell>
        <mxCell id="MWodSLqaEYV7RXacXT7l-35" value="订阅推送" style="rounded=0;whiteSpace=wrap;html=1;strokeWidth=0.25;" vertex="1" parent="1">
          <mxGeometry x="180" y="1601.25" width="93" height="22.5" as="geometry" />
        </mxCell>
        <mxCell id="MWodSLqaEYV7RXacXT7l-36" value="维养管理" style="rounded=0;whiteSpace=wrap;html=1;strokeWidth=0.25;" vertex="1" parent="1">
          <mxGeometry x="180" y="1630.5" width="93" height="22.5" as="geometry" />
        </mxCell>
        <mxCell id="MWodSLqaEYV7RXacXT7l-37" value="数据统计" style="rounded=0;whiteSpace=wrap;html=1;strokeWidth=0.25;" vertex="1" parent="1">
          <mxGeometry x="180" y="1657.25" width="93" height="22.5" as="geometry" />
        </mxCell>
        <mxCell id="MWodSLqaEYV7RXacXT7l-38" value="数据回顾" style="rounded=0;whiteSpace=wrap;html=1;strokeWidth=0.25;" vertex="1" parent="1">
          <mxGeometry x="180" y="1685" width="93" height="22.5" as="geometry" />
        </mxCell>
        <mxCell id="MWodSLqaEYV7RXacXT7l-39" value="点位" style="rounded=0;whiteSpace=wrap;html=1;" vertex="1" parent="1">
          <mxGeometry x="440" y="1390" width="120" height="60" as="geometry" />
        </mxCell>
        <mxCell id="MWodSLqaEYV7RXacXT7l-40" value="工作站" style="rounded=0;whiteSpace=wrap;html=1;" vertex="1" parent="1">
          <mxGeometry x="610" y="1390" width="120" height="60" as="geometry" />
        </mxCell>
        <mxCell id="MWodSLqaEYV7RXacXT7l-41" value="设备" style="rounded=0;whiteSpace=wrap;html=1;" vertex="1" parent="1">
          <mxGeometry x="440" y="1490" width="120" height="60" as="geometry" />
        </mxCell>
        <mxCell id="MWodSLqaEYV7RXacXT7l-42" value="库位" style="rounded=0;whiteSpace=wrap;html=1;" vertex="1" parent="1">
          <mxGeometry x="610" y="1490" width="120" height="60" as="geometry" />
        </mxCell>
        <mxCell id="MWodSLqaEYV7RXacXT7l-43" value="巷道" style="rounded=0;whiteSpace=wrap;html=1;" vertex="1" parent="1">
          <mxGeometry x="790" y="1390" width="120" height="60" as="geometry" />
        </mxCell>
        <mxCell id="MWodSLqaEYV7RXacXT7l-44" value="设备协议对接" style="rounded=0;whiteSpace=wrap;html=1;strokeWidth=0.25;" vertex="1" parent="1">
          <mxGeometry x="-164.5" y="1753.75" width="93" height="22.5" as="geometry" />
        </mxCell>
        <mxCell id="MWodSLqaEYV7RXacXT7l-45" value="安全认证" style="rounded=0;whiteSpace=wrap;html=1;strokeWidth=0.25;" vertex="1" parent="1">
          <mxGeometry x="146.5" y="1753.75" width="93" height="22.5" as="geometry" />
        </mxCell>
        <mxCell id="MWodSLqaEYV7RXacXT7l-46" value="系&lt;br&gt;统&lt;br&gt;设&lt;br&gt;备" style="text;html=1;strokeColor=none;fillColor=none;align=center;verticalAlign=middle;whiteSpace=wrap;rounded=0;" vertex="1" parent="1">
          <mxGeometry x="-254" y="1891.5" width="26" height="70" as="geometry" />
        </mxCell>
        <mxCell id="MWodSLqaEYV7RXacXT7l-47" value="" style="rounded=0;whiteSpace=wrap;html=1;dashed=1;" vertex="1" parent="1">
          <mxGeometry x="-216" y="1876.5" width="196" height="97.5" as="geometry" />
        </mxCell>
        <mxCell id="MWodSLqaEYV7RXacXT7l-48" value="" style="rounded=0;whiteSpace=wrap;html=1;dashed=1;" vertex="1" parent="1">
          <mxGeometry x="77" y="1877.75" width="223" height="97.5" as="geometry" />
        </mxCell>
        <mxCell id="MWodSLqaEYV7RXacXT7l-49" value="P&lt;br&gt;L&lt;br&gt;C" style="text;html=1;strokeColor=none;fillColor=none;align=center;verticalAlign=middle;whiteSpace=wrap;rounded=0;" vertex="1" parent="1">
          <mxGeometry x="44" y="1890.25" width="26" height="70" as="geometry" />
        </mxCell>
        <mxCell id="MWodSLqaEYV7RXacXT7l-50" value="WCS" style="rounded=0;whiteSpace=wrap;html=1;dashed=1;fillColor=#b1ddf0;strokeColor=#10739e;" vertex="1" parent="1">
          <mxGeometry x="-200" y="1888" width="70" height="26" as="geometry" />
        </mxCell>
        <mxCell id="MWodSLqaEYV7RXacXT7l-51" value="WCS" style="rounded=0;whiteSpace=wrap;html=1;dashed=1;fillColor=#b1ddf0;strokeColor=#10739e;" vertex="1" parent="1">
          <mxGeometry x="-110" y="1888" width="70" height="26" as="geometry" />
        </mxCell>
        <mxCell id="MWodSLqaEYV7RXacXT7l-52" value="" style="shape=image;verticalLabelPosition=bottom;labelBackgroundColor=default;verticalAlign=top;aspect=fixed;imageAspect=0;image=data:image/png,iVBORw0KGgoAAAANSUhEUgAAAQYAAAC1CAYAAAC9HFFTAAAK22lDQ1BJQ0MgUHJvZmlsZQAASImVlwdUU9kWhs+96SEhQADphN4E6QSQEnoApVdRCUkgoYSQEATsyOAIjgoiIqgMZRREwdERkLEgFiyIYsM+QQYR9TlYsKHyLvAIM/PWe2+9f61zz7f23Wefvc+6Z619ASD7sITCdFgBgAxBtijc34sWGxdPw40ACGCAArACZiy2WMgIDQ0GiGbnv+r9HcQb0U3LqVj//v6/SonDFbMBgBIQTuKI2RkIdyHjKVsoygYA1YjYDVZkC6e4F2FlEZIgwtIpTpnhd1OcNM1o/LRPZLg3wloA4EksligFAJIpYqflsFOQOKQAhK0FHL4A4VyE3dk8FgfhDoTnZ2RkTvHvCJsi/kIAyCSE6Ul/ipnyl/hJsvgsVoqMZ+qaFt6HLxams/L+z6P538pIl8zuYYwMEk8UEI7M8sj53U3LDJKxIGlxyCzzOdP+08yTBETNMlvsHT/LHJZPkGxt+uLgWU7m+zFlcbKZkbPMFftGzLIoM1y2V7LImzHLLNHcvpK0KJmdx2XK4ufzImNmOYcfvXiWxWkRQXM+3jK7SBIuy58r8Pea29dPVnuG+E/18pmytdm8yABZ7ay5/LkCxlxMcawsNw7Xx3fOJ0rmL8z2ku0lTA+V+XPT/WV2cU6EbG028nHOrQ2VnWEqKzB0lkEk8AW2wA5YIk9rALK5udlTRXhnCvNE/BReNo2B3DQujSlgW82n2Vrb2gEwdW9nPoW34dP3EVI9NWfLbEA+4ffIXSmdsyWVA9BeBIDa/Tmb4V4AKIUAtHWzJaKcGRt66oEBREABykAd6AADYDqdmSNwBZ5IpoEgBMk4DiwDbMADGUAEVoBVYD0oAiVgG9gBqkANqAeN4BA4AtrBCXAGXABXwHVwGzwAUjAMXoAx8B5MQBCEg8gQFVKHdCEjyAKyheiQO+QLBUPhUByUCKVAAkgCrYI2QCVQGVQF1UJN0M/QcegMdAnqh+5Bg9Ao9Ab6DKNgEqwMa8PG8AKYDjPgIDgSXgqnwFlwPlwIb4Er4Tr4INwGn4GvwLdhKfwCHkcBlBxKFaWHskTRUd6oEFQ8KhklQq1BFaMqUHWoFlQnqgd1EyVFvUR9QmPRVDQNbYl2RQego9BsdBZ6DXozugrdiG5Dn0PfRA+ix9DfMGSMFsYC44JhYmIxKZgVmCJMBWYf5hjmPOY2ZhjzHovFqmJNsE7YAGwcNhW7ErsZuwfbiu3C9mOHsOM4HE4dZ4Fzw4XgWLhsXBFuF+4g7jTuBm4Y9xEvh9fF2+L98PF4Ab4AX4E/gD+Fv4EfwU8QFAhGBBdCCIFDyCNsJTQQOgnXCMOECaIi0YToRowkphLXEyuJLcTzxIfEt3JycvpyznJhcny5dXKVcoflLsoNyn0iKZHMSd6kBJKEtIW0n9RFukd6SyaTjcme5HhyNnkLuYl8lvyY/FGeKm8lz5TnyK+Vr5Zvk78h/4pCoBhRGJRllHxKBeUo5RrlpQJBwVjBW4GlsEahWuG4woDCuCJV0UYxRDFDcbPiAcVLis+UcErGSr5KHKVCpXqls0pDVBTVgOpNZVM3UBuo56nDylhlE2WmcqpyifIh5T7lMRUlFXuVaJVclWqVkypSVZSqsSpTNV11q+oR1Tuqn+dpz2PM487bNK9l3o15H9Q01TzVuGrFaq1qt9U+q9PUfdXT1EvV29UfaaA1zDXCNFZo7NU4r/FSU1nTVZOtWax5RPO+FqxlrhWutVKrXqtXa1xbR9tfW6i9S/us9ksdVR1PnVSdcp1TOqO6VF13Xb5uue5p3ec0FRqDlk6rpJ2jjelp6QXoSfRq9fr0JvRN9KP0C/Rb9R8ZEA3oBskG5QbdBmOGuoaLDFcZNhveNyIY0Y14RjuNeow+GJsYxxhvNG43fmaiZsI0yTdpNnloSjb1MM0yrTO9ZYY1o5ulme0xu24OmzuY88yrza9ZwBaOFnyLPRb98zHznecL5tfNH7AkWTIscyybLQetVK2CrQqs2q1eLTBcEL+gdEHPgm/WDtbp1g3WD2yUbAJtCmw6bd7Ymtuybattb9mR7fzs1tp12L22t7Dn2u+1v+tAdVjksNGh2+Gro5OjyLHFcdTJ0CnRabfTAF2ZHkrfTL/ojHH2cl7rfML5k4ujS7bLEZc/XC1d01wPuD5baLKQu7Bh4ZCbvhvLrdZN6k5zT3T/0V3qoefB8qjzeOJp4Mnx3Oc5wjBjpDIOMl55WXuJvI55ffB28V7t3eWD8vH3Kfbp81XyjfKt8n3sp++X4tfsN+bv4L/SvysAExAUUBowwNRmsplNzLFAp8DVgeeCSEERQVVBT4LNg0XBnYvgRYGLti96uNhosWBxewgIYYZsD3kUahKaFfprGDYsNKw67Gm4Tfiq8J4IasTyiAMR7yO9IrdGPogyjZJEdUdTohOim6I/xPjElMVIYxfEro69EqcRx4/riMfFR8fvix9f4rtkx5LhBIeEooQ7S02W5i69tExjWfqyk8spy1nLjyZiEmMSDyR+YYWw6ljjScyk3UljbG/2TvYLjiennDPKdeOWcUeS3ZLLkp+luKVsTxnlefAqeC/53vwq/uvUgNSa1A9pIWn70ybTY9JbM/AZiRnHBUqCNMG5TJ3M3Mx+oYWwSCjNcsnakTUmChLtE0PipeKObGWkQeqVmEq+kwzmuOdU53xcEb3iaK5iriC3N888b1PeSL5f/k8r0SvZK7tX6a1av2pwNWN17RpoTdKa7rUGawvXDq/zX9e4nrg+bf3VAuuCsoJ3G2I2dBZqF64rHPrO/7vmIvkiUdHARteNNd+jv+d/37fJbtOuTd+KOcWXS6xLKkq+bGZvvvyDzQ+VP0xuSd7St9Vx695t2G2CbXdKPUobyxTL8suGti/a3lZOKy8uf7dj+Y5LFfYVNTuJOyU7pZXBlR27DHdt2/Wlild1u9qrunW31u5Nuz/s4ey5sddzb0uNdk1Jzecf+T/erfWvbaszrquox9bn1D9tiG7o+Yn+U9M+jX0l+77uF+yXNoY3nmtyamo6oHVgazPcLGkePZhw8Pohn0MdLZYtta2qrSWHwWHJ4ec/J/5850jQke6j9KMtvxj9svsY9VhxG9SW1zbWzmuXdsR19B8PPN7d6dp57FerX/ef0DtRfVLl5NZTxFOFpyZP558e7xJ2vTyTcmaoe3n3g7OxZ2+dCzvXdz7o/MULfhfO9jB6Tl90u3jiksul45fpl9uvOF5p63XoPXbV4eqxPse+tmtO1zquO1/v7F/Yf+qGx40zN31uXrjFvHXl9uLb/Xei7twdSBiQ3uXcfXYv/d7r+zn3Jx6se4h5WPxI4VHFY63Hdb+Z/dYqdZSeHPQZ7H0S8eTBEHvoxe/i378MFz4lP60Y0R1pemb77MSo3+j150ueD78Qvph4WfQPxX/sfmX66pc/PP/oHYsdG34tej35ZvNb9bf739m/6x4PHX/8PuP9xIfij+ofGz/RP/V8jvk8MrHiC+5L5Vezr53fgr49nMyYnBSyRKzpVgCFDDg5GYA3+5G+OA4A6nUAiEtm+uppQTP/AtME/hPP9N7TcgSgfgCAyJUABF8FYFcV0soi8SnI/0AoBbG7AtjOTjb+JXGyne1MLJIH0po8mpx8i/TcuFIAvpZOTk7UT05+rUeSfQBAV95MPz8l6xak5+mOjY90eriDuQ78TTO9/p9q/PsMpjKwB3+f/wlO5hogEQgeUAAAADhlWElmTU0AKgAAAAgAAYdpAAQAAAABAAAAGgAAAAAAAqACAAQAAAABAAABBqADAAQAAAABAAAAtQAAAADwbdu6AABAAElEQVR4Aey9+Zddx5HnF29fa69CoQqFnVhIggR3UiS1UEu3NN2jdrunZ0bT9hmP7XP8u3/y8U/+I3x8bP9g+7jtPtPbdEvdarlFkRLFRRQJLiCJhcRW2JdC7W9f/fnGfbdQJEQSKJJVAnUTuPXeu0vezMiIyIjIyIjYO1eWu/9wqmN//fIhu3zlsnUzXVvqVM1s0BKdMWvHu9ZKNCzfLlmxVbLr2X5r5AbNWhUO3ReVCAKfDIG4dS3ebVurlTVLbbJkt2Ld6qxNjY7YM489aj+4P2MHc2bVZsuS8TkbqhcsUU1Yt9CxijUtnkjygvgnvyS6uiYIxGKxlec6nY7piMfjljg9+p3/6c9feddK8Yzls2mrtppWjXUskSlas5OxZpybkwxOt2HpTs1qiZS1E2mzTsuMwTZTxdERweDjcSAe60LwEHYiZ91kweIxcKdds0qpZOenz1hmuWNThTEr9HctlWxYqgFidmAG2bg1dW8sDobdQOAVTI6+fK4QEJNIJBLWbrct+cqV61ZNZKxqaWvU25bKD8Ghs1ardY1TMOqOWbJtNQYo12lbzAe1DmPgfDfxuTYsquzLCYF2V7jSZIIBp5oNayEF5Io5y9Dd2vKyvXX0iD0wmLLhiR2WRTpowgNSiZh1hF4x/mj+4dGofPEQ6HZh4skkjLyYYpDGrLpUs2a5YdlsPhiMZpPRYTTEqGH23G6tbhohIcUJcQw4uR98RCWCwCdAIAFxF5j926mclRtIApUWakMDqTRtiULW5uYu25W5Wau1pqwohEsya3VjYJcmJVSKTtcQOqKyjhBIdkvXrNNoW7GbsaE0qsQSWl0H+0GuGNC9dJAug9nNWgsW3u30wcH7YRZlREPui0oEgU+BQBfpsl2TpICkiTphaaSARstKrQaSZ9vGQLE6U0+N36L/GDNWu9VjDOBfLOIKnwLhz/9yMp6PWxIhoFVtWCOuwWCU4gycbD3oga4yMHiGiIEiAQ9n6CQa6r5Ilfj8R+RLWGO8g+6KhFDVhCOJFCkgFkP6lJ2Ka0nDKCnJoNW1BIgXx6YgDAtQDaxDeojK+kIg2czCkYtpbAhNqy1WLF1k4BD5TKpESwyBIXJDY4xxYsCk8+nQ0LkSuL4Njt5250Eg1YlbHzjTZcJZFo2jGiSkKmgCAqvanGu3O4bNG7tDEnW1q3kIPTdh9XoDRqFViYg5rOfIJ8uzjEYbzp1AdYg3kfAYhESH5cmabcPGUCzADDAaZRDtsumuNRJNqyeQJNy+IKtQVCIIfDIEEkgFzXLGKg3ZrYRvWL15pMNKBZdYxmTlC2kh3Y2z8gXDEGNgEtI9De6NYSmPyvpCIJnK7UY4QG9ooU+wXInBAePQok2hVvxXB/fbY/u3WCq2zKDBN+odq6cS1sjA1btVtIzIxrC+w3Vnvq2WmrB3z7bsf33uZZvH3oAiYTmWvDuseDW6wXJkAqlAkkUCHIvLppVKYn6oWxq1wlWKSGBY18FPtmEAviSJIxOKH4xBI9C1Qj5pD941YY/szrE4oYUlMQ/+wztqfI0by5ouNaxre6OX3YEQmEcKvXC+ZHm3S2GlQkWVI01by5eck3SgzwSMQXqFbAq6IpTUanmksa7/oCc7qAZSHXxs4lC9GxYZtDi6XWfJkh3sDd0lxg1xDmMjvMGNkAwjvzWgUYkg8MkQwJnWhlNpywnJYAjdVgvCbzseIY4GKgXX4sInn5gC8UCLEcIwMQkdUVk/CCTz7SWrYAyyGFJBHHVC3ozS9+DqiRbLS3hCulUIptHEj8HtkUgZ8kVLB+O3fq2N3nRHQqDNHJJn6Svh84jWtTosics+xQnsBy0uSHJ14tcfTrd0ie9MWVHZAAgk+5tLuCuJexdh1jkGIuYW4pwMjnIs4Z9LCzCOlizL4iE01MU8nopKBIFPg4A0BgQDJp1QMkVKEAOQSJDE2AhjaMEYOlJl+a9VCjEGcQqtVOrWqKwvBJLzmSxGHgi8k4ZRZ5zwm7GUNRN1a2JxbGXaaAwS/fBDgzHgqWryfQwGWqMXlQgCnwwBUAYca+HNCJ5JDMCAbTG+C31AqCaHGEM7ZAx8d8YAHxFj0OmorC8EkvUcfgtaRmrlGKssAyH+XGezVNzKiZaVsTWwFsEYptAFsRzD9SVJYD9mtCPGsL7DdWe+DbMCUqgYQ09iSDlHgCnwG6bQdsbAPToNFxCD0HfnB3z66Tuz63dsq9mxAtilBGrQErg5iy9oJPUJu05agS+SJlJscsMvjfPyf/QScfIADtHfT4RAm9XHBnZt7dpj/5TjEUjm/1mvtBzu0dl2E7ySIZz/4FhG/jQwiFYkMnwibL+oi8kUjKGpLa4u2pVgBoyMeLXGDUcT9lmhCiY1Xq5GyOog9xOX7+D0UYkg8GkQ0BzTTmNgRJWIN/F6xK7Q9dUHJiXcZnLNtmUxcsfwvhWiJcHJFNykKZUikhc+DbxfyHVJaVGJIBBBIILAhyAQMYYPgSP6EUEggoAgEDGGCA8iCEQQuAkCEWO4CSTRiQgCEQQixhDhQASBCAI3QSBiDDeBJDoRQSCCQMQYIhyIIBBB4CYIRIzhJpBEJyIIRBCIGEOEAxEEIgjcBIGIMdwEkuhEBIEIAhFjiHAggkAEgZsgEDGGm0ASnYggEEEgYgwRDkQQiCBwEwTYVhmVCAJfLAS0Sb8dJ+APiSNihABLEM8jwc7dJomSu4rJQCSwOjkr2WPJrktiSGvzLqcVTTpBHMjPHqhlrbuAtS907SVJvs4kUbBbBEBqK1MnHVNYOw98xG7mpKJie0yTYMdykxyxup4hSk2MfjcV8o7Oe4gUmqEguerJjd4E7dNfxVHxX71P3Rk+t5YeRIxhLVCLnrktCBCFgaTJVVLPdYgTSowPAgMlSWiUTJF+IFaxNvEfS4okliF8IGFG2zVYRKZpiWzK8oSR75JIuS1OsaYCGa05aDGk5tQVEODtvj7Zon/NeaKdbYJM6QcViA+0knUiX1ct0yac4hxBl9PERCMcdrtA8mieSS/ANLJDHtVKSXkk1sdhCh5OkUqCmChqDcxAjIDDWQoXOr3fCqyrpD5rLRFjWCvkouduEwJCb0kDKcIHgswgLmTgEaIXUik7XGnbz8+bzRBQLEvot3izZpX5stXJghYnl+WqafI23/vhOfY2H+Z2kfPaGEOGYBMZiLNOf+F3zmQ6RERrJ4m1TnKnEbjgzr5h64MvtBpLZN2qWp5Ev6kC/SWEVS/iqp707gc9CaWGXpv4+Cj9B1f0N2IMDrzoz28nBMQSUq0MUcdRFZJ5T3PfTKA+KJs6UoESR7xycdYOnX7OihUSGSWWCdJS8kS3SXJdxquoFB4Eci39+6yMYa2SCgESYWgNomPH6V/CgyGRGZZgNHHUiwRBa/oJuf747h32g6/fbwe3FGyMpNKNZSSM/JAtL9dcukoQWU1CS5i/U0xAAZsDkg+kBY95wxlJEmEJ7w9/3+5nJDHcLsSi+9cIAQIKIy53CCzckWjv2B5IEZYhgzpJjRrNulUkcichkHgee0OH9HWgaJL71hwtbO2zZtDRVdR2uz2PERYxXkC8b/rh2XPUb8W6U5Q7Qim+cOaKLZSu2P/wZ39gOZjHUHbMllEelujyCE1PKcxiWPgdRFDji+rplRvfAubgoP0M0oKqjRhDCN3o8wuDgBC3naygW5cIL0qOVFQKGSDjHXTtJmJ1mVijJKFJN1I21IUhEEqwk8RgR9q6JjlO2ikCEkv8XlO5QTZretwfWhtziSntYy1Nbwlph7FRBtZ6IoVxMWtpmEMsl7Fqo2bHrlyxf/r12zb56BM21IfqQXi7VpFnGzJQymgbqAtiEV1sNH70OhO0zE2NAa+VNMEDLlmsYh632/eIMdwuxKL71waBGMEdOaRjy+Iug1kcHTzOyoSMjoYYnYNoYvWYVZAcZIdI5/NEmk+QW1URptdGnEFjV826t9V6vTM8butBvznVRP7BVtKN18idUSfubY58TnliqXK5mbDFygWLF7leKNo/vvSGPTV5jxW3DWCMlIGxKvaJyqF1CqkPFKQIwU35NwJ2JybQa6F/KpuXniXKtu6IGIOgFpXfVgiItMhrDaKiRqBKxFCK425aV1qCurWkfxMQtkr6gng6Z1X07wYRoxOxqi9favqLtZlB11J8NeOzMAanxrW8mbjqy5ZMLFot1bYK9pSAt7Esq+zyqAgDfWT37kdqWCpbpR63v3ruVZv4V79vU4Ntss3DVDpYYoFQyAYgda/DVyL8bGCeDGwLvVULwRbG28GG81lKJDF8FuhFz94yBGKNPAbEIqHj+YRCUprNtOLQblgqnYQZkOWMqbSJVNHAYm/o5e0YtvwY0yfx5FnS/wxFrElktb6lw9pki/a3WabtpmBOpHjE2oo5BXZIzpYkhslGqWrp1JBlBoftTQywPzx0xP7t0C7birTUVVoHpfAjtH6XiNliCOgknhA4kAZWAWWlez0JJ+BCa+5wxBjWDLrowVuGAJNXvNaHIW2EmX+QGY1cEhgUO9gVrIGITb6JJIbJGEjfVDx5MqCZktJgvXcZmp/tNU/6elBUs0I5t9xsuBL3rl1iqDJ717EnSCBy/aGTpSMkbuJnnf7Xyf6WtT4rLZLnDQbSKYzYjw8fs31TCdvywA4yQ/IgakOj2cDnAybhUhaSh2qgO3GuqYVBO/lwZiD5grPBBb+6lj8RY1gL1KJnbgsC+OhYJpezBM5KMZA7Xq/ZIMuQkyMjlhcyJyCYeNYlCSF8NQ2zwAswCRF5Bmx8B2PKe7KmIoawZq7Cs6KwtVFZu9lHnwqWwlmrayX6UrS5+aYdXyhZpdCPhRHVCdaQpm8t7CjlTBKVomQ/OnTGtm/ZaQ9NJq28xLJlvg8v0aZLVrUauV9iMCuYqRLQq2XyeFARKNVTnXPmoJNrLBFjWCPgosduHQJCW1AfMwI+CuRFzSSatm/LFvv9B3fathyzoRIa4dAjaVvSRCOF3QFbRAarvjym66kqKxpIEmsuakFAPLdXhUhMx9pKuz2GLSVmOV4dry+hKmXs7MU5++sPLtrrJVYpOiSRRl3IIC0lizG7nqrRzIK9eL5mE7+atsnv77Mc1B9Dj6pVkbJQqdKZgtXKJKJGgggMj7AA6g/sEIFfg3r6GTWJaLlybUMePXU7EBCidrolZrNlfBRAYVYicsWGbd1ithUnIGyS2BqwI3BjHIeeGhyiDbFkWx0yUrHYF8/AUKSf31mlBlOoMfUW6Fee/mFhtUJ/2u5HQjp66ASMgRWK5LDVMZB2s6zMVFi2xT26ii3iuXdP2IO7B+17D4zbXKWLTQY4NToYZzFYprgXNUzuHav5XWCUFFPQu3SsvUQSw9phFz15ixDwOTdWYsPUksWkK3fLFtd37ZOoz8IQ8OuPs1QJMnfcCYolTIxzHXRwZWFPtcidKqeoNZXPNusHBLY2Iqtl5qzK5rGsL9XWsKVUrTictIMHsvbefNJ++d4MJocCLtOsyFTYV9HG2IpDVKswaFcWGvbDX7xse7f+oY0PAYdmEkkLfsAek4zsHkhS/FwpbbopD0hYDJ9aChaTXbl8218ixnDbIIseuF0ICEkT6NIyvHWVK5WluZgSJePtmGaVItYCo3F5FnK3QeoWTKAJsSRkxdfeCipYu2hMpWt/GBl97dTVZaUlq00SsT6kgwE2SM3hl9Flf0Tevrd3u108e8xOVZfpOhKArKvsk0jKr6N53VLZhp08f8b+/p+ftf/63/1B0AXgkGAlo75csT4kizgwUlEL6aX/cTsDPz5Ds1VTpEo4FKI/XygEhLTJGMZHY10ePTuGupCwnDv5sHCJXwMYzyHHnRaEw24CGAPiM9KCvCBbySbEs1bjo94u1rSWskJya3nYMuyRKDTwW2jlrYFLdxyDa9sWLI/x9YmxAZu+Z49def2clXHushzu05VFyzaqCAcs4+IQ1WbKP/TeMdv/5j775kN3UY8khi7bS1jpIAlwAniJI0jSElNVayU1iDk4O/M/a2r6BjIGGq1OhDwvgRDkoo9OaIpQp5GVcIRbKYDPk3JLGZVnF35eAWdcDQDud+AEYHJOqvkpgBaffl0PyG67ynYbnNIbeu/TZ/h91VdnxWok11y81Sc/w4OvK4/541xwJxt9uq+f3ypU1eHi4Opnw+d5j067aMinvnt/e9+DM8wyFMUtkDfhTW3g/R3ejcbOJfwE/I3BbWoaK+L+rMNHVQXVqUpvXJcBweeQ53SfMp6rxWsrXbC1mWAEs1jpmRUHm2UIH18F/JYgGSoFA0T8tDfJ+p7ALGt7HJ8G4cbaNwUFUFxbq8OnfCDDH7f8KdflVlojrJzdKVZh2S/SAOp4PSaSWXvqgc12cr5mr5y9ZnP1Oiu0CSvjFp7IDNp8BZtMsYjHZ83+r2cP2c7dd9lBLWQsz1iiyL6SKoMVL2KDoX9ascDvo4GltmMFfEEC+Gmz+1rLxqgSGisOETCuLE5HcuJ0xiCxUixPjAF8AY661YsYgyMvN0qP4pIffoNu0gmKi1PcKPYhlHPEB738hZwIjDQwIu7wR3rtCepZqZUnexX2PlR3wIlg3apP14OXBY0MG+r3BZeD+0VxQnp8//2tgajm1X7o3XqQokbTv+CpgAnquwhTl4JHdEb77ETuYg3+M4CPvutGmqhaFCpEvVUJXxcwxaDBK4xB3VJRZb0KtZrQ5p+Id62MgckfZx0xRdANw1m8hoW9ughS4/qMFN0RDKm/qyVJbAxSIWRT0BNappSL79oZgzoU9FPf1rNoQ2gTA2Qaz0c5csXY+5CiX22kpwZqxnghY999aK9duXLBOvPLxGMYx78BGwP7Kyy52RZ5voQ9Zqk0Yz984TXb86172GQFm4/hUaklTJiIMwZ2aQYbtLTqA2Ogu5+VsANsWU9orXqXXh7ioM9mWp9dOYIbdY9I0MlQ4yu9igMBE8SBOPxccG/4NyB4kUJAPMHcy1VH9oDA5Iced/AJhHK31dTFEee3Ft7jvLn3ck3GknbBbV6nShR0Q4is8xAuj2i/DDYyP9p8dlSlqvaGqyL9QGKENbDxGI0bq7K3nw6oDyohMPj0+vWOXu/ZeOzNUU3BoZYEh7MQTbF6Xhf12StygRHho6lLy1855GYj+Ogf8zarBVwU51W71WaKXJe10l7ghEyDUbk9CGii00qLICdcEf6IWUhF0OTUQTfYPTVqD+zda/2oGkn2iKSY/a1RhvAZiCYzPkTfRcr62ZtH7dlj56yd28wSboElTo1IA9WL+1N6Q9IK9RyMgq+OAyFS3V6bw7sDbA1/rfOnuqM+BF3QLw5nDDcaousquuqzrmZen8F4StQqqlUJ4aAqeki/whB0MSSc3r2hz5g/u/oPz6sqDaR/9q6Jxei35mYxFNUdiPmaT4PvOqd2hsSoexHq3EMNkzztRV6Qmy/3Be0WBYYH/QgeXnk3F/2UCFvvVk91t94b/gtaFTBA93jhuhfVRQmeEVuhSCLQ+Z7EJTlCMgfuQw7RGMxQ9yXDjvd0f07xDA/2QO2/oz+fCgExBryhXRKWdCzYS3rSd41hCphq5L726AN29sq8vXH6MnsrGJMcruNEcorjMi5/hTLjlojl7Uevv297pqbsyZGitVjFiLNy08Jlus1EJp8PrVykeWksxQOuvn5qEz/2hg0cajoAlALNV1ADJcUU1KIeEPWpn46sjtXqMEdParjBKFY94yQkFSKYEQOSCshnpe4Q8Vd9OkfnfW4g1ydVigX1SK73TSJ1QPyqHy92DvQ7NgKliUaU4dBncMD9uaY4RY4NapeLGFQugvPG9DrbMyKF/eYOrnZhKm3q0vJUnZm7BsFK1xY89O7gUDvUJpG488iwalXi/esxBX76K/VJPXIkkoCAec/ZnOrp1eIw8LboXgxo7tOrtkfltiCgscKBMxgHwCeJAVukf4pwY0gM8ttiQ6V9+9GHbAIpIY9NIUtUCmstWQZab2FkjLNq0SXU2zuEfPvLV47YhSq+DoxLSntNwI8GYolCwEkvk0NYpltBUvksDmE3UOW2OvzZb6b18oPnCAg4qFFE6AgZIjc/9VX72XU4qTon1PO9w8/7k1wXJeh7cIhgRGAq+utjtEIwvZO9D39Cg9e7L6wleFpn1VaxC83V+hvIHIGwD/fnTHhInhDDC5kSt1P0YnojyYGrwSe/5dfKzCGiDqUUb4XDh8Ht4A3X1oGkASJQLSWoO4Bd0NKQqN06rVfpUPFK+aGpynV49UXnOZi6pL8H2oMYTCD7iMn4816HntUohBXq4ajcCgQkMbg3JzdLSpAa0eDQp363WZ3I8YmLhx3cPmDffvwhG0A1iDcWmPllX8FYybjFYALLLPFeYV/FL09ft+eOnLV2tsjYaQJsM89gR+qp4MK5DDiT1OT5GcoGqRJCUhGZxPKAdENCFO0IoGERkQUCl04CRen+IZKKqERkmnHDIjbtWB9+Bnev1M9V36nXe4foRoPU+xnWrGb4d7UuELQDpqD5OzCYquUYyfwI7vVXh+1QK1R371Pf3XiojTQq/Fb56LuDvgaMSKpHwED1mwe03q2iynp9FiIErErvUi84o1v5psNP6SXMKkQb5BzqjZ7V9KXzXmBk4k8AXm9SPfrUJOR3BNUGt0Z/bxkCwmPN4GIEAqGPqgaFc9LMcAK1BBuk0nh36t8zj+zGd+G0vX5u2iqszFQx/CQzRevit4COwVySgTkk7a/ePmm7to3bVwfZXyJ1g30TYg5lVkC0azXfFKPQitLai+PO2h9f65MCU0iqIryg6Iw7uQiQvZMiygCsfLiqIWxljpOLrH8Ko4MZ16EdVuZV6j0qwafXr5+SOjRqvfeEd/kl/lCjH+Ka4sjeBpdQ9N3nU68xfE7VOZ9TU8NDL+PQPfoanla/dIgmva+967pH94rQb8CGr/47/KDB6p/g4F/48G96JmAQvdeGT/n1AJgBYyDIGP9UCb0MLara3suspCVPyUGqTe0VYkmTcA6jR6JyWxBwKANMQXT1mPtkwMUsDk1tbAVF8DfHwBG8yX7/6Uf5zWpNYxE7OEu8uD734S4dlwNUtt+WsXC/udiwf3jzfbwqYRowjzRLlh2kwQokIQcx4aJsG5+lCMM2qATILIiFOBcipCMlHWvj/mkNcg9oOQZOWcJXfK7eQQMjJiBMoQaBLHFljtuQxuwqAS/qK5RHbYQPC/T7oIuqX/CS0S1chhM56f06RAMyvAmoMbhus4zLbhnLcJ33aw2ogT7eWbaiLbKyULYsLq6JOqLfKtYso7IXbtfyVKK8bOk6jitdlueIyiOqU7ekFTTpT4XZoF4lWjInOqgPEual/bfQF5VnoSl/+vggqwaEE8cPYL7K5huaU6tzL8FN1PLScom/6geVU/T3Bl70ekdgEJ7063TDqsBRkYSkYSisoGwri5wrAesa7VgoL/Ie4iOorUG1/mz059YhEIyJRiIA4OqQbKpFkpsiYseIFh3TigR7Q/ZuHbQ/fOZJS7CLsj+Tg3FUrV5btEGkAwOXNBkuJwfs+ZOX7K9efZfIcX3WARe0S10bz+o+YAoGo3Ffe9kYVSJsc4+IHXX5E4JQYIwzDSdcp2CO5kK1xu48AEXA4ECU5yY9LorW0uAcOF8sFhDBMKwhA6dcx1JNukkfAdnoDIIXZ3XIBqHPYKbUp8awS94DBSJNEZS0TUy+DgQT1yYXUT31thD/qgxAJybiTdpStWGlSot988zK9YYVC1kb7c9ZXz5haRxZEhiUtDlIb64SIjyV1iKgGFHL+jE4SbLX8lVDRMnM0GQmj3EPbg/ESKTvPCoNSraAFHWWa7QHxqV/efbsZ+Ub4D3iBor66Af1Um1QBJcOodRoT5Mpq80OHNUt1iKOqNva1KVWypaSKxA/QbWKeYjZyVLZAyXfonILEAjGQRANBkFjoWlQRnd9VwCWBNxZcRVE2DJW9xHr8v5dW+2pg3fbz966DEOYZIK6YtXqgmUyIxA+9bEJa7q6ZM+fumJ3bZmwr20ZJPoVKxTYFjJ5PErLVCak+gxlYxiDGuwNF0XQCYDEXyf0YA4UY2BKlY6NmBVDt5b9v8zt712p2PwMu/QgHkwzFicngZxgSstz9tUH99ooEJaZMIgQdAM4cUZCvzREAfJrkPRN7CD49IuSYLi3KW7E9yRGHjXOhQbacQV74FvTV+3QkeN25vKszVZbhmQHoeUsWxyAmSStVkI6gAh3bx61+3ZN2f6tm23HRMYmIS6NWwxKa9SqvhoQU84EGEKMaTmTySMpJO3aUtXOzMzZDG6frdyQLfDyOAhTaMzY0/dO2DA77IronokaTKvGqogCetDWOBKUeqI+hv1MODbyi/r7BFwxBLgMBm47cdns9JVrrHIhjuJ2nIrVrLkAsm0etvt37ER6YkVDcm9YKY9H5dYhIGYvnwUVtzfwtctMLt8GrQq1mAS6TBgavoSiYEtyIBLs1uF++73HH7cjR35uFXwaun2aDEo2kBwk8AsPc9RwF3/52oKNvnGU0PNfp86Y9ctwwVg1FRlKqxm33tSb7twgxiASpdkyHgpuAhQfwkFd8auaqjSfAcgu4paM+WcXzH76+jE7evQks7YYQIcouxLPGyTqiFnf4JA9tGvMiHeBiTDpwHdZWcylV68+fYrkjBhDYPqkAb12qCUtuG8HB5JkLm1LEL1EbwQC+9Vbp+x59tIfW6jZbBkiSuEDT4zCReppIM7ZoqZWtTtNG7J2+mLFfnHybRtiW9y9O3fYk3s32Tf2FG2yyE45AqAmmDHQJ5xoXV4XomAUrCHX//y1w/bC0XNW75+waqooH0Db3LxEvV+zr96/VbsOLJ2VeKm2gw0QvIyFDkeurXQnZAyc834DZJkWzgDL//jSIXvzxAlbFlPCw66Aj8Uon//m20/brtFx68e3H44UDIg/H/25HQiEjEEqhIYhdHYSEeu3kLINbsruk0BClsNTg1gLWSTOPZtG7I+fecr+/CfPWaova3kmhlZtyYrpIStp0pIhsp2x1y4t2rPvnrXvPLIdBykmP+ps8adDvcKFtZYNYQyBNiwbfY8x0HoBKkRqrc26wiCzLXSDpG5lWvreuTk7dHbGLjHdJQBMPMvsDHNpt0pWRMR6/YOzds+eMSdNkXzclwYhVAZCh4DGf47g3e6Dr7uldkjZ1mBJoUaF0L54dsfbHPL7oePL9uyLr9qxc5ftEl5nc2yNdQ9+UqlZkru0zKFDVkhx/modvZCApoj4WVxclytNu/TeBTv8/vv22paE/dHXHraH923F2y1jKfTHvjxqihgEOmYRhrF9MmWbJ6asc3LGrtOvBkaqZRhPq9q0t6fP2b7dW72JOcCXRL0ihZGwIegZ52jFyqEuSQLyzslWg7RSzaXs1NyyvXj6gl0kYEiHDTwFVKMss9K2bZtt+/Y91ocq4bv31Cfpra7IfBZUo4rfsSK3fYAI6iHZCv8086nouzAR4m0B3za4J8ekOKsKcSaLOHa1PnDwu1+ZtPdPb7OXzp9kg+YAagQ2LRiETz4a5GSfXaxX7G/fOGWbxifssS2sksE0uuw5SfqKnV62trIhIy3GIPcceSd4Ed5SBEeBTvbzTgtJQNYxCFWTFvtObBoV4txS0+Zx0p2BW85goa1mB62RH7ZZEpO88MY7dn7WeYkThrMaV1XoJoOhzqp+fTr3dqs8leuT634VMUzOIssA/jpnXnq/ZH/+/Cv27Afn7SShuC7jYVbHqNFhH30cokyxjJSnMjbWWhEG1d9cttFCwjYN91kRSaeKcVISQClBm+P99tzpOfvff3bI/vGt87bMaxMMeEdBAV1ExH5RgtHQ7V3bphjsEU5jbW7BNGA4nULBTl2bswXolDPiI4GAIkOTmKAQrgdDrgR8Tn+9a3wiWchLbpmv55YqwBArR/+YdfrGLVEYI67goO3bc9C2jG9CtcDhVqocm3Pq2EiCBUzVGpVbhYAYQ0uMgQdkz1IujaSrEuAiYyXrVksSg+5jfLO5rBUJgZflXAYD8ADz0w/+s6+zWoGhfUFBXGLYtojeJAcouUuzA20enDw827C/f+lNW+C0vFcz4F1aE9RnKGDkRhQtAMoPAHwPX9/D38AYKIYgGwN3YOATo70ClZ6+NGvzeIi0EOG7cWL0o27EEANSLCXECAd2vTJnp85ftfsQgwPmrDdAPU70GpweU+CUdD4fMb+mVnCVAaox2y/x3iWSrP7wxWP2n14+bDOE2+pM7oIYEd21OiEDECsS2INthDDdYgo5DD9ZrMKFvDaxVO16uWRXSsgVqAHt/gFbhpKXmdjT4/fYy5cv2fwL7zHrD9j3D/QzWydsgO5aXvvx5blmuL4O2fbxfjtyfR59MoVGpd0hLWwPM3ZhZtH2DcJQNJHrOTE/VkCcg6rLPZxQF8U7HMYgmyJ9tNMZQ/q0o+custwFbBUMpURuRdo3kR0lDuMW99aTZqSlWm2D7mDwDNy7qSwqtwUB7VDVIIgRaDKKS5WTqM9w6DNGHMy2DNrc5PtXNXbgWAe1roaauGdTzn7/0afsH19/22aRBHwHqtbgEtrCjjiLBHEZ/Hnj/Iy9+PYx+95j+035LBS3YQURbqvFwc0bwhgCLz35BOj1QEIYrG/65I/ELM8ArN1IDcRomOPbx68gyl9EOihYklk7hZGuw+wny25LQE/kWLoZtFdRJ759YNwt+l6pqxPBO0QkKviCBO/UIIiQvOgHfD2XN3Kp2vOHzxOx94SdxMhQYRNLp6VZk9BcnSpH3aZG+u3R/Xvs0T07bPtQ3AbpipKTKhCP6PXYhVn72aF37c3pKywx4sSSJRoweRrrSBADW3fZ+9fO298iiRwc/q49MsG75TAge0k+6yG74Ak2MZxnyaplVWbvOsuUVYyOl1iSPXzirD26837sAbxIIJT1ir38lse3lqpu8Aa5KmmPIjOItjTDdXiDTV9dtOOnLoN8Q5zjWYyWg7l+u3vbsO3bMmKbBXZZzjGGKvGsILMySP49+nOrEAiwOYSg5AYVR3RsQlqNUMAVJkrwuC7bgexMWqKHaaTRFSsLHfvTp3bbmelT9vPrVy09zNJ1FUMkWaw6DTnkoxDjLn2xVrGfnblm2+7aYvdrWKkjRx11PNd0SKKUn0oSqcWT2IjJoMZ0OdSqOJOhJwIS9tBcodW6F4mlQtHAW59ZWHDSQZuCZoo10BFmtC6egtpEMn11wa6JcIrsS2Q9twi3HCQWf5ksySXE8Cpicbd/s/30yLT9N8/st90DVIjo7r3kecjCamw6YU4O3sU55S9Q1h85h+gGxQEoAcN3Zsz+7s2z9l6Ndw9MwBQQ83h3f23O9idn7Y8f2Wnf/ubXbNMQUgtcIEeV4s8emYtXwrPsLiIgP3PwG3bsmtkPn3/JXnn3uM0j6Szk+mzxCi8AGU5fW7J/+Osf2b1/9j0yHNMAZpcFwoCJYar/DxzYaa9On2WDDY3Nb7bm8hkMUQP2zulLtli7H/Gfly6BTGzDtQHMqAT40PKpD6psJUCzjR4mHw9Cq2KwvG5LuOGevchW3kXghf3D4pI/F63UnLOJrTvs3ilWdErn2B09yggpXRz+/JLMgFxUbhcCSMUaB/77XAR+ywFJRXaHLkxAF0SYmMr9vhhMOo60qmdaWLwHSO47jA3ov/vu4/bmX/6zlZuoH0iHTVTtDP4xLbJbNZFKrxEl6m+wv+XB/4Fv7LWt2B48ExYT6TwrdXFwW366XXTkHL9hQ7QFX1hcsKXUJIiUpcS7UvGD6eR2+/o53B/wTYEKYhAzDRiq16xrWp9voEp08W7UprFTl2o2fW2ecHgsHbrdgUAf7E55YOeE7dvUb3mJyRhbWnC9NkB8/SiBNkl3phDbLvYDc8Fd4nBYoEvegm8Ey4oCRJsB0crDJTymXjk6bR/MLmFnQLGh3hxi+zgz+cHxIfvv//2f2H/4k2/YjiHOwxWK+LwqDYJsdEmkCu2IS7CEmK13ycNo9sAms3//7a/Yv3r8XhtD/YgjPcT7YOn9I1brH7aTyPC/PjPtoKjB0bsxJAZaKierrcV+29Hfx0BC6nJkYHZpwCyvVep2FltKVdM/UoTvp2AGkKRCjx3Z6JR/CXssY6yCqs6U6nZ0+jKzExwQeVbLpFkkkkmkk6kBJAsfE2qCIehZGbGEtGE9qjUqtwgB8QAhGtCT5KAhkd1BR2B54IbQ6O33ih/oPk2MeEMiUeQ5WqS5mxrtsx9gtM4TxyKDB6SWr+X0nED87SItyAelCX28duaivXpu1pqSHpGolZsigzoeB3/0ihT40mYiVXKfQG0X9vfaRLv470UkswHF5QG6LkLg9TrUEj6dZ0mMBWnVdALk2vHzF+301RkACrGD0EmIePNAzp68e7s9tmeS+He9LjAbptCtXnz3lJ0tYdQRt2b7qurWK7TvQqRDnBB0Z87pvEci5oSWCeHGx87M2EtvvclaMBeJzafnq9cv2fbBgv3r73zTdu6fJNZxymapZx5fiyWOZRhEE0KSjcAVf5R/xsTIxYql32zvcML++MnH7fcee4LAoP3o9WJwOZuD8b1Im3/ESsMFPB3riX42wLDDDgzqwx6xk3XXR8Z34LdAv9lUo6WIFo73czhgvX78DLMG3VGXGHx5icp/Qz9F2/7FR7mDrBD0vwTsLpGn4P0Ll2TeRf3Stl6IHlhvHx6wu8fyzgQsJZWEMSK4iJiUFn/FVqOyfhAIZnHwCvViDskuTTq7PzywyZ6cJGoTDL7BmIAifMLECd7Sl+1aEVw8d3nG/um14/be9TL2JMWaJKkuEm8anMAE5mYoxXBQeD03hCJpxxBxtQlLQWVEJyoix3Uvmn98QxGfboRRK3otiWGI0QyVgAkQSt/OQ9fvX7tuV5hpy8zCQMH6mUH3TQzbgSmzJ/ANGM0rcBbUhFtpB13qxPWG/QrrfwPnJ7iI47Q4pLYxy/uhxSzfxhKUhPjT6F/6J7ZxvdKxt0+etes10rFLMqljbEAv3zaUsW89dI89uS+DO7QGQ4RGqC7aEmdGVfy9FkQkimzjpEJVFM3fRAYmn0AMX/aJ0bh95yv32o6+MUsvMkJE8THsDtW+fjuHBHCxzPM0Q9t0WQhwcEgbemTruG3O6X4cD6SzwDhqSA6vHT+GWsArNA3hNSVfC/VOEPI/4riuP0qJCMpMNWEfXJ7HcYr1clmtYQwZ4KNNOLtZRdk/KA9KeCGiqdbBExhUNU7YyDm7IajSa/nv5kcH4q2xV4L5Cg9cszEw748eu9+2Z8FYVqrq2MMaGL+L5ObosiOzubzIHWnH/X86fNpOYZSsIy1odpWPg57pYB+LpZEfUVvlTyH1QWqGJGNJzYE0v0GjTT+hnYA1aHLTRj8YV1BcVaDB6DwCyPvXlu2DGSzzOBK1FCoJYhzD8HJg2yj5/czuG4/ZrrGiFRTFBklD1vRSasyeP3rVSPrDZAdz0AuZ0cUUZGkXASq4qOtzMr5BXA2em75escOnz/MuIitIDWFgJI08tGPcHifG/xjt9BwBEIoEfsXQkXNzH74HLu4jKcByAoNDgug6ZDnOD7AZO1Uh2QrLmHCVr+7eb5vxbuuHqGOI9S1m+yoqxOXriy49uWEU9QbPDRpZs30jads3Rq/T83KTp27CjfPO8wtLdhIDZ8AJYAgpUpypmxw3vkgwRSWgLwLvTD1tr524aGXe2QAx2mzn7sL8Jgt5u29ixLamAm+5MupMB9Ez3uVN4twOQH1GZb0goHGMg4fKWSkvxg4qZwZ/lYemNtu3d43bKPTewThsMAlrXycH5lWE2zKBcwt2PTZItKfz9gtsDhVwVklrUqykpeEuHZh9Ew9XKezCtQRSZFyrGzLmc5/jj969Xh398HuEZCAe/4TMYg76dMd8if8gowyThNa3t1l+PMuae5OoNu7Vw8ajqf6i3bN5wIaoZow+HcSaPllEakAC6MBQGtkRO3x+zt69MI/mIWqS2Mwb8CwLFBS3Kjhw9FrhvZjIkavzdo7F4Jae8Rk3bv2oCfeO99lUH3ZP7kMKc4BKe5EdIIUByQ1MAincPSFHJy1Rca+HTOOvGBKbYvG+qNs398bs+/fG7I/2Ihruztj3dvTbI5sLlsP/QZuutNEpsBZQOdJPmojAD03tsz0kPk1rMz+u0BJGmnCJXx856vsoWsAsibPUStGo8v6ATageaqVJp+faduTCdd9vImlCkI/hcnvfxIAd3Ar3AXEkc7ggIj0LqUKynTQSr05VRmVdIKClTMXHVB6OVHvJN+BlMuxfwT7wnXt22MFJEJINfZxgORvbFrhfQIKoM/uzdGHv49vw0yNnkJ4ZVniHxlExGuQ91GLCEabJ6xK5wVUJqRNamZBRVEVT8PoXEZ2MXzKI6GuvBazWg8RqGHGF0L8vCJEvXcflOEmaMkgRphBjJ+LOkSHb1p80fMFA7Ko9sH3EXjx21i4R2WYBEb3KMudVZuVX3mdZb8eQDaOfx50xsCwjEQqi0DJnp4f4AtwMXPnd60tWhfAUjVG7OhUgZfdUvz28bcxGeX0MeZ2tTZ4CIAzA4SQDwCVdSC9Xn9ryMMTxKY7KI81f+mIG1SXTvWZf3Rmzeyc3WaMP5yVUgjLEmEeVGGNQchgl5Akn6UWZkXPi5FT18MQee+lI2c7VriM+apSxNVDnYVYsLjeeYPZAckFtEj/wQjO8aPlLDIt7FzBUvjk9hyclM4PUK2CJGIJ/vdmBsZztYoXF6nPO7ZowBa1DuKFEPhJqD6+98QK+R+ULhYCWmSvYv7oYs0dyMPYaWcATm1AZ6ranELev75uw1yrn7BrZsuUklWb800yKHeXigAaaLGG+fn7eXnjnjO1mFW0z84aSiGsPkfZvaP5tMrYKAhPjuaSiTbP6FDCGwBnwC+3gb64cpIMQxBWEtjp8lnRuxXlmwzIEcQKHphPXF5jhwEoYhjjeKDR7FzH5x/ACk8uP1gh3DmdYnsSK64yFexGbFKr8zXPX7AL0XRXhAmAnXPQWzfZp50jysYTjYrS5XK3YsfmSlXh3nU1LOWbgAYw8Bycn7S4MnRm1LclszvsV0l72D99opZm3x2XlbNLlmQoGRw2Q8ihIh0vS1zyKR56BTiC6j0HcY4zSFtq7mzDYWyD0ArNDBxWihYGhmWQplzyGbS138L5tI2b39KN+qL9iWNTVZq/IJcTLd2auY3NAjUC6CGmX8QcLeFZ8ga5rxeYqjOHQqasgF0thuibmALOdGMjY3kFJQ5zTrMGH4OOcQPopRee4OyrrCgEIGJtZF/U0Td6JDky+he0rBV63MSYeQML7zu6cjbCcyU4/bGLYnjBMJ+XOL3U8jadtLW6/PPKBvXmh7O79WptXvFJJBtpPUWdi1IY6EaCMkzr46oWzG1CcKMUcAoTTcgnmMFrFCSEz12dQsY+cvYIujWgvd2EAU2DWvR+AHNi6ycBn7kN0R4QaTbfs4e3DGGdFEtRLp6VCyDnp8OVFTIA8z8zsHoIQagwRIQvhJ+UgxTUJVueWl9kctWzLYhwAegCHqS2pPttZ7LNxDDyKpdAlCYhcs3VoGbUFc4IeoRyql00CFSgG4eXy/c6Fpbulu30wBnTBJg8QWEP+7Yg0PghJiDvTJM9Cm9mapsv/rSavA3TAZIzEI6klHLo6ODmZPba9aJtRl4Ll2sA4u5zN2bMYIcmjTN/ELrwp9IG+yqFJcEPK0bbts3htHbu04JGBZKSVtKCHdo4P2gObcxA/z2DFToAotAYoiu3CRPR9Y7DE3/27+seVaSaFNFLnAjEZYjAED/TKBNlkhIYY7O/vydnDk+AWKoZl8ITFvtDWzC8DOBJGN1m097Fd/fD1N+yMdGVwWgjbASe0CtGAduAxzvTl+CSpwU1KAH3jhtyxLZiH9BdhBqso3+jXEjh9HgPD6StzSNQEL5f/AnpRqrZge0ezNiWxV4UJVDNlAQDev3McO4N8C5iuMZrBbm0ZQLxw7DRJUtnOjEtxmzgGEsPdqgnX9CQtvJBN0FaGyzalpzPrK4dBHH1/kN+jiGh9vEjqR4/tOAFqMk8BTO2td8kHSWOZGyowihJQVU4AHUtw5RqMpsMSYBcX6Hae3XEDYzaX6LMy9oNg5lbwjYJVcXPV4mKKgdeKR6yLMxftlF1198RWNxIWWHMqAidx/jmu/erUOZujyxpJaUtyu02k6BPWZ5cXqW0G28Q72Gqa6bwbtCQcZFCdBlhx2UnE4U19AFAn5e2la1SnMZGp1r/wfeVT36PyhUPAtX/3JZE5m52V4K2IVp6KUgW0wW2ymLdvk81qJxFls0ycpbjc5EGCJitYQhpwfhEcfXV62l48ftJDBtTZAJgtDIN3SB6qT34QcvALZmQ+QQAKGLGxpcNMK01BZi454XRZJZA+fPTCjJ2bXSZSU5FGyq+h5gbGeyf6bEwTmbdf27ElQjdt92jB7pkYspMnSLoBMSCEsUkpYy9jZ5ie32WjMJMWqwAFOQRJv5YIBXPSALSwJZQhFDkQyR85BhOSIXCI2X+Erc1a8xXlyUdMAoL2MiBEBExBBAWAtU17niXHa4swB77LTqjz0ChEDrkjcYi1VOXzkGUzTKZqWbaMjlaYpWkTfMEG0Q1lHHLfAYmFIISWIXnQJoaSdt/2bfb2/PtWIgZEDSxZZHVheb5iH7D54W48ImVl1u0JCL7F0lSK6aBLwJdL+Ny/fQbfBXw8FFxU1og0uzknWf7cPzWGhMNDri+ADvSVbWTAXfYRfgq/1Ed1JirrBoGQMYgmFCtcRJ4SAYsxcMhI3M9kdC++J7+3q2R///acXWVPj7EUOdSdQfJkAx/MpKm9MWy4+smb79hutnI/umsTEwtMAVW2gwrdlmu0pEsvjLOP9W8BY3CLPrOqSFQk0YXTXZnv2JssGy5JzoFRtNijXoTU9xP45G6sKFkRHQYTEbFEee1jx3iLT8Nme/X4IXTuITL6KOhJ1y4TOu3lI6ftwNMP+k5IXsKzqoDCjIt8gLszBkKFSVNlMBolkWlBIAoCk5VzkdQcWihwQXN4OPLVjTViGBw804LRXIVg/+LZl3B+wgDK+2X11U6FFBti0uyxkHRTa/FGlpg6WdQTfDQGaoiFZCTadxdRex7AduKw4H10PQEypHlGnrOsINrD+zfbL44dt1OIJmXp/7JAF0bs9WOn7Dt7HvKlVDExJbPRP80KZRyYpnF4mEak7HQxJmAYJQsBadlrdjeWRwVlsaQ25fBCZ4B0SUYpfvI/KHKuoi3cFJ6JPr9wCIg1BLOL723gfXUmAp8+kYo1kTZb7OBFUvi9PVvs/JWm/dPZMtv2UQmgG/enYW9OXJGBUClPzM3Z3//qLRsZ/Y7tZG+PjGWKchZHKlEg2TY2J5/jfCYQpm9UEU3RPkwhPsvppyzh0IqdYNnwvYvXAASdYtZOtheIXdDC/bmII04SN1HdjAEOItUynJyC4szEj+3eZDtyFbsGsS0iMololbzjl+98YN9/9EHbDaBE46InTZBSsJIQr7YpyPDijIE2hH4Vsvby0+sR/cttLCm9XQ4WANT1eHEaBkx2h6vYDl4+cc4udfO2nCa4CgxD3kpJGEOmU8FM0seKwzjbm/UIdgTC1aWq+BGoQ4VRe+zggFgjLxIjCphDJk5GCZarlOR1H6sZ9wxjVCpVWKmBMbDCkBrYbG+zcezK4kPGJVQJ3qdnJT7gOTnLtH8EP+8F7BlAiz5jAIXLbCJl0cOoZZuJDtSAEaSl2mlG0mqRGAN365D9JyaPK0dSrkVlXSAgLOhqTPgi3V/DVwNxZAvKoSZ28ZTtsC7XRw6J8Vzdvn3vdjtWnrXrM5dgGEgDMiEhEWC5BBvatoQ6/cLJc7YTWvjPn9xvw+7Yxi1aiUBiqPNbaQGDjVTBaK9LR296CZxORejKgokDQGdmCBxyFJ3oOkFYm8yWcWaqAoFKJvHM27l5kKUb7hLGUlydglA7GGZAd9vKBvbHdoywggCCO2SZHXFwOk0IrDeOnwvonheScNkvO2dBJC8AkALSQ0AU8ByIqsNMW4Gj1pFGvHBdBrkqHEXPQ+l+dNAVBFRtW5hhlaCMPaGKE1IjgV0EF2dD72vFdBA3QlJEAUGdZAIK74ZcgkOKNpThgQjhE8aBN2ghEr1PNCilkpgTmuGVUl0Gpwd2brUcAWoUs1FRfNpITnNsPz128spK/2RoFcdvIgWcX6zaW+9Ps5YtTJG6RJ0whi1DA/bglgEiA+FKBQP25UlnSNxG0ewRsAFxTB0CaFTWCwKCdlsOR+C/JrHA44fFb4a9onHnfB/n80wcHRu0+6fG7Q/uiuPbwwoEbvct2cuQCiVNd8BducOXWIr/6aG37eh5pEfxDI8NIYMjqiMTRR3HHJ8weTev2YACbsrwIVzTJh53zQQIQr+Ls/N2/OwFrP5ZNwV0mOHyqBN3TY7b7slREF5GNe7kv+hGiN4FscUYMmxS+tqBHfgMQLSKOuQGQ6zyEOuv3n3fvSJRoCFGFxb4QwPcAgNzEChgEFr90B76DrpJGcZQccbAi8RNuUdZf5apvwQQ69xXQreocEWMYQF7SZkBq0onxHCo/RB+tGEIrDy0WQ7UYnIb6acL8XZhDnH0/FSawWcpCsECVUWMgYUL3tXsSScpjJIZDIcZ+nxw+yRXiAaMcZXIn0R1QgErDNgbR48HlCyKVt9hNNiy7ezckr1z8gJSEogCw0yhGmmn5BTbd+8fJwciXasjCUlGASAc6it/OQLkUGvCQ/dEZX0gINUalZNRcMbgah7u0fyoMJYd8CzDZhkizYPCWRtmgnpmsomzH9HEcXByN1m3HTCQ4G6XJLhV4peeX67Zs6++YfPzOE8jMSeoV8bHBvdqq4AETRVNLOteZDqo5gJ/goxWCtDvUzSsSlLOY+caLK3xHbFJam+a7aMKDj8yMGkNZrnjnMuDv1kwWRKDOGgaZI63CvggxC275T7LDV/jEW7AXtElBHyN6NHvsAkLR0gjOjczOs/w3ICcEqiPYAmE7Ie0kycAYgH6Yc8ASz2lBkEw2KZKbmYIBT8JlvmS2BLkxizDoDt10wYxNI3bk4Ob7fzEODuh06hBGHjwgoyxJBrHSJQk92CFDl3CD+HUFbY54+fQhdjr7J2ea86yIrGMhKR6RJFqF7IDapQ2Y8mbUrYQMcRt+DPcx0x//uwc8ShhTuzkvEz/Xro4b/BUG6dvbN0ELgNsRzebnsb7E2evBvYP9TPFUtZOpJQDE7uxbQywcYwVF7y1tAKBqxUqhd5DE9QMjg6MUP6QnoNTVX/JigL9rBSYKV3++MJ1L+GnG2JWPc9F/7WqThl711LkzK7afN4CbzQJypAd15IiGKfI0jUC79TZOt3BliTinti8zb734AiBkY/aW2TPXkghsRJWPS2Hp3gVwzcb/ti+/8J03R4+17b8Pla/qDiHA1UKiVSBhROoHMLDDWEMIiStsKlIU/IZDsZQLqUJcFJHL86xzMdqLefYOIa3V9nOnDlp//F5jHf4IAxXl22oxu4xlu6kHynDr3y+lUd6UcFZ8Q5zKDpUiXHATH4FyePXR8/b6NNbfXbvyclUDgiQSAr9xFvsm7ESUZe69TG3+s+wD3sGfrHEpqIB6WsN9rgzCPJ/kPTgBET7lEOUIMt2kOXk8a8/xbCBYBBUF2mizfKFjDtaFtJS5vFr1+x/++mMvQETxDJEw4usiMzC6RhsEbUMJ/K1IEKVBlySiKwlMaleWJdHcYT6yt1byVZ0EX+rOqG9YjbfZTck9ob33j9t4/unYAADRphJHFxY3Tm5jKmBTBhaiUGt0p68PQUcZDA6SqtQ+PIUKz4dfCwqoIPUBwlcXoTT9EOrMYG81Dv/u/DxGwg6JPLwksyDzggEj5AZhJ+fGUbUzH+9waVr6pMLfrhDWPt8qkx8isCBuMmNbCJgZeXzsQAAQABJREFUaf8Ae4eWtjRZHSvZQouo5ZiiEwroktEMmrKl7gi4Ebd/fPOSberfbfdtzdkAe2RaNdRb950GcZjUNoQxCP8LzIxZAVGsUJGamL3P4cDwFtPeErq4BoHNjkQRosEYEo+zJPfm7HtWJ3JxFmchnBChBcRyRHOJ37LcxjtLgIm1W9SQBEYXSNKBYaV5VIC0/dN7R+2rz2w1BC02lQAAgqL6uiPSwFC63/YVN9t7JKhw0VrLlzCka9WMXW2OscypgeEcylkM3c2nck3nzO5akVCyUkkwY3v5QpecwPhkODiC8DNlzsoohL3PMrhy11E38vmiDaID5pDdJdZDhwGy8SkpxG2CqkUMTAZPJKn92wghj2awVIVcUZOkMnUwNP7k6Af2yMFdlsMyXaZPb19kr8ncGZuF6bS0hwO1qB9RaWp8jNkFG4jAw6zTog9i1iuFdoQlQH31YtXJ8OKX7FN80EtI+eFvPkOmsOqUaHGFH4Q/dN+HpJDVD3yO3/WetlRqSgI8bDO2LXA6DfHv3bPXdi4k7YMrVTbkgp/sLMwx67SQXGVL6rCkeejccdt8uGw7tt5nQ40sOKmsFuA1aq2Qgb/rXxRTPy/C09IIPFHuw1UYxGE8HT9YWmaWhGC1NCDDHJKD9p6X2XY9S6da7EEgVBPXmEeVKlgcAk9BD6UkHQVumKjjM84pNqn7yOUzw0S9qdqbV2ftvUtm3yEmWrqNioH3XwqijkN0I5l+uyc/ZqdrF9iEBTAhtgRK/cnLV+zkzJCNTxRwkYaSJF9je/C2O9VC9jSpLXFP7YP41auQlHy/mjCI/zmkgDhBNRJIOwNIAzUknjRW5oxCP5GIJiadUbcylWtXo8CjR/WsWxZ9lcMwHBqRljbhrXmR0wwhgTy69PXli+fsGKHjdqXrGEGL9vL0CbuagAFpjVVMDAY0SHSgPTu22DB8QZxMvFktlhBN77ztfKwq6k14rDr9ZfkqAIdwVp8c4GHngIpgv6oEv8OTgou+65PidQFLPl1wCG8Lrn7Of2mb1ApmD0aWJoB/kv6YELdsnbJHGzl7t/SuzbGlIIUHr0xSUilqTEBtVMcSzOHl08ftwOGk/euH70YlrTCh4OujmQn0Fv6uf9HyV5rlO1x+OyDxMq7F55gMf3ViGgYBsUvs6VMUZjwZIfphAD2EdX5TPWn98y3L49eQQfyOt66D3BxtNv905hGJ57EbzNvw0lUOxPNlDiCSY80/jhRyCY75Y4JqKomKbAXxLg5UiNZLXB/AOPNE36TtRqTuF7+UcbHYZK/GrL3zwSzeg8z2WhNGXLOkVhvIG4jtQV5pileAwyq/XHDjl3RykZvYguQjHVo2ol6MrAWcpsb6crSLYBmoJ+4AxcCKKYgbcNqNfzIACu8cGcWExBgoynH4xP7tmFCYIbStnPsVZOZcM2uvTF9F+MLBCub17qn3yYrMM4InKlcOJ6vNrIrs3zHqE4O/iJlGLE1SjWp3FNef8OCLq0168ZewOIj1R8UBHX79eKag24IjuOdD0kSvDr8eVPWF/tUeCmcOMP4E+EGL0BjS9gDZrJ7ZTYoCbAudLsvd0EGTiVPxTuLQVAtUvsi+nZ+8cczeRbKYA78NSVsbq1Q2RGKAZ4GGNUR21ACMZArVfvhq197FdyHW1+f6udZgk+2S7SGW4c78iA2hPnQxxnVYhiljiq1hdGkR86DdO7rcr+WXHDL9WF2RmtP2s7lLNoflv3x92frHRgn0WrRX0cOrTz+Ae7lWQcpIJzKuwQygr6c277A3RmaJFlViSwNSQ6Zpsyyfvvjeebv3rlHiKfQ5G2B1socYkhwQzqDogKg054qmhGkBZXUFaJ/64WFIJg3aKPE8BndXpmIFycizNJqF0+sZkWggvvOXapw5qFIhI+pXF8kEOYj9IqO2aTCHWVY5PWEE2EaWs8P2y+Pn7d88OGUXLpy3y3OzxLnE8FEgJDmZr8aYKfYQno5HaQyHOBCMIS6JghK0Xuf9Z+9TP4Qs4cnetS/TR4+Ywy6tEHoAFh9Nv8Z9fiq8X2KBTuiDcysqxOrrYaWf9yfvjslIJBSEOWgnr2xlUika2NhG+f4v7ttrV2eu2gvkD1FUaUX8SrIiFsNBqsUKXosl72PEIPl/nn3N/sd/+w322HAdG5Yk0A1iDNq8RDp5nJTSrPVrAeH59y7iCk38A8T35UwJz8CK7Rlu2n/76A4MJHssD1HJxpKQRxMuxfh3BOIaIyOmIAjJOcODWrL9USnYsu8SAp512+skUqm3kJ2ZqZdwDjr8wVX7+mPjLDvKlKNNQ/gxcH/fpgSRksfsh2fPs7uSlQVEb0VL+jVbPXefvGzjuJ/uI4sUAXPgwnojzEVcGrqR74HOBPZ9LQNxwKHjHn5HN0D0QPt6JWbX0RwWcbkWh+Y0y7JstQa7tEDTQN8XgolFSLhfma0hYvlXKIafQq5Nwrge3b/NLh+9hv/DKPs0WP4kUO6p8zN2/lLFjh4+hws4lcuRBdfwDOrLFI4Q920fN7oAHGmuuA5Nk2zDnRRnWf7NT3BS8LnB6IJLX+a/IVMIaXulr5wQD1AJPwUXZ+KccB6xmjkEt36hf5WSMAkDUNGkIbxR+7WhL4Md7D4S4X71/rvsg8qCXVwAm1j+bmvPEZ6ssk8kiX5+udxEBZ2zHxPY5Y8e3WpFdtwp7oimgg0oWqOlwBgE5UUI/uXjFxCBiTmIpT2LlyBeAWwaqtnj42Z3D9Rt92CXuAFtu3u0yW+2IWPQv5up824Mbfewo0nH3cS925vrci/nee7bRFkuVuZtZIjc1MTal+GuSY5J7VGXxR6TDJyRJTzehsQlhmsP7t5iDxKxaYzVhCJeiS2ovpwbth++8b79xc8P2Tn2QshKLHOG2NHKLOvEJRcoqRHa/Yiq4ptAkCX0yTkZfdsEgW3lB62ND0JCgTWwtSwSeafKwNYRB5syZjLAnsXIGQOPClosR2nVIiYm2MT1FWnr6ft341ZNkFyt2RLIpcsKx2I1aYcwpJyYXgARUHFiOFstgjQgwAS+5PunRnzBRmn8fPRhbLTU+UDgg8p5+ubFP8U0dD082bv2JfwImcIK5Yd9XMUUXFTsnef0TWWljpuufP4nxAgSsjHxqdwUyoPp58CjHKpDdmnR7mU38v17p8BHRERwqM3KVhIcKubxgSFbWnZ8u11nFesvf33Ifn1OOUwClrAhjEH6bJ5NPgOIMvNM7YeOzdgsjW2i/9baZbSICqI94dO3bLF7Rzbj+Bn4PDhuuiENIKvlfvBHOybdoUiMht8iQPB472DCHt26XTFT3JFISR/K3Pv81Tk7ypp/v424ZUB2yrpGGSPggak04eHvsVFUlGp5BiKEEBdaBMQw+2dyMfzPz79gPzxzzs7xyjJSi7Y4N/G1yLKjM4OrahobSZJDXgHl1iJLnYRqL7bsQr5sry4s2t++8jbxHVlCJebDHD4WKcT8JCG+u0gz8KwgXBeh4uL0Hx7BXi+pKmIMUjJYnoVpJpEClDR370jeJrSjCyNibmTC2khDEgL/gkxXr5yaJSUHLthIZjLUDpHXcz8u1ZMkvxBP0OY1R3Itj1KzSF/g9CIe0OMDYgjBlS8JY9A4rxxIZUhrImb3HxEodDmAgv/1a+H9Agu2KfmV6EgqGA+fOnQ+PESofqyq53P/SptaRAzz7f7efiRKjSlFKkYH+oqhLkySB/O7D9xnu0eYTVEh+ohX0ABXO9qAA/ZXyYJUwXp+lvSH/+/PfmFE//MiHFn/IsjjwCOELMHdXnn/uFVIINtEvCngh5BoLdkO3KAPbtrCd+5j9pW/ngKUdsnv54+rCtWgH+qjBkO6PP8VREVYvgWJ4pl7H7CXLj+H2ARAsD8oa/Ul1JIXj10gDsGU6/jyHk1qHzXEh/8QbtXDdvbAXVY72iTdOOvCrCAQyoSMP2X75TSz8cXTtve9SXvywH326O5JD56hwDLyZcAE4LxpGfdoBV2dh9lcXLxqb33wgb1BJtmzNW3wImYDYe4X0P/a9ZJtGsGZCxsD5gy2eosMxeykRogZqNBBrV36siw3ASepTZtZx/7mg3fb4edwXlFqO5ZfE0qFV2NfPkyhAix9KzW2lTyZuu4h6zaBr5AwIARmGHdk8DfoLatkAvrgpff5pZEXROC9snpmX3U6vHzjU0THL83Eq8tHf6++tn7fb/TnpneKvFAVk0xak0iszxy8264tH7FlaEvxTiUnJrWEqShh0NccKu8xUjT84p0r9mf3DvrkcVOdX/wJqA8RfhlR/j02Er106bI1h/ZwjvV3DIyDBGd5hHyKD8EYFNTEl9qAQQtRuAJ3Fpmq31xxHZ1TdBQg9FhGFSLSqoDSvj+9f5Pln0uiS6FUa80fTrmAs9Pzbx+x7x6cItgqHpAyxGGkxLUR4yDr/CMZ+5MnH7L2YsX+5v2rVh9C9ELcWiZ6zHQJvwbsIkfPN+wniF/j/QXbNbGZbdFsgIJgmxh+gDNbo2s4mcyRyAVfC2aWGmrTUmOI2BCsQWjNmTBqA/L+pI21BRLBLIwieezBdVUkqsO11x5j4ITOyrChT9rPqOLO1SR69QH7X37+EsYJRKDuoi0T4KUk11b26msLuxsYiTKdY1PEgV3bJD9gL8WJy2c1lAeQh0lTZ30nutsd9NNbEfwN2uMn79w/q6h/NVO4nQ6JGXyEP9zO4+t6bwuJs8Qkk2A37QQT4beIpn4JSflnx65gvMdpjY50Pf4GtChVl0lzHjXi7371BozhWxvFGEBYGnsNWv3JGyftGl57vpFBWFsu44STtMfGEXv9t1O9Y6hmUOVDkDsOm045NNNpv3rgQiRznW6Uu6iu6OcU9ob7WNc9e/oi+n0fgoosAG27Tqq3o9Mztn8TQVBl0sBaW1dobQhO/uebiUT9H/7l09YYPmH/9+uHseKyyQkOGy8OkVg0Y1XEuAxJSJucu3CBGEpnF0ncglEVt+nBAfJDcK3aGYQxsCwLz4lJl8fvIo6q1Ieul2FHZQ3VIoET1VOEpv/mE48YmoEPiNimjrAPPnCiTp2ksiZt0f4KhcyfIrzTbnadzpFHIE4k6kYLycEt1HCcIgBkOdQ618mFOUE8C1L7IW7KPiIrtqRJLXWJZhRzIfDAEAx7RYTAV29HeO5O/PwYprDq9Mf3qgeD1TesSAtc+20tRAz0EIQDzFL90JrsW999cK+dnp0mCe4CExPjLAkbHEqjszZZtUiw+/jwZZb+KVDk+hfp/3Ww7SKGvBdfv8A26k1WQWRHSWI2xIBI1OIHtzID89P9nRWRiSAIKWIhyhtAuxSkWgTasroQkJJckSWA4/fIOR7GGq8Vne8/dpAdhidstkoIdsKhZditJB+AD46eseYjZHvW+h/PaWkxThu0oUruCuS3tR98fY9N9nftPz37gi2yk3GBZc6aQkWj19ch8gY2iC5cWXsJ6gxAAp+M684MkB40M9O8JABPwMEV/rtz6ZJnF+qyJPT4vt32+1//nt23awi31MD1mQ/6KC9OEahIUkdvmMTZUb268o2VKoZepBw333pgp5388YukvdS2dUK+s+xwjQS/slO0y3M2nK3bM3c/4tICiikSDXWA1L5ggoSUAEiBgsarVLRa0StiDUKfL0MJJYVbYggf6XAoLdwJTEFN19QJxfikKQxKNWpEVs/aE3vuIunQcWKcclL41Iv0pWkmye7LWexUKj2M8+/r9keSqxLHTk8T9Xjmio30b2JLMUY8dPgcxrG7Sce1dROzMksuReXxk6yrkEl0VgQopUFyg+z/HktRjADOmHBOIkcdDDHo410CrZRZAn1wS97uYcXiOMbEOk5SCeqKkc3p5Lnzduz0vQArT61iNIqgBBjRTbDF+MQ7zqv/y0d32lfumrB/+PVh+xscpLK4j2ZZ6qmwNbzDeuPw8KhlMBgukeuhBmCzOB1l8Z7ULk8ZJluoMbIap8HIfeMDNoHz1lOPPmAH999FijsYAod4k+g9C1HGZU/gfyC3cpEi5l5h9SHOykoct/AW6kiSXXVyYPwWGYqe/3nD3+9bt2EqNZKPyM08Sb7NhzEsPAGzjRPw1pe1YFSqXs6l8rIUG1hBeP91gzEEs4pu4Lgji+wpN/qz6qufv9Hvj+/cTfeEUgSfq+v++BrW/4pv3EMSqLB5LsHaNPMhW20W7Z7xcXslecFwecI7FomyW2IuxnMWfK+xzN+VBZyyIYyBFBoYAk9jaJuxf/fEOE0kFiHEGGe5TSL4PWzsSBQQmQmUukQLkzgr6Wi1CawKgtYYEC0VDotXMKsHRMQnCO9LepxUiNcy82cbq/04ptb/4tH9dpww7WV0/CDZCks6LEPWIF5fwoEq23hGqnTxCegw1cvxqAjDSlavWn5o0LZ992n746eeIp/DGXvt8Ds2A3W1CJ1VlnjP0s/k6KAtLzH7YmtIc2RhBkMQ8XaWhPbt3M4ehWEbxP9g9+SAz95tlimLMK8UM/jKJC353rGXjnpQBj75r1WkuqiZHxmtwqAneppSBnQfBucfPHm/Xb1cclXICqTO24MEQ+6ibOWaPbmZjVPA3MUnGKj2U8mNW0UrH9g5Ax7kHEJnbxCSfnlZuRaeuPM+P8oUbqUHIVMA5T5cbjrx4csb/QusAkWQbokivcREmOfoVpesvzlgo7WEXYCA6qijLc53tGuulmbRjpMFvHopG8IYJLZOkQ16eHjMvvkY6/q0S1HR4QluXxPMkReIyRAwADkBKcOU1iDFGITMKo6rGrDw0FdOdnzfKHYHMD6LgSUPY/yj7z1u3+E58RFepe0iMCS2cHN0asvcq5iOiP/MthnWhrMsP7E9A5GeJ5AAcq6LN6yfYDA7H9tl/+LBXZ4i7spyCWsv+zvAujR+CW1E9TgSThF7wxjboTfhdDQME0a9h/EF/UhC/EpWGtOeDHzUa2w7l6NKCibixZFudacCwpUtUWCQnTwmINDXKtJIFs7/p9+4V4KO80j1S7BRHztLu20bS6ZayVCkKVrBV9azXfoIQMdjqwSC8L3hJxdV9PNOLALER8qtzPIf7a7/1risG0Og4b7K9hs68JH+/KafUqHjEEOCTVUd1OYaOVLTjH+FJfu2CE4YIskUp7k4+yM60BozL9r3hkoMsg4Qlgodx7stzHQ9n08fAX0Q3j1ovp+SSu0rnJzTZCe7JLR84zm+ujougDCLowj4dmWv0INEBrdKJtA7e6DxutIEsNBZKRQq+qt7tEqJTyQ/qI+2Yp5xtwYReBpgDtPm7YM8i6Sjc+FzYR0+E/MilwZgBvrdx+5GmUZ1bwymlcqLt/eecGD4j96foD1+la/slvZ2BcuHvJD+58g3KcaplRqVsAr1D2doDyLlSx0rYhU2GLir7gvvFRxXvUlPcfTKjQvhmTvuc7WkoMaHUsBHO7Ka5lfuWX1y1QO3wlxW3b7Gr4yQGwhv//EWE5r7qjCySvQsRzeNd5vIY0sgS4VZjzkM5oFajVqKEYwD8z77kFREextQhNoKr/JJRVT/m4vQ1lFXFazC4Rt3BxdWLvVepBp/c6264cNGtuCMahTVhGQXADIhL0SwzZEDaKME0QysE0gZoZOJngyLr4SrGpDMbRjhBYdAr3E6t+rryi29L7q00p/wYu/+39yn8CY+Hbk//LQe/fjXffyVVbV+ab+uMIXfih6G7Pv2GuMZpTQTYVAPxhosoSpp30po3NZsxSE81jQhd3tNl5J2VTaIMfi778g/QhoxAO1qE2MIkSicQcQYwnO6L7xfnQ3P35Edv4MbfUtsjpv8vo+REO7g7q+p6RFjuE2whYS+mimEVehceOg+fRdz0BGVDYJAMF1+6stvYgq/4wwiYgyfijIfviGc9UNil+Sgspoh6HcoLeh7VDYSAlIRb0EcX80I+O6MgmbfwpMb2bkv7N0RY1gDaMUcQgahx8UUwk8Fy1D5Tdc/et5vjP588RBYTfSf9raQKYTP9Mb20x77sl2PGMMaR/SjzEHViEGE++PD3/pcbY8IGYfOR+W3DAIhMwg/f8uat57NiRjDGqEdMgYPpwVDCH+vlhRUdShNfPT8Gl8bPbYWCESE/jFQ+4iitApOEWP4GJDdyulPm/1DZnErdUX3/PZAIGTmvz0t+vxb4hrSar7QYwrhBBaZyz9/mEc1RhC44yEQMYY7fgijDkQQ+PwhEDGGzx+mUY0RBO54CESM4Y4fwqgDEQQ+fwhEjOHzh2lUYwSBOx4Cd9yqhAypgVfaapPqbxqH0HftN10Ln/2ke248F96tM7f2xI1no28bC4EP48rqXx83kqtHO2j7x935ST27uRbd/Uk1aTOTyo0nwzN+ep3/bAhjkBOxdnkJBBJZBJDgU2d0RUXf5cyqeI46gjM6Sz4nEroo2gBPsswiAAZAVE3hwf26mQeVwl47IH2ftu84U1QGim9p1Xm8FX3vsVqhQn1UE7ZTLQrfr32WSpfr96x6Fye8+Bbr8Id/9hrR60+wV1xtjMp6QEBRNpJEpugStERRLTtsclfaQEUAC/YQglsgSpeIX3EFv+G0tiJ3SAugrE7pdNbxqMt3hZrXD8dKhjBcjtbypi4JR3x8ffMcuKQ4B/zTrmZF+oqTxEhb7Tsgl2IihDETFHUkiGFKG2hvEIVEkUmVC/7Du2LXA2Z6x4YwhtWkokaE5Oikr+ARIiKnsCBdm86ExKnvMYVRVwAVdz/W0xqq4B7dp63N2gjtAwf0lSDW69RdpIVTcIrgN8+Ke/h+B9XDISahiEo8EtapwCfh+4NhUtjZ4L1culH0wE1FJ3V4y/nUc1FZLwgoF0dSoctAdTGFmAKj+hgEWcgU70Ybk7tKfkTpOn4oYiLn+dMkBKBmCc/5SC3OXhhCxcnUdeVwUNCtNnjUIshPi+c7ipmnGkRdio5EIJE4QVJiylOgS5zqwjw8rKduEQ7STjEk5SMRcwgmRLXpd4gxKKGujpuKR14BGDAFXdYhctI3Hyi+aRBjhExpdwiPzg0hwSrPjIAePCcZQ0Oj5/jOTCAWI7lDIdu6cWYBrqt2pZRTvoaY8khSmcLMehw1mInGlaDRZKmG63Ongs32Qst43UEr1bJPKroetv7T7v2keqJra4FAu5sjwQrj3QO9PpWtNE5UI+GA8nMo1ZvmA+GTpMuuUgsST1Mb4ZpMGkFcTOEOYddFzXCCDlG3VNwhiFkkpjq4X/ULQ4V5mlw8LajeyWNdUrDrUzikqEkeQSl4Kd+Fy5JkwD++C2UCrPfXrPufDZEYAooWYByygq4DwnvP9yDVSgCLAEZBgFcRskDebmc8+owzU3EAiiKXSWQT9872Ija1NYgMrJ4hNgWxFfnDFLHCTJxdwCjIguV1I60o74zvdwgwiNOaMZo8T5IO3edBW6RQaNjUuqD4N6pfdap3RSfVSO7Q1+CPvkRlHSDQcXGc8WJsPb0fyZBN6dokvjOmbfJ+iKgzJOdRWiOFvOvo4JfC54Ftnkg4pmCi4I8EWdGyhlMqhL7HdT6Yifx6oFdQg9QH/nWEQ3of0cXjir1InR1FX3W815Sl90CKRCHvcij6mFdMVmo9txFlYxiDoKvBcUIBois6PvDwc8GlkKQcMK5iSH6ASQhghEbXQK0QG1W2YALKkxBvBhGVNOACtgbRi3ACMS3tKaP0Xg2CBobULXDwJmIfEfH4jarCezRczBtUDGKRkIMUPnAdBioVMJKg0qCVvWYHp/jrr1w5qS+aR6Ky3hDwrCOKGI5tSf9chgTfuuCGzpEznjii/Cb8mZJzuSrBhCJ1VCkG0hIjnQFwDxF0xTA01Sizn6sCwjeQVhpDArwOrooJ6Tl+EaO/ScVCcU04MTKONZFOG+CocMQlDY+yJFkYbPT6xEgUVQnGs0FIszGMQSAJ9XzvuINEtOPAEvJAggH3FfT80EW/GbGAsO0K6SpoI755MEjpcfyOKZ9gGBxSz60uXqnEtQoDwAXXP6iDMaQ2okqTjCWtoVegNol8+q5YzICJe/xQymqYS1BUiZiV2rWq8brY+7m6CbpLTYjK+kEAEgbmMgIGgrlQSGQfTDEQMpNLGybREKUTfUtzTYo0iFmiiWeJ4F2pLCGFkiMSkbQNfnWYTLrER4zBSDThS2LocK3j98ieQWBfGEQCppOG6cRJjVghp0MDcbYpcZbJpQ1+unrCs8IPsQThRozKZBMBizkftFnXN6JsCGNQspOOgMO/cB7VAOq7rx4IGuGhEeSsE3EPSl2y5pDU2YlPl5VUZ1GJYks1W6417NrcMinhCFKPEahJ3HXN/Z4+ngEtpuvkcxggsCqJZTAyej4H8RfeXSREvYuGjjx6b0D2Sp9JXtgAC+KrRbteg7yxulvDe6PpYRfCu3zwV+7yW6M/XzAEOpq5yasQsAUwjMkgwQqF/jkZMuDkOCI7FxgAfsQJ1tsAP0tgjdLGJ8hMruyG80tVm12qgGckJSD+vgKRu9ERZpJklslijOoj+89IX85GB/ttsCiJA1wQsyGzuZLItlBbOqSZT/KuFOkSY5KCOQLlWfjPb0k2HJ5CkDZu1FSyIYxB8zD5khgYDY34d2Azdp3dWbogqgPAiJpEWfrUQVlCA7jApH32QsVOnDpjZy5csqvzS1ZmwFjIJFEN4ptsCVoaYolIHLpFfRL90p1lK/z4mk0MpmzH1Cbbu3XC7iL35LahERtBYyAvjaVX0X6LJiilW41ZoIMKk6ERCmMbMLSwcTyk9vaKzyS972p6eETSQgih9fvsIpm2YA4aHTc0ivZ8QDgjEZ6jzQTRlWrKLFHnY45o+5dnl+w6KQTfeeeELZebtlRpMOk0ye3BDYTrT0DsCaSGpoidtIQ6+EVmsJgNkmF6gBSHY6NF27l93HZNTdnECAmIeJb8LtZtYK9iwpL64cFXxQhop5iYH1IhRBnCf7V1A8qGMAb1tUKiiFwmmPZr1ZIVZP6XhVBWRDgqEGIAcs6Zlb1aBEqOWTt5vm5/99Yxe50EnXWWknQ0iYffVi44USTJFcqVGo/DfoB8TPYE6pNFWUec9PEp1IGzVPjq3ILF3pq3vtQpcliO2MNbt9iTu7fZw5MkjOWd0lJSGrRu2Wo81yZBR9eXPtFLQSaJkI1andRwBJ7n3WXySxSKJOygGfz/0Jhu0PhuAEr9dr1S+UiEP3lydaYZI+XotEaV6YN/GBQ7MIZkut9aSISkH7VfkQX91aMnbHpmnsxf2LNQMZS9yxcSuVdeEbg4MFNIle3NIMIVcErYnCJlYapSBW9QTC/MWffweRsrvGt3b5u0p+/eYwd39JN5DWWB9PPxFrkewK8mKeuF+zHoQXmoG9RXLtdgMJqGNqZsCGPQzFlgoGavkcAW7tpHXoduvYzxHwsx2aREkYL9AkTXJEfEPPA/dHTeXnnriJ1hwI6Rd29WCSfFQMTmNdiyHMkfASZhpI/zxLbOJwISFc+Q2NYmnXStmYPY0RVj5LbMJIyMlnb9UsnePvWG/fi5n9tXd47bn37rCTuwZdATwiB0oIIUrYTvhKzTWiOptrRSgeLDrFEnW04Kn4p8nmQd3hYhIF95ZfB2vkRlQyCQwUEplYRxo+OTWIyMYUraiPrAwPT3F61D9td3p8/ZK0dP21vTV+1KjYklRfpB8p40YPzxeNNTFXreBRKNJJBCY9gaWj5BUBUD7YldGPe42xmYQCD0GnlL66iyXZY9laVs/vglOwLD2TmYtcf2brPH9m23PZMkWyLZUQsJQswhRubZfF8ftNCwkSG1reeItwGQ2xjGAO225lo2NaBkLuhqy6wrwwxieZK3MGCLEPcyonk1l7JXT16zv3n+FXv73DVrZArWIvFmSZKGWw81xlQgHQGe4FKG64/i4EgLOuD4ulVGJUkAYiTp9CgDy8SBEbPN2rJUhEVY0SI56ZfIX3nx0pz9f//H39hX9u6wf/n0I/bITlLL8eQohqcS6euaMLUUSNLW1AGzEVMQggTLl2qI2IF+61/4iy9RWXcIJBivPETcQMdfJAtTuq/fkv2jpG4ze+fCvP3zi7+2Dy7M2Gyla0sN2Rdg7kifCSakQp4ZnAziWq6Wv0sXpOmy3Cl7hSYFX/XSCIMDkim0KibVWIxCRvB8isxi+FF0mlVbZvIos0IxV1+2M4tH7KfvHbGvPnTAvvbI/bZphNSL1F1fXLDKpas2MTZmVfKMNiXp+oy27mBz6Wf938ob86IYJ2ZJ/0zJ/F+CszawCLc5jl+v2P/5o3+wN6YvWmtg1OpjEwwsHFTULQaidWWl0oG7ButMVCgJQgSqQYMbKBNPEMWZwYIz6OBBq9VKvDOBEQinJiSNjg5UkFiuz0oMaplqyq2i/eWxs/b/t/deT3ZdWZ7euj69g0sYwhEEQO+LZqpYnmr1dFW0VYxCfhR6kvTcD3rRv6A3hRQhzWhGoZCmWt1dNeWLZbpYLIKeAAnCEd4lkEif1xt93z6ZJItNoMnENDBU4QAn773nnnvOPnuvvexvrf0a9/+PvvhUfOup+2Ir+IgqGIoSXiWvJHOp4L0u0qbMVuSgnM4dxqZ5kZypHmbzN3e2W9sDSr4ik9Kl13pj61nlGX8BdPHykZPxk1feigs4FBoA3jRbC6z8WmaF9Bz2vyZidWkh8jCHLrSSBJBNN/QJI/jgM4ccZ0ddunOpQ+lQl1MO7aSA1C/3laPCmpCsIBnLLNS82K7FuaVanPzNoXjp/Qvxx195NvZuHItxlljfMDQaizNXY2xkEAFpgPX2UM1t0Rh81oLLPLPuY2Cfd5lw8OVocAx/YvzijTPx49fejEvVVkznR2N5QfMAJuDqvE1e63iH5OxcKM9AOsnzcOjEEBikGlKCkYMHMICMU3pv/8oYBLgMsQwXjqR8leXaCDn0dfpQLXMwjE7U0Bq6QywnP0S4ilW3z84uxv/0yzfixeNz8WfPPRtP35eLcS5Vw3gtQQAVnJzKC4lFb3O6VyIT3tI+Sca/sJ302aN3tlvXAy4AlNcfRBSghqp+fqEZ/8/f/R0M/zJaKQxhZDfEyGuthiOxHQ3oY0AtsOMSb+INWOivxPcuDOp/UbKYCToaUu4Ej5JDY8xhb/YSLUDXKfQJTbSX0Fagceir0SpHPXELaLiPa7KgamP+Wly7sBxH//X340+/+Hj80RfuiwrCbtOGjbEwezV6mEG3a7tNjIGJTggpJrDzeXJXy6vRnyfgDt/5xaH4yasHsftLsYgK2M1jbhAP5geZyYCExgDMNAUAIwWcNkale3DiNnZ/G1tteJi1JHVmGi/ipc1ACyppMdA9l7Ul5OT1ci75DUMwVGVsusT18n0wFuzKNitRG+UoYSMW+gvxBgzi6i8OxMXpifjDhyZj88Sw+DT4FO4i7uWCoUlzSU+kKsSWCMEmZAEpGYQs4s5263qgi79pluG4eG053j0zFS+8fSyOz2AO5keiNMJK6y2+1OHQz5LhyPQcNn+juRx9lRyO5CEWWsbXgNOx1wJU125EESe0oKcK81tNMcGkYT4NTNIWDu0O+RA5zJAczKQ8yMjXuzAkQNg4GQONNPBfJMaB8zEG1uOAxB/GAs4/+s1bMXX2bPzp156J5fGBGBocA6KPEFQ7uQ3bbWIMPHAJ+55pMo8NsRhDcehaN/7VD16Mn799MqqF4ej2Y9UbQsKer+A1MjqApya6jRpr7yHhcVrKuXtw9gKd18/YDjLPB+Da65D4g4DUK+xllrfvcV4LkEkDB+csg3e2XmHV7/5o48OoIk1a+in0DOsAarEYbov8TeyJHJMehQSBApMqtuPd2vno/OLVKF3dEX/w/Ndjy+gAvk7DYYRb0UZa2LB9hKnSpoLwAZNY1RhkCknpTKfc+fOP3wPzOJjP0+WvnrwQL75yMC7P1JDEIzGByj67sAyYqT9NZFeD7uhLYNy6/f3gGNQMiJwtTGEAQFcImUFk0ogMA3rsBylrIpWwaJXYKnSwhCBZJEq23FhKSu0y5NvSHwYNJ8EGAxGcZ5Zl38BAVGemk8lQwpRdQnN9+fjFmO8eiD/4xpfins39sRGW0Q/N345tzYxhlY8l+bdC6x+QvBMtcTqiAMZneUBtJedK2TgwHNjPVaR0FaZw4MJc/IsXDsQrdExjbAIbfgzuy/L1RCvaIEnqi3NJxRvKEStmcldyVfoacBKSemy0P7ZMTMSuLZtj91YleZlBgzmzDyLSHRd5ShPVv4YWgJ8T86AZhy9cjoPnzsYZzJk5mEmTHIgurz2dRJoXRBvKJdJewbe3e0RHcCwVuNiZaje+8/qJmCqMxJ8+/+W4h/XtG4RHBVIPDSANUjyF5+9ART6xjInXzFbMGETiGbdjtD+n99Sh5z+jQXapCEEZrLBmaauDZibIKI96X1hxStfR9Kr5/jiGdvmjo1Px5utHo7oI+H1kA8w8H1dn56ILFqHT4IR6Fe0xH33Qar67zHVq5E50Y5Tx3r5hNLaMjcUu8C47t26KjWPSHXeHGXSMgLEVoEXcEuAcIi5ML8Xpc5fi/OWrcW5+Ni6yevRiIwcID2d1Aee5bUYjqZKEVcGcmLk2hSOzFZs3rcfRORIvn7oc5370ErT11Xh6Uyk2QoeV9gI0n4XbDZt2kFYyJDVlQVKaq9JYUo+zHqGBHnV2evwjFMd17LsUPfM17byk7cNz18wYsoHK7GfvpdZsN6ULyhSUwL0mIT7U9v5B4r+APXHoTObQBDqmoeKMQf0+dL4R/8t3fx2/mee89RtgsYSSFuai3BnEHYCDsF2JIupZG0xCu12NQZJQdpTqcf+6/ti/b1/cc8+e2LRuNOXRm6vSwUaTcJJtr3cQ9Jr/wJ2g2hVjE76KZ8YZpD274mp7dxy+uhi/PnEuXsHmPAPErQqWvYmzqM41amgnWBqYgyxXT0ipOduIub7JOIGKee7QVNSHT8Q/f2ZPbOOpSzipakiETreWEJWFJuqLHYL20qKDTKYFV5fMD7v/zvbpeiAbS9muZqX+HAHr0Bab0l1AG26DWIcUyDVmox8tUF/TXK8SJ5i8f31wKn52+AR0AOiIcZ3DWd3D5CROzpLwaHeapkzS3tJi9KNZbiZCtXmgHffuGI8H9+2IPTt3w3QwO22BkxAtwkiXn/mTbQDqeuwjmLVbJivxxOQuvt0dizCGE8ffi1dOTseRa424iI9jCrxDT7NzeAzzAwG3wVD9UlyYm8aVgW6ybjJOL+Xjf/7eS7H4lWfiD+8vxFitExtHi7G0BDYCZtfC11avt5NWLKjKMgSyiQ5RsyJzrogQ02Fq3YeMWaw2dIURKCnpyWz/KHPgvPSblXmcPd1a/nrR7KYfvXy6EpIXmGD0MdEwADirEEN9I9GdB9gBvniOyfTulYh/+f1fxLlZvLeFfrg31zLPYRjPP0lLHdS7Htx7hLEbQIWroM7t2rQ1vv3Y3fHYpsGogEMv0skdGEaHjpKISs5k9+ttdGIdLq7nuA8fw/1bxmPHjsl4Zq4XB46fizdOnI3jU7OxhIaRw0vtteqNRgwODtG0UtTqPSQAUmP95vjOy69EpT4X/+nTD8cWbjk+ALKtOMKT0ht2iJzKhC4x8368XpvuHL9hD3x8NDO4sB2MtEadH4VAqkzsUXMbkiTuZ4zy8bPfnomXDh1lbqA6cnqbELMYhFaHUCC0lUxVVH+ILMaAym+Bzp7dtSu++cje2DPJeDeXOBc4daYY3LCNn/TlyHAp7vnCQ/GFJ4fjwOnp+Nmh03EQ7M48wqtGGLSAhtJEY+nSlgLgOUOkDVUPJna11oy/+sELMdF9Ov70kfFYri+Ai4CCYD5NbJdhhJx4B3tBNgWhruwff/fRlmVnZ8TJe3/iobSt9nL2umaNwZ+j2GUbH1av72ual0mLYTKjosvP5Fxy+yoTmVSHOART+D9+/mq8+P5pohIjUQHu1RKngDQWaWZCUwBfLpWAmTJ49+JE+idfezb27F8X6/m+RMeqTrXg/qve4TzeYRlFWycj333S1kDq1PBQl5AUptW2kfLaeHuGC7H10e3x5I7tceCdY/HmqbNxemYBpyh5FkiWBVCNxJ18OlTOclydnjLCFX/12zdiAmzFf/zk3liP7dnslsBacBY+lBxmRB5/RgEeaUS2hUTqw3y6s322Hsjks0TGu6QKZ2zWTMQezkC1TMN7S+TIDIyMxYWlVrz0zuH47cuHUBiJWI2OJqa8DIDOTMicTmY02gpjahGXMSbZ4/fuiK88cX/ct7kUfWCgGrU6pgR+KASTGueaNqR2FVpUi3z0no1x1+6NmMvz8es3DsWR85eV9Qn7IE2pB9UwSZ08Oi9L3HL52lz82x/+JPZPPB+7wesP4pCcBaY9tmEkqstV5pa/tHX0R3rPnOF3H/TXmhqd/WjNjMGhcbPLVOlWu87XNHgiGE1gocXMCbZS8vL3DVXiDA7Z77x6Nn701qnoDqxjwhDqY6J28A4XsOG7oBG7RC2KxXrsHSnG09t3xjfv3RtjSHc0tqjoJII5CCQRGJVnoN34Ctq5sVzuMtFbpfGEXLTzy3DgPHHlIprAGDN9eLwYk1/YGzs3jcYLIC2PXJmNKQgtMQWJit9ncWxNIzzOQxviX//y1dgDSGVs39ZkPmi29CotBo43tK9DaDRl5K2oaamxd/58qh7I6CqjtqS+Q2mZhDTWQwITGqAip8VEzuOTmiM0eOjSfPzbX70KUwBVizMYLxG5LjJtqiuhMVTQLPowMUfQandNDsZzT94bTz6+wwhiNDFpZd19TOq5mfkoDkjHn6qpf++kmhgbaLSMKSpgaaI8EN96bDQeuOuL8YsDh+LAu8fj8kIrOviyfIqWYXZouQ/HZh7/xQgm8szsdPzvf/Oz+O/+8z+NScg8jxndqc6n5L+k9vNcPZ7JTUaZMQob7J71nt991m3NjCHd0/syZquaVtYUnUQep4lw+AKOnhIOxwKDUaf9M3z1vYMX4jtvkJzSt4kBIMxIqKfMqBRqOJHg1k38Cd1yM7bgC/in+7fHf/DkfbEeJ2CVuLAw036iFX10spqBcWrvswoy8f31tAWb1cZUaTAQxq5LdKS5E9pledT+UhOTBKdhCe797J5NMTY8EH/78lvRvjQXS6ijS9xbT2aBgQbwgFhpE1bFaTm4Lv7Fj/8uto19Ox7cOpic0AuGtjA94DsMGDemU0wLv7N91h7I2IG/SkSvlmA/pn41+Q5bm06+vIy3f3xbnJ1uxo/fPB1XiS4V+4heqVGSG5FD+uNRRFbxQ2hmsr8cj23cHH/wNGYDEYBcUyRNC9piOuGbsAbH0NAwTkPV9RsLG9v2SZt0kqIcaCeDMIiCeUDzhbgb83rTFx+MzUOD8Zt3T8aJq9AXjKAfptABL9Ghvc16HaY2jHY9Eu9jfn/v5cPxz752H+Y4SMqlqRgFwVnTAQq1qonLHGWUMoMEsrpJxrAq+D/puW58TGJnlxl8vNv8jIxN6dCIfo27hDUSOfzmlaX465cOxMwSoUFCkkvARCuDo7GE469LymuQhVbEYbmTyfv83j3xxYf2xigqeaFDNCJPwhKmhcQgdzWN1bRWmYIgp8QcYAw33NA0mkuAkzhNy78NMk3sQ4HSTcWK0kgsPV5p7rV363D8OaGj5/bdHRvJnhsFWJWjbdXmXAzgYS51iH3nCDvBpN4FiPG//fqNuGB0iccoNMFo2AkFfBXwoSIdVbijMdxwaD7xS/pNn8KqXyExBz8nyqP7YeiN6hzYleEg2BQvHjoVb56bj/zYZuzyBhomNjlSNavmRSQAhr2OMPYjOzfHt559NPZPjsQo5kQ/OJgCEa8itKAWWWDAmry/kZD5xPZ+5KBCS+G1irXJEzIv4lMYACI9hln51Yd3x/OPPxB71o8AhDK5TySuSVU6D4mUoUnPgJAsrN8ev3jr/Xjt2HRCZ44MUa4OvIWxrowROAudi9lMlFFk/ZUOr+nP2hmDt1uZg6tT0eb53t3QkqEZcedph5npPf4/f/TzOHzlWkJ/NTEd8pWRVDdBp1Ad1NlyZSkm0RT+s30PxJ89fD/2O9wQVV/1qpRnoPAttBnEDOpMZ8BtSqj3qwvMZiGk1RbRkI9t0EQM0+kFijj0IBzzHPoGwETAlKq4SdtUZ8IFge0KJgHtYC+Bkn/62H3xpZ3bYwe+iGIPxkG4tACufjK/iQmPlxi19PLghvgJ2PufvnUYlBtO79xolJtoFTAGr6nmoL6QDeHHGnXn4w17QCagPLTvEmNIfzNq85sCHFjw2uFTF+PvDp6IazECDoHaW0jXVJmJqJgmXR5BgqVI7svW+Poj98a+TYUYFAcDRL5EBKoC8jEHkKlZXUy4lwImbbrpDVt3/S+LhEBLMJgOQqWD2VLAqVhh4lcQav1op+uZHk/tmYxvkDOxB0h0CWbRRXPImdbdP4RCyrORrXsJhO50tz9++Js34uIs4VTosozjclVDUN4o0mQqmi6Jkd5Mw3mkm2MMXGB1CmaDlg2cXZV4F+ETC7I4Iww4vPreDFls76OlMfPwyAk+GkIz6JiqOsSxVjWGl2fiK5gPjz6wKcbR/kaIVlhw5RKdhI4RQ+ILGGQ5uX4GHY8ShZxZZqHWcKPRNGIwynwdAL1WMm7N6U1+t8z1W6ZRlnA40W5htDkkBjwg9kxEfOvph+LxraMxbPjVRHrtVa6ldphUAjSfxYHR+PHrB+MksewcnCBHEg3ulGhyH5QcNB221Q7z/Z3tH+yB1F0IGIYo9V2WNYtE1ykMU+9i4uVw/l6aXYpfgZidrjIghAVrCCTzI5pEIpo4riX1ES7y4OSGeP7+Pdj5aHRI9JYYFa7VJIRukeFycSjlS2j/mTiVQDD/YCuvcwITNcGneYge0qYDLVcxVevQSqoDsbQk+DeevndLPPfQPbEef0ZeDRgzN1caAnGJaT04DH2T30P7zpHX8cJLr3INnkYMhpOfPkg0770grvRegZzmwXXa9SkO3zRj+CilezEb5zEyDviLzcRBEacAzuKHZLK1RTRWYAK5GtiCOpDRBv4C4rJoARPkTHxj26b4yt4tgSOZAeZhl01wIvyErQVvh8Ogdggs4cHz4td5lSG0CQHJLNKxGzx4ivkS+im04byob+LhUxEXoie4C6m7gA+CkJGEqE1YhLMP80j71ufi+Yfvjv0AXtCFuEMrTXir/OCZhNOMEnGpxPFr4CLePip8ws5IhknLNhq+vbOtqQdyMGmFgKRlRWeZuVgFY/f6jBaJaJ2+DGbg4rWoWawX006GXSN02bJkO7vjuXNsNL7+4H5C3X2YDrIKYl/W+tRnVAZta+VxfBMFriFjl2koide6md1b0DmKMOsSlmoAumqWRmBkw7S/iFBEo6gtxARM6NkHdsVj++9OeBvXvWhzbpcI1rLqp4KUBKslaPN1kr8uzWHOgqXQl2Df0B08r742uSebx9lvZlv7r23Nyq9VkR0m9QRf8dvzFtQjo1N3ctDvvyVMc+jcVJRBnsnRRQRWmzPkSaC21eZjAuz4E4Sa/gi1agcivY/iKA38CVfAm9fooD4AQwW4reW1mf5rfmYLgLZV79m7aA09VC+5d04HKdcvspcBxxQJO1plxxz7JraniLr9922L5x95MPaiVXR68zHfNwfR8azArOFMaW+UJ+K7r1A3AlVhEWlQp734mRMAC/Vmze3+vf4hRF5A8tt7ifhh5g3Qik58MyOnGuV48Z1TRJsGU/QneXvhHm1Mxo41DfANrQOu+PS+PfHYnrEYdBxay1yPeAWk1EBjaKF5tHEGSV9chDtJ4GtnCo6XuJrkeIZerSLWguE00Xab3KvFhO7INHRuIqjWwb++8cwj+LU2Rj9+EwFXHQRjz4ib0T0uJCBwCbr89TuncYYPgROkiDHndDF/BF95vntWlOjmaG3tM+yTGIMdzu5XOe0jBtTqObN8/tEbpLjixW/zQLr9SkzKLhGJbgH/AZ7A/Ujdr227Kx7Zsi7GgT5XsPHrVF+6OExSE7baICjIAinPemGVFGvdujCCtjBnd9tAY11LoECHl0RZkgWn47DIZHdKDxDuKpXIle8sYC824kl8Dc/gzS6UlkkR58l0WsjosA/LaAWLIOzenWnF999+BzsXpsh1YS+qH1CgR25uwNb63J/f36GD0mVZmDh7CsPURhtE09bx8RydWo433r+EtgBtoFqLuGVAEmMwAgHHjvu2b4kn923Xtx2DsmurlDN2bXwAYluaSPQ2E5fgIr/X6OO+EvJNbGmKyFu4kAwHCyKVjoOUYQyIUMgiT+p/H0KqjMaMpRrffObxWG9oBEdl+h0MBKSfEyoxhnlMipePXoiz83zGVHWRG4F0Cq50K/4kx6wfbmJbM2OQvJONw2vSFlKr+OArX1bgumW4pML04OV2vHHhXHRHJwCOeA5VbeCaPA3nNmOcibdn54a4f/f2GGnAWEB2NY3lMqAjdFBF/wEPrup008t2qdZzHePZtlwCcMtMoMxOE03HaQk85XMKYa0jneYp2TVBua0v7N8TW0dQ7zpMdJwQeUyiMpqFBRoMaXbHN8Z3X307hWZTNCLdASlAWPbO9tl7QDXZUTLgJIgNDRynsYjSgZgn/PjyCQqtdLDfmXlWZwZTz9iAmoX+xDns6WvFF/dtiW3rg+gXDMWhN02fyWnJd7CQjDdmA5GoLsV+FR7O2nxanSqjj8/eai7BlXET8lNAVmoP6V1Gaz3uk8wYaK0EgtckvxbJFl+8fyie3DYaE7jC5QnWCiE/m+cxpZhkLbTZ04sFAHhXk5mqj8EEQ3OHNFnSM/FciYDTL9b2x7auaXMK4cNNfCCNmKPm5kxiL8OB7X/59U9eezVmgXx2CCm1ZZdd9CYZAwMOz0O1a8SD9++IbRv6YgAwUAku2IAxaJ+NyhgIJ3VJhbaaTQe1/GY0hoxviblnhznIXROHTX9tvPn7mENQn4NSx5OtD6JHhlzXQeCMB7ZvjAe3TwKj7VJwRl8JO20l04q8kKGog1B7n3DsW5dpO3SlshBEVnLGSCW6O9tn6gHzX0TDmjSljwElnAQ3NEgiVhfnO/HWubnojWzB7oYxOLKEtmUMMv5R6Oipjf3x8OZhokx0P5GtBuMLm8baxfSFoReJahCchBdkdKam4FJ21nHUzFzrJitIpgmtkspst+XlExNCA2hopqr98J2uzkGO4eeOr+2/K3ahWFeUKgjFaC3xTBkCswkIb6G8DsYwHTPwCksNJuZGMwuYHfocdNAq2G5mW/NTZ1No5dartL7KHNJn9AieCSscNe8YTGEQVw/bCq4B0AIfKOcOd9s43Bd3754EKEQtx2FUOuzJsXoxximcMoYtOAC3BFyaMjW1B63qu9bN6jxFJIG7Ay/xdIkatEjO0qdRR2rg2uEzrK+PAYUZuFhdCZW1nAOyzRAWSat/es++eKg8HqOArvK9OdRESEvcM9mWVdrcw9fw0oHDiZEYRrKMXEr15Pd3ts/WA9rMklbmUBN7YilA4cQRJy9MxxThvHZlDJsdXxFER8ZBUtHt6kmS2760bTy29WE2SkeUeK8iXS24imSAaXM+kOUio55D++vBOPQ95YRSYwbeDGPAmIYVIAThNIZUS9ynTJloYdh4Gmg/qEfMGFO2cwAARwD5dRfq8eDmgXhi53pFF20UE0kVKHbXrujh36oWhuLCfJ1K1oCymD/q0T38eVmYEhaTTPqbozN4p9vK38RlUo/JMjmajIR0BrMjnZWdmWkKxh3StvLiOR+ctHLsHKG7OezBJb4QZCIDTKtDtZmYQFhHeLD9O7bE+Ci2HvN0GjxxjY4cBiY5hlmhxtAH988hla38rMLhAiFr3RzogkyBXYcjD+q4JebQhjl00AI6OEYb/GtzPxcGMUutp5eK3WPLxKEf3bo1HqCIxxAJXN3OfLIf0W0ZKB+wDXMoxQkSZ8zV72Iu5czJh8l4v9+7LdEOUswHV2I60dMnj2X9IboU2iEAADm/SURBVLk4DqvbRxUrQ3BpRyAYeWpSMk3zgorucerSNAWDx5hc9C2qtNcvMwZlKRt62wJ69bFNQ9TsRGPDb9VkLBQuevyL7GWuV+EYKBru4eK36BLcXDrJBMdHGrXauE/9qkaqjsnQw7BK+D5kQiUYAzEPaAW6MmKByWPejingg2B5RtqL8cX7dkGniXiigpDSJ6fjtUcBmCZzp0rUYmoOByVX6pFubgFa+yZzQGYaVkZrtp9z3Jk3vtq3HknOG1/TI/L6ka3YowPzhj5oZPKwm/EjIaOCdQtZ8gnzBZWHwxxTuynBaXUDqiajHNHR2UR1kMuoQw6IzqEqkv/142cogElgyPgRTKAH1Dmxfzq+j4zIdZjqTz14D84+OTqTkNPUCGqo8tRFotEi1xhIqjqLeCwyuB9hVx95lE/5ll5h6mcn20OpX2y50ibdju/oNp7Bzz6hEivbOAsNdUisPeO9b/f6+On0NOaG1YMBMSEVBjFgqzA04+fnSHQ5gQQYnAB+3dxAtxKvAUi1erWVi34uXhjqjH7W0FpDt1Y2GnKyLk+RiY7Kjq+mw3jnQYzaJ4kpo7npDC4z6bMVoCVfTAaIzhqeORhyDuk6QIp1nRTqeUjp6NlL+BpZdxIazOFQbPNapRI4ubexEU6zf/O2KIysSyHoMmPswi9OSrU4UZFdahtogDjeXCG9l0N1pWMmpNSy9i0zG5gQaczVIFxL0/F3L3D/xA2hL++joO8yRzRxN09uiUc3XoqXTl+hKBGYBp5f8JNgLCgwFghZvnd+Op7dv4Xy9GgalAVwjUwX3U31S50zqFTd5F0nrIuWYeJm5Kl3SvGXCsLWWikyY+ewbVTFz1oKj4WNZoNAS9MPmXw5fqx3tgFnoh+pm4wM5AIoPkwWOCxdmLAEzOIcdp5V+t2cXDIOvcZ1pKNW3uHTl8hxkJPzhRwG9dwEFaDgUQLDsHl9X2ylVHZBG0rO6WpQcM86A2z1AtX4Fh2lraYKVgZ5aGQie5h028/0xyFI4Z+P/sq2sfP3g+3D9xIGOweUWkWY3ECyc2uxdeMAwCxwGcvi1UGz4T0egklUmATzcPYlJsDxa5fjvomdMDSeC1rj8bza527LWP/ami1tuhPkjUnC04bjGtCIC6r0wfC1+evmzEj8nFeBuIvQWeYktt/1FXKMjivwW+nIUn2XFroxPY8mgKe+DE3ph3KhIfNgClx3O5NsxwQVwdXkoFWplMtAuwwEWyYenBTsHucAt0pbjxBhJyUBrhxY04t3yO6SjXmamdmVvJ9b+toPMD7oqoWQxouYnufBTZNx6PilmAZ2nxxVYG8sL9dPucM6mZjnry3FLMlj3UGFMaaKURnyMCBRo5spMbFLH7cRwvhcQeByGnRueTo1lw6cqE4kxn7OtAe0Euc2W7GPGZ8JeVQ00ledgmU88APYWnkqHpXqY2gP2aAWepTflv17QNHuZfDCD8IEfHA7NU8j0iTDfmfFuLhw4nwMEMLLk1JdYwD7GfmOjjgGzpmybcu2VGehgNEHf0v3V04kVYfX1c0jbtnr6vCtfnvrXuFdMEhYJM85OLYxRsaw8wCh9HjeKgTo5B8geadJNl0bJnbyxIno3rOTFbhT4+k3eyojk1vX6n9Hd/pwOD7TBZOuxwItrSVSzvqR+qi9RQi5Dymi40w7WreyY67imvrIe8ms/R6h0XHCKO0JMRK9Jh8qH7NTZ8EozOG6ITNXRyGgJFGsTqw85473F6m4hEMIs/Dztjmxd2xeDxPIsEGpjDwTuQRnK2C+FpjYrcUrCQNUHKH36KcW0OtckXnJ/FVTqECPaSlI5ngZBlDBcdlPicICdJmtBYcfJWOXH3bPytQqJo95kpgZN9XV5uQuAuEcBHCkaZ2YCBy5AwBEU87LZVJX1Y8KuJwiqTuWNgRGnUJCM4T5G7AvGBRjpRRQjeOV3+vxd/HPXaz+RLV4jyRCUNH2fcYcuKBXRWR4bVnPKstIH2/5H1oBYzC5pojX2gy3zeMTUbh6FcK1Tyjkgl2InxjipYI0kusKTqJpmOkgRWYMSjjMqGS3vOU3c8NVNrz6+knX+sDa+oQvyWjH10yJMrIVO+2ZFOWpohYvQMDjmAQtnIGCdwxJS4qq+JZfW11TIY/nvQvHbXF+DRrKs/BPi/6/Mj3DGiEYmBzrQE8pvocZYjyzBIPYgCN44zjE9TncMGYoVzhA1SkiL84NhbGMknmYg5HqrnIOzSxS+GW9uSDE96C/MmauK7AJr3FWCRLWvBA3ofZvvwPMwdxwPmsy0eHubv7GAWArLlMu3RMSNK+CFDcVEKfMASrI/A8/eCm24rxRzW/pkOPrAkyjAAdqojY7GCjQNCgTh9ptqvrGhY39Vxm8k6g9yxS+LIH5NouxzYIbJSDQYI/JlMyjjk8w12gR19KW13ywhRkrSE+XPttYGveRPR24pX9Sv+kEQmVV1Z2Aed4LXvqt9qWYwlPeSNgNOh3fCawV3H4+vn+EGoD/6jfRRyWnBii8pr9XCl5nu/431/nBLTi82twV8vnsdySas1wrxalmXywPbolhNIVfXmrEsR+8HAOUba9hGohbUQhJlxV8D6UVxiAjdeEVYc2u6mTFozyo03WTm+JtnLtzJKvlqPjc5ZodxsWCwU6ift5vIeQ3gR3cS/j0z97s2/kLnZVbQQBPsjjuUYCBCmXnZp3qZylShgA+gQ/rf/3lsfjuy5hmeO4bXfI8EFy48ZlOhGCZjwXNc3ZNb1PPl/A7nF5gBe7iBhyfcBf71vmvZGeTIbkVBVmk0fAkVLJMmmH3oeq9Q+bTESofd4gM4DdjxJy0XAiTI72aMmjIDwaQbJQkNvgO26SML6HDNcrr74reHN5gGA3eI3ZURiIPuQaFKAgdDadqzz4IKiZ+jZzfJ0r0Hu4fbtmRNZPnhxe6iXdGRrRl0QlwmEZsp5zbutYciEcGj/YXIVJVunI/CVS58Zil1NuvWG/TuHhPlq0TZpVD/7128IQ3Er1/7/xbeOB3h+JjN+aZkg3wscOrH3HK9oP3b01so49qMQetzZHBeGZmiSxDDDPEWwfTQAGlSCjBGKxbqBcd+ZaiV02APT1tbX1vxPXL5LA06/igBsYpccb9FaFpg8a4Rh9Sc2N/Vj2cIOTKd5+fFxdC6qfZmyl2nL+Mb0ET3ZwPTIKkGSF42/ixjl+bj+POF/qHUlXOaMBOnEPPCZoS1asFkNLOCcOnfqJQEQfpJndoEgaSXunzlKHJr4tlpT976jsJlv/oZmm3LHuXeoc2Ug7eJvaWyqg5WtQvgB3xho2BlCvpfMS4Y+cYE6GTbG9UawBNnpnDodjAPmrOsRAcRS1HqPeud6IN1jsPh3PC9FCHUmjKCULDM58Cl1shGg/z//ZstMeIhlFOXbDL8Lo+ytIZkmqsJsmgIfUAOhVcWJd+y1mu2jx/sPoF1OZ6kl4r/fZJT3HbHu6TGvOxY9dtG1845tfb8EfVmMwZcdFpltiHkXQQNEv6qiRSCD19zziLCWnpCVeaQdglcSFULYoS8B8OFVhzUq3UOq4Y2jBcIheo0o1EQxxTc+Vyw5hvXWiWy90+mqE5a9mU3G2E6UYc872LIDnTfOBKQu8Rni6bkFP7pA9KpGlXWfIg2QokZXVYUDcPo/Vc57z+sBKM2SppVBvAPchcUzVLHcMB/mcdxDyWAbEVKxIqjh39tF01AWnWDxx3Glg6rZ8Uzx62TZvGERXBHsT+I6zZRRKYgVjQKZQoQycIj4RK7UrCFZBY9YVajA5O4EWFMMhP6Gdy9GiUuem+F9jgdbSbdBpxgN3Akfdf3WzUyn6bR1nGILZBf0Idh2mRQdG73uKzql6PLLhUG4J6giXtOpvNY4l2s1CtSkOibl8+tskQRa39+7rdqGkWJbneptzRsZyGljUbUKkwJWEQ2LrJK5sc2Up8TkwEC3HSd+kzVJAzVwC/AtyA49IWOSiLlDfDo9slLJ5WmqbvRRKuUrnnWMOj40IxCrHP2Sb9N5kzIy6UbP8kxsBD8b6EgLImiRNV3okzgD8QmV5Z55ZOSDT5Elq7/9TWW5hgKQEtJWXZH+z2dXr1PV3LEGVhYi5VwO4fJGLQwS5bxN7rxxdQpHDJEms5iPIzecV4qJdSnWlzntVlDI94tVR7EedGNo35nKQqtRC5Fk1LazMIaRXK2o/zab56mQElbgwz+iBNmtkjYVUAB/SsmU+b/n3d0nJ4hGgbqAsdBkNYbQEituBLHQahRz1bxAQEJ5V6JO4SBFwhIUx2102T4HpPRz9c76vbfFwSYmivu32UjX/8JAPP5gr4+wIaqOcKSdf2z0Jl9AzcQ7XXf3qaMk3RHmMiwIiFpLcMM9LFTfwIrixeRgI2kX7iX6qYvGnBB0FOnG8/53i12C8HPt6kz8Xnto5COt78B9QC2szzM3m7Rh2QMJbKzwMNr5tB6thwXPpzVbQmXJwyJ1j9/AAhrdBRKPU8J3H4lVe02uRf5BrdGqFQTGC3Yq6xwAVgDiT+dATmsKZDD+egkqut3caEVqkQIuqemIKMQduEVlrkNDk20qByIoMhXHUYJmCt/Q7Q5iqTqMgDKDnKQ6SKajpwapNGWrkp4bsdUO4lQchEfM4Pt9VPvK6+/fDLW/ouES+PrmNHt4x9oE/ENQ1TLTe0nxb2M7wjOYnsixaL8erL4bHQtNR/P3+EeiOm8A8NQJrujJuRNHzd0BC0xbhTBIv+oO8IraWdC3muyFbpwH/SiaE3V28qgZRFXwNcipmKpjlHOF2VrAA95qDD5ExTqEBrqhVmQKRaCM6m2004/1Anfex7n7+M034JrE+mPa08Av1mH2geLKR5heCxUhQFj9pEwYpoUNa4NPCf8pF8dPrb8XPX8c0L/QOzhcEW6CfrQjSXGtSYLMVe6qG4FXffNRKHTp6L3Dw2Wx5tIU1QVGOJHhuNHucNAwVu3D3dTHtQTmSHo8IJL013k/vwE4d1fvoy3/PbEg4RmQIVmhZIlkoMgsVqWXgOhCDc3sHj90UcKZoYWfVnfpe4GpdY2ZQjgqt8TQ+2+sWtfE3MD2pGgyoiqUo8V8ccCGCsYj8qOFeLsOUaS6p3gUsbEkodg70sQIvuZmZgX38Ot5vqc4FCOGwTrghFkwANREwnrHSJStSHVgB3SlRsJ/EeEitQ+blT441cApVY529J6Cn9WwFg1ljkotbjU6jWwJVYLwMqpLQnjm7pKstM9Iqfl02tqW+4HwAXzC8JYiYW2oDml/p0rjIaFdZlbFv7kbnY0jSD/vTP9Lr0F/MydXDiBj61rILZpt9LzQPGKhBxDKxHkcppV6bPxV07d8ZffOVRzqU25beffADQUT0uXJxBnQO+C0FL7Fc5uQ701PC8JkRJdBmcukkj60zkPpJBypQ5a5NchPKSxlDyT+FKGIDrQXYZoGsAUArD62k0ow/3a/twOOq6OIyqhGGWcFpMwKlyglTQSDpIh7QmIB2TLrrKBhJT4BCf6aLVox64pVsCcKkcOFMgzGnXK6QwbAufSw8G4KpFZbzsbSkdbHy5OR+bBwciz6IiqnLVZZZG8wE+Z5tNlsbWsgl3bhHCGYB2RxCATaRVnegMxbmCwAJ0RRTBub0y91tIOH2P8gHt3nFqN9ahqS4FV6q1pRgd4lqUc3PlMJen0/HYRVOwfeIdfGOpvqsAKLra3Vq9n7NNE0uk4qV5E7t4BgWxqQqULMjqh/BQhCvHSPrbQN/OLc/j2GYxXpij9U1azE3X0jToWMDU13eQzDnmqF4JAxcJaEiqt/7xL9w1Ed986v746j18jfui+F98YU98bd+euHT+ajSuUcGWkEgZ9UI4b91SeXAXF2TpJ9d9kL0B4Tfo7H4y1aysW6XsWp09A6Og/tB4Qx5LIBvPUjP/X/78NZKoqjFHnF9sPAmMMQSjWFiqpizEy5TO3rZjgt8LuDY8pU7gxFeRXN1W361qDJ5xmzYpll2zqE4k5gjLiZ0pTpLUAkHC+Jo4JAdYoKYLdHU9a0s8MtqNP35qdwxTqK/CYJdWF729Tc1f621XR2Atv2/CQF24ZwjbYQIFqw5jqKGNLiLUFiHQQRjGAB1aglFIxIbGxTQIvtPHUKCYbgNNoQBtdqCv/sEclb9K8bdvnImX32OpQM5dNlcgMR0uAkeZZ1m380usGsY1iPzT7NtIM2voNCs+TdFXl5Zxd2t+YqKaSt6PQC1CfyVSyzeP9ihVty2+tItScahhbYFGziAjg9i5Zj4k0xfBnkUbdIa70/cURumnfL11L12ndfvGjbF1HfN6pa3FQezffWOVuG9sQ5TQuIzNq8X3OGORAaLPGQKqIXKvVNFVd69cGMJPlWWoItOxVsHKBR1cPxg9OUGU5bu/eSWu1OdJpR4GFo2NiIe0y4PleNgmD3fmwqV4ePu69BuN8MQp0S3xPHChFfagtrBCmRnbWLnZLX5JrAoCVmuwRNwyceJToO9YgTANBCKNPiJ2zETQXVtE3D1GFeA/YYWjMfU/Nzv0c0aktjhta5xbPbQDMqMRLFxFrV4zAlqvsqP4M3ERFtLNCu34vX7cVQ2lhWCiHhOWLXSTzJJmXKUux5n5brz89mlwDmMJWq3WkBEvOQBc6zIrGF8lyjlIFbDPW5ebSHXqEmULnGaUNzQawSxG8bZak+tgtPENlOPp/Tvja7sGrInNiTBO5oqrr6tkCDeHWtl9fg18TuEtUzym0RQGKHfgUHiclROitYBj2CSmESqZlaglICrN9SSNhyZPI/ZKlYbURvgFQyKUuQe3F72nCVAjkD+AxzQHdzelaRHuhkaXNIUhMuDK6MxNwCisNB6VicGYvzBPogegCs7RNlkyS05nCdc8f5GluroPcBy1BwLStuqghq+wBBuQtg/1CL+5jRt2AFZZsltb5ENMT1+k7aywTUishtkwAqfOoSFpF84Sshyd2JE0WRSkZAJ3OM/6D5+nzQlqn69O1M/a9ib0U0diEK2mdidXQluQR7hM/IJYGLoDNw3CB98NNNXAFDOZSDXYO7ehS51rLUxPbWT0B5jBSGzctpsLHkzl83JEfvgVY8EEwn4WFzFba7Hs/ULsHEZKfc42KeTUhStA7FPPZ4yBt9YCKlLrsYsJURmeiHEWgqZ6KhqV5ekR0Pgg1LaEHljsWCyS5CZzUHvooE1pyo4hy3poDUsEG0wBHAaSMKD0pa8MhALpN40Ch16CknJFPJReBoshDVJ6zwUFGOnd1OcgEzDVugjxtznmzTW6lZOaEfoaWsyEythAbN/CsvZXMFNQB9GzuSj2thLWhjJ4V8iOW+QhBrhoHxLBp9Dj3ONVIsiq6wAO0kDnN1ZwWsXQc2ANmw/AzvMo9fnAe5hcssG8HJ/5r+c8A1VxLi12zUN/p8ljTQZdOQsYyc2FBdS4AQBbQL5xznZxCNWMu6POFXmO3aTPGgBypTOZvtw80bu3+rxsPjpt5WVNm0w9QzLycx3adKkWmQvwCKZPDIDD5krocU/1EFa4UFKBqepVJIxdxXztsLdYRr5HDYb1o6UYxDS7yhKCrglawQZxsRZXCDPD8jItvgjh57ujydGmSEnwf4mbzbj+qkM7Y37ZU+oE92kTzXteenp/8Vm3rMd8fp4u+zGH/JTIyR5Nzn2nLa3D/6YjUYoz8/HYzFUSd/G/QZuGGStM/PQdPpsCdtYIzkkyFnA8AivH/1LATq/wrBYhsh+cTulmNoNrcCHvSH/DNHjvgk2jRD4GwRN1KVvYSwI765tiB+ehwBu5SR1J7Q9XYbsVq1d6MScS120Y4uCzSEiLqlTp4BITdpALeoIMweQV59sYN7yGQ/ULqDovHD8aF0GoRR9FVDEqtYeaVIEeXDcSVxaoHk0G5pP7tkA0SFsgsnke3LTXAjZVH1lkpl31gHzWKCTbYBcLDpexpZ99S88CVoKrtCyqgm8gx2670xJiPJsE0wWw1DLaknqEQrH4TJKgx2/Q6C7RV+Nx8ORVsk/pXAam2Bon429LLA1iPxUBc128GOs3DMe+DRtZeYirwL27MN8iXp8VEvnsbf+c/kJ6WF2Fi/o1SWIptQTXJYcj30NW2XEZMn2uNuomXQ6jkVL0gkVYyLXBCTmCM9JU7Y0kTu6+a32cOnYJ3E0rJtEqxlhKfpZ+rvP9ORyRh86fij/btR2/BDUNDPWx5/UBMd4WNykw3oLrVLT5CRsTAzsmUbOCIA26x9eyOZuc9M4rGZ50jfbNjNXWF9lSwAxX3dd01rmq9K7QkLmFmXjh8MFojO+Ific9jsQJ1pqoIV2u1GeAe/diz7aJGKO5FbkMpn+jDMSc9P4+ihn3IfCdOVw20Zty3Y8f5Onw3kI1Hqxz7Rz+m7Sbxco1aQJNcrLYdC+Sdr5kyzya2tRelYbz4jc+pFuGbfcimddTTuQAp433plbcRZLUAGCoQQEaSFCBQCqDxJUAO83GHKCKMxeuphp+PRo4wD0st9VjslqtqcrvjIKYZy+OQh+GMe+1bhamaRFQt3y8mo71JUvoXnlEWGJAMIQEy8ZcKtPMEh1VpD1qCk1LzkNQRUqWz8CRD16+FIuoejnh0JzT0CNOJCaICQ+uH42tpI1SxjILyDRZy8IIEsOUkb7k//uxJ/pY4YZJzV0ZPidicjjy6iFJJ5Ear06n7Ci9xOSFeFC3GDOZDJNb6TrAD3awmHDgwxqmJKDR+wbjmfAzXgiamSY0fm6ujiDrS34HLpQqJbUoP5+lregvQvMlB8Fd71ZiTPxl+kJztmptm4IyMR4ukYlNBBzOlV7KLaIMEffN80zNZcoDMuEN51KKCIE0GEfOTpGRSoIiz9PRfuB5hIY1obHhfpyE1Ca5C41ckpJ5WpFdrdoSb94tm2OpR9NntZ4PmMLvPI5UqCacMav2ija1ZuPLYZNxOIDOU6dVwiGoYfC5BzPIs5DHNlJCd05sjEUcRQ3NFbSBThFpD9JlAcagKnnqzMWYvvgQRTXoKBYXLRBuacNd6zRykUlXQjUqYcdXAFcMoFI1LOcuL1vD1kHFr+Fh5RIpymKozPUj7BAZUUaYMAsYQgUTxyo3htuqVJ6q0VujqErDuMvePXss3iEffi4/DtMijQ9mI+w06rzHCbSFZ/3y/fvReARyMaAyZ55LxGdG8Gto/O/hT0TSVtHsimiroMqTyVCkGIlaiK6DBygLP4ET03J8c+wC5oh9M5DsEObl2Vq8eZF1JXaSX8GKyQWS9cwWFh2o8x6Dj8nI4Pi7JLmz2FiJCShNy8bXOl6a1frnYGdcR11AoagzMDO5ddl3gS9LGp1FKishVNquVkW7Xzp0JjkZTVg0BT2Ho3Ee34vh2BFofyt5Rns3oqXaOiZ1BY06T0RMGV9FgGm3fiCkOeezbmucXkptJTu3g861+e3A9Mp7/SU1GEMTVRGXY3zp/gcI11HLfxncg1VosIVghvwGex3Aj+vxvXzwPZJgOJl9AHVbaWJnNohR19OehUSZvtzJE9e2ycUNqbrCtfzZbMlM81EjoXNJ+MoDEDE7RbXT6AIOGIiJjEkiMWoLs8z/F989GlNcoYpjrAs4q5ugjtgMYPgHGNgJGNg3HnnEGiM4JQkzYQ82dYpJZ3e2T90DMmqX+LO0WR5UVKXFVMDWljEMMTQPoE4/sg3ULviQNlm74P7QCDkHgSIhXlvqxCsscntyAX+QK1QxpsrtAX1kSUQ7vmgLSPLWiubgOamEvHR2E7NLWWz6tMJTbVS8D6yCS0LfPEOB9PwhnwNmgScBhytmDqHY10/NxzvnF9FOYRk8QwdNpomZVKMPLG/fj/B0/c1d44R46UmvXYR2B1qs1QkTqcEYhA7ezLZmxqC2oBoonasxyBQ4lF472Imq1XUnE8e+cv++2MaDDTJB2q7FUCSNG9U6DxqjCotjfZZ4/diZeP/CLPX8hjA3tOdpGnY9UBYeElNi5R453Nc3wxhM3hqgXRWC3tb2b/EgTXTKZHsyMIUUJ0adxKQw/p5Qepg1RZjCAKHILlrLK4cvsjAvgBJTiXmuPB7xhpPejDZMisBv8vSuPbEXDcjYeiIumSf3to/ubJ++ByRvx0igkuXx8O6iWjOB6EgKP8dOImdfvm83EQ24tUVIDaXDqE1yc167DsM7M5048P4VwGge7qeADtcyN4fxKEC8Cervffh5Owk2zQtVb12ha98yEzuT3BljoPlcUKZWBDDYx6QfQP0vEeEbpFaCtuYFXFQ/e/MUa5IMwSjQetAySHVM0QbmP8DjXmxA3f3i/l0Am5yD0hT9gUada+PYR1OqI7FbdtBNbGtmDN5Xx5EMledLKrheXJmEn+Xchh+pEBd7UBue2cNS8jyj61WmYhqU+C3gTLEw/Dxq/PtUovm7I8djitFZdt0JpLbmg7FvCYD+gFtS3p3oRluutMbNNg8w2ysYu7Zd1UvCa9OZ8qLEj2inkN0G7W/jxDFbVHx+Ga/3yam5+Ol7xwHOEH0nGsFsT87LHupOBc/5IO0bK9TjK08/7ZCioRJHgWDzxJ3x9DJwdM6d7VP3QJK1TGSlbiHBfMmiRBNNlYyws/VJPbF7S9y7aZwJppeXS3O+chTbNjGJGczFA++diPfOXiPNG+APWh/DwQSl/Bnja4iU4uCJxtKEYOZmwu5TN/MTT/QaGYqTdnBNyVY6lgZ1dlcAFjVT/JEUftpIWlH87OWTceTydLTJC/nAjEFApWdBw7Eg1ROsaXLv5FgyU9JarGg6XU0nNGsLs/CO109s0qc+mPrhU5/9kRM/YAyMRBbWcwiVvDAGrmq81DJTdngFZv78ww/H5groN7NommoNgJ3g5jmW+a7SQZf53YFz5+OX752MWS/CAqNlMKHDSNxBHH0VTBNr/lfxCLZuwlOshOhH4vTpcGSSplp5K34EU8k7+kBkFIxeg0FwrUHy+2AMFGFpVlge7GS8vQA0t4cvgdCQVW1ry9MoC/hCYILDrE/w+L7NsWsbzITfF3EyFAngdwGUGLG9Cc30I73/+/XW1c1RwJOT104lQJEmfw91rAAt7QaQ80/27Ip+TNVsY/bphNMZjqmq8/oUCNvXj7yP2UrMH1XegifWEFGDLENbOqGl1Uz1RwpLx9juTu61bklAMkOlMSMTGqaJKeh70MHOvUtoClUmjM7RIxeW4zfvHIk5pFVDzLIMQQaXpC/Pg3awgfdfue9ultpjPrhCFSJYh2nTIiH8twyeWrq/vJltzYzBtsocVvvNR3f3CIcJ3ZEBhwPORqo17NtaiKd4oAomhOpevn+csaugNaD24aR0Ap5nYdufszjpW+cWyT/AO4v4LtGB/YSoKmC/c0n954KyQwY9FY1RKqy+56uSq/GguVxv08m4hGpWp0xYAdW0X7AWHW5JbdfS7GHmtJD4+h8qDFAJoFauOBpXWdfyxXPX4jc4Sq9BUPojsOoSAcJCaBKVd/GfTBBj/8MnHnHdGdrBsyMpmqQau2x7Pjm4rteyO8c/qQekMQsQl/DZdKAR6R9YHkJFtZ9jmIUo3fEsjGEvpl0/oWO4NTtEx/GCHkbgxG0iG0cYuzdPnIvzCKqmOUH4HPT6u95DH8sSlAmpuwp6js9K61bS7q5PS9zghpu+K1MIRHGif0K/5BehIxcBJ1kecBm67QwPxRwOx5OkD7zw+sG4TPp4ci1gGlm7Ma13mupJNGMdFaEfYBn4R3duIyetlkK3wp6t/KxmIjdw7vWjhehcv5lt7YzBu9oK9w8YQqY9+NlEqBY2uWsHEl1hIY2IP3zuybhrlAmlqkZIhvJGVKlBJXDSUMBjEZ/Ckdlm/OTNE3H0imoYPEO3EB68QTo0rd7j3ewE/qel0dPtuS/tkFHciCl4qqXoF6iW2wI510+t/X5u0rdM+ikdnTMRCrFu1MQ1EIukoathmNf+9qXF+L9eOxzvAMiq4lcooraVcGxRbQZuhK+ZWpd9VBp68q4t8dw9Wwy68PwyT65nMRHi61nc2Fbc2T5tD8gYSgCWSuRCGOpcZi8CyLHOginbBTS8ARjE/Rsm4o8feCA2iKlhdTCx/YKAEKsQCglsEOo08P+X3j0eLx87DxaA0xjHEpiGCsyjn5DHEILBWpGGGNUUutBlJuw+bWt/9zz9FXXoLTkCCXeXkJAVVrsqwBhyzNweNSVmeZ4z1W587+WD8eaZC5gT+Ah0TGEm9YSDQlcSU4ln2MN3f/Loo2jegLnE4CB1aSmKBAwGprDAtfRj9UG3JYFeN7FxqbVtKSaaVCTmaGIOXofehHs5mG0GoQ9VSBXK5vvV5omIP372qRgESpxW89VRJDgIRGTCQ+J8mScOefTKQnz/zcPx3mwjFpl4NUwQ+X+RCZ2HeRinNkSzygQyycwteNOhY260qR6qWurBdu2KZWsOMvOxzmKU6w6jpg5CgT1sPheNmeJyvz4zHz88fCKOUVuQ/DUujypKznujNkOWGqoBE7/MYnxbRtvxZ1/+cmxmwIo8fwHtqIy4qLA8u2smNECV3hxq80ZP9v/P7yCb5AtQALUx+ZwA0pLHdboZmiwRviTeEN94YG88vnWCsCaYEbQGV5HuWSwH5mz1MRdSPkudyV8dOhovHj4Z5/iqym8bhAI7gOsKTDjLD8rIUyEUmPkqja2ldy1h4HqSTZiVy9HlHH92UcM1NOVlnNWHp9rxw9cOxSsnzsY83KiJhuESfDokutS17GeJvRJ0NgZW4xto3M/spYgrtFfBRNKhKQYhQQWYSljITD86iul2s76swl/+5V/+j2t5aCe/E9KJJpJL55DDlYqW2FwGoo+Jn8PjKpJQSd3mvPUb18XZq4tx1AKX2FdF1pgYRAPIEbrp4VyqY8tX4YBXCPvV6rOUaGepuhGkLQymp12IDqFKbiWlAnkJrn5sJSh3K90U4fJp7b7rPFRbsBTREEOjDr4l7F0Xo4/nqdBWM9fy6KutAispc+zAqWvxg7ffi0Ng7qdxWqHaSKGp3f0wABQ6RFoPpnIl/uLZh+Pb9+1KqcW5DhgNpE8erUhbdgnjUs86ikjqqes0787hj/WAdGbGpb1WBzBmynZWfkw/gHgAMnoZS9dNGGT8mUlxYpb1FpiMVoiyMnmByegkbYAJsAT9AunaC4tA2aGh0ZFhJpkap+XpG2kRYzOQ8jAL7fWe0SZvv4YtZyUfBEfiZfg8Umk17tnCn1BDCB69WosfvfZuYlJXEUhV6CStCCeDgtHleYZh5I5mzqPrhuK//dpzARyD58c0MoSbnKxo29Crv2vhLHdleM2uVL3K/ljDJjNcM2P44H5MdkaIj7IG/zlYTDYGUTRXEx+BUOsuPodlykdNUBl6Ymwyjp67HIszM5gYdBgc2rUdqwxkj4HtAEJR/Zqfm4nZ2VmkLJj4EdZv6APlxsTOlo/D5UInm+vBTRNj4A9MASq5wWZ1KBdA0Uh1VesS7VJtbHHvvE4pnKJW370EPfz08On4wRsH4whrBFZFRKaYqRyaW+L8cbdizjDFXv/wvh0whsdiI4PaxiFZKWOeSNWukQlRLqPWykD1gNtbd7ZP1wP2lV52O80S83JWHXhgfRgvEZCA05gIJcoRKhyKFARqMKEunkMtx/wwZdkVooUrFZjsabUncgTqSOXpOdYcZUIVWKG8MEDqMvU6DVurNbguiPSb/FhrHjFMTCaqyETTqFuYro3ScFwiT/zwpYX4+RuH8XmcZUUtckAIo5ZZp6StQwLas8p4mfD+CAl5k5g5/+xLT8azd4+jBUHr7DXCKgWiYIb17ZYEr03QfvqCftAfI2xgLdvNMQbumdqDg47pme4vf5CbCzVOKZ+kiDaY+FU4XMliJXzfh/q2ZYJoBCtFnzv9fsxduwpTYEJi63VQ61yYxHHI8X55Gdg03H1qejaWgLYOjK5HyaBXnNSUhzPZqoUpoF1lAVY1hk5KHuEC19lSQIPsUZS65LxqwkgkBjPWSmgsi/gcjjFoPzl4NH703tE4hUlQx6RITEGNAa2iopZCtKFOEZpx7v3sls3xXz73ROwb5xpIH7PdKjgwcynTD7VCtVFexLklOinrres08M7h3+0BhlI6SwlW+AIcNx1rBaSkq1HzTl2S9YSZyER/dPZuGhuLmdmFOHX5KmFlGHoZsAP97gKyarSwaH5mCXuWebs6E1dcMq08FANj/YSWBR/BdGD4/TB2lErOvj49/W5jf/eTRVt1nreQPF2yl+vQ+RlShl46fCZ+iqbwzpnLMQ8TaMK8utBYngxHixUhFZN/Izd3Nbbiv/rjx+6Nb1FQCbaStJu0eAymbhkHuDkoxs2ynB+EFXOPh0wm62oS2O+26h/+dFOMwcGCJ8C1YQxwrQRwUgUxFMOeE1VGl1K6hNWIaTyRgDL2Vh916lgWIyZZzbbFojOnL09FUyeMvxmjFLs2Idcx3lvmX6uWiyUW3pueX2J1X7QHNIsxynqNoDYVCYc6ZkoKt6Q9pHfX/2Pb+piwJEHiM0TCEP/N0TZ80WApmvESDqDvoSW8fPJsXKPWtoi4Nii1BJqBmDAAYUAMthdAbD1G2//7556LxycGCFWizvWxTnbJJdXwO4jQE2jDqVaRFg5dhlj4eGf7lD1gb4lbcUe3Y6LBBJhoAoSKMAd11DZaXx1nXRvnYRn62EBx4/LgOmplzKcIRKe8jrFiHJDAeCnSkohNGDxcHEEQcQG/w0XCmXWM9OGBwURf4FST8EHkQNtrY+VlmAL6J4Q8TOGicrxzoRY/e+v9eOmdk3F6BhpB+0WpQZMB8s9er3GuizcN4IxDKI7jrPza/h3xX3/9mdiC975NWfhll3fEBOcXRPiYb8w9kwD15aE7wf/wU6Dx2Oa1+hlujjFA3argcm5Xp1pFPhqrlTmY5KJorOJNLQyybqUNZzCG9JBQzWiMwdw4uRFPaiEOXryIg5GJkwxwfqdGAEd0deguQCI5aRN778rcdJy5fCYWpi5SKq0WA2AgKgNZgdAmPSyDyONjSDNx5a+T8KO7K0hV0BKU3C4h5yIx564txq/eez+++/ah+MWx03GEclpGSGAh3J+wK8TDGwaYSpWYBCinmEi1GNswHv/N44/Gfzg5guZAX/C8V/qmYjlHXpuOTNTGRFPUtoTXw7iE49I3Sqw726fqAYYJ21laE2fAaK0whrT2KZ5I5kG0QTktonJ3i0DWxbzA4AcI65U3bGHF8V5M1XXfM+kMXaLBdoHEu6J6F4HQwsxo4gdaYlJeRMOYOneGJQ/mYgimP0pOs+iDHhpltq1S0o0+cY6NYuD9VbO2jGZwNX7++vF4gWjb2+eXEDg4H/FVGbXI4/+QQK0I3RXGTegyLR7Db7/xwPb45998NPZwoUJjlpwR8DNiLmA0ffzWqHpqERGPPM9lBNCwfw1Hqkyh6ARdwyZjyM3MzKyJSv2RgybHshG2wd3EkWRKyBwYTLIjsB/EJDBpmSwjIAhdylymMYeKfZRiLf/3gYPx128dIYTEw8LpKTfJBML0gDmYcZkHLdlXQRMhCabdmGHB3Q7rEvaxYCkZjBs3xK7Nm2LHpg2xCSflCILBsK+2fB6OrZ1I6xL0QVOmjtp2Bfq4jPp4+uLVOEpJu5PAmy+yxuQ1iKjOPfOEUl3NJ49dWIOIXBAnGbaDxVi/PBsTAJrGJtfFc88+GX/x4K7YSV8MSHNw7vkKRWlQ/0pkZA3gECvRKZYHaMCEuCCDh7p3hzF8anKVzgTLqX2m1Hi1Q30LanrsYgXaDLiMWpSpyycWkKRNJs804/3z44vxb145Fe8y4RfQ9tquZZL6H0JBs8ihFZpI15/UfnJoCFkPUjFpaKQc45Q1+ururbGDPJdN6ydiYmSEeoo2CEcy19KUbaMZG/Is4iOAvGMZ9NU1fFKz1Ol448pivMK+TKHlmemlWFqClvFheZE6E7mFj6qLXWS6tZGtfphCbrkd6/vHEuT5P/nKznhoA81cwoFKlMWsYDWBAs7LMiaSuYjStohg4dsyvRYMT7SuWpXR2rVsN8UY1nLD1d9oFZZp9VU6rzmyMS4AdPqbV47E3/z67bhkva/KGM4huB6qVpHJlPIjREmx44vlH8SBeO7HQ21Ew2yzdTg7N8MsNg1UYvvEWGZuYC/2Ewno4G1exgu9gCS4iKPqCEizK+yXqcB7ea6GOsdoU3oOGKY4FLQdC4CQpkt58rZAE9BKuT6GAOLbc+1MPDNSjOeeeTKeeOTewFmMysnPmfBGTpK2RCvdsiXWlDhaxkZuYFZoK3cYwyol/OO/Xmv3x2+Pzsa/eelAvE0Zvmswg2XgxhAZ4hwhAB0Iu88z0Q37tShMbBixp3YBsvChwW7sgOJGWUpx/ehwrB8ZTGXWy0ZHoDujYE0YxTJhrrmlWkwvLOHUXKI4azXeyA3HtdJ6VB5OZB+ACZXQTGQGeYTMfF6zGSmI3awmOoBfZBOa7/P3PRx/8aWH456NmtOcc4u328cYmBxFJHFa3QoOWiWscxanzM/fOhs/ev1dcAzzsewAOlRIblV49HBm2goL1LnB8TJMoUeko7XEjyltNYw54so9Fa5n3Ycir4Yz/VUL7aGBN9p9Zo7K1Tg3+VI/D7Yek5dzjWokW1TfhbXvVCHRPFRfrS6VA5X21S198eeP74mHCEuuh5egvZF4xdjCFPKg8GQBq9sdxrDaE7fxFaHTJArw+pW5+M7rb8cL56biPOC2LgA1cO/UzkDgYA734/+CVRDGJr1egBE+LNRGfELQAqZgwqpAdkNgagaR+ObLJQaPxuL6KHXQhjXMmCaSOmXlQlt1TJu02GZdehzhtxPQazHmXCsCWknFLlE1c/ikhurXYhdC6C8euT/+/LFHYpJs3RyaZ1cGdYu328gYsNOV5KAeC+AFOjhmKIYb84zFi8evxv/72wPxFpEITY0lq5s4OKrioltAdeEtZEbyHvUr2f46BXEu5Rlct66OT+0c/id7T6biOb5qawKqUnUUWW22fAcVrCGSDFst2aGmUCd1UxOB0BVmxjrsv6f27Y8/eWovab44RzlF+qEsf1Ivc5obSB2liLfVaXaHMdARt3krMamLmKPLg2NxkMqqf3XwRHzv2Nk4K2oVc8N1UZINLKgI6LpOc0gTZyDeICDT9Q4MhILHaWARaI5xlofBewfaPzCB5ExKvggJg8NaP91LmABT8BhQvjCoNqtR9wrDTHboWZ8VviiSdkAqTsW9Y7n4r770YPzB3ZtjM2nV+gs6fYP4DDKa9k63arttjIGuwzMMM0C1GwRd5sRvWHMOZ+IyNQEPTi/GC+8dix+/fTiOMSlzw5sIe3Jejd4m9FRE7cq72g6DaJzZUKUqHcyb/gZMxQCmUA0zX7svaRoyBBkGIJd+QkeYd9iozmJ27TLGtsO9e9hxTQAlBRZhHSL8tQ4Jct+68fg6XPzpvTvwazCWnCsf6EJMg/hPTLzpUKQlUy8TtfwOY9AuhA1BQrT7jilxq+g73acJTB30XPQNUeKfIjtTaO6vHVuIvz3wRryL03kW0b+IRtpRSrjpc2DuD0AQZipe0+HFGLvQS9IQ9FsxmmW1UQhueYnro7kK67eGKdIpoynGvAKj6UejbeODWOb6XRkIKfqpziTa53q05lFWLfv6/btAzD4W20Z6+BdYeg7nwVUc7GPjm7nT7xFjQFjjRGzFUD+clHyKFp1UwjeAhxHzgqW3kP7nqUZzgPrZ38Mx+coxohYs3V3GH7EMLLlLRl0RCZ+ATozlKjw68QC6sg0TEP0oPDSH40oUWI6B8bWEw6rUwfPL4CetgoHsof6lBWLgEQXAJHlCX4PdxdgML/ryvbvj+Yf2UbtxnDJthE4BQgkcUTNQYzGGnJycTPgK3uBVSLYagwwBtsWr5kzmY8iy9xQnd7Zb0QN17PhacZmw4Qi+BJZNxNmt+XdkJuJn756Iv37njTgGPS1RVLYDzDhHIZgyDKSfcl1FomM9Emgb0EQnObGZ99Cnyw5mJdSQU0x6hZEo2rZOSd9jejrC/fg3+poD0DPmCSSHl5M/ROkAxK1D8/jSpsn4o/vviy/v3xmTQmT4l6PGwDK5FMtE3UYoS6Bz/1Zvt01jcEK6alMZMNNyFVw7k3domIFhoi2TQWYxDfBMsURk4hpOyDdOX4kfv3yIsM/FVIZ+Gc1iXknPAGRgihVVjoERgEQ6Y+LiQlJV+YU9q/6JLWhz747miWaISBa0OodEu6CfqMI6JvoG2vPw5Pr45oP3xYPbNsdGrjGMfmk0yXFahrKsYO01e+IVYDoVVE8hrx3aIFHICDKno4zhQ+fjHcZwa8m8ScSihoZZRBPoZ8IPCmnXImDoq4zlb89eiF+eOBK/PXUmjl5jCfnCGGC8SUhjGLeVXv4aSib+MAZVU9Wl5JEjKb+mpwYKk1DrdGHj9JYTe2gVarIVkC3l3Bi0sATdkVVcnwJ+T1r+lvF4bu92ch/ujX1EOoQww00SnHsBH9g8vx8ZJSqH36wIjd3q7fYxBuUstnuKTQ8CYgLrsERprj46flDkI3O2jN/BwqoI6Jilzy6hur95co548FvxK0BIU85osuOS6uZsdSeKgVcx0wQSk+BCdGxS/Rg41b8c9+hheiw2lhhsLko2ZQGOPkxoYROXe2Lb1vj244+TrTcak1zSlbPKDhqMwNWQikOsvAUjEcbdZ9ltBtKwldeWISTfQlI61RgyTeHDqISh3DtRiVtJ6B3oqY2KL2BuQP5PmLqgM9FEF8axjjNxBsFxGKbw4rEz8eI75+K9C0sEp8ihYN2GKslLDFoyExQqLelK/5X+LGgKDpE9juoqoy/aUUGEqGLXL8Z9wCAMuyrZjtH46iO745ndm2IngKVBomVlBRTtMmmvo88DhDD8KzGuVNyHaNet3m4rY+gBINL+78LNLbiqA9BQXyqYwRcV2TLeYox+4rIsi8dbQJCAh2AShIbeOX8+XgOQ9N7xM7FMDkN+YJxciwLrVFBquyLmnEFjaApEL+TmgqaKMARcBNFPOMkVfnNU5hgDnr1z56a4d9fmuH/n5tiO6ugai/AI2oKGAejKhBWLw1guy3JcJu0w7dndMnaQ3n5wBI0IKZLMCdhS5mPgfjyfFXe0TVPn85qpnmoaGUDL4/pMMpWVayiBVnbv4fd3ts/QA9BZhnlgHtt/CUfCZDP2jzlah1G30QZb+K4oEZswLu+e68Xr75yJ905fiHNT56IKYrJAyfoiqEjc5dAqSXhoq1WXjScKlkBr+rDQVK0NWkF1MFdoGPNkC/iHB/fsiIfv2RZ3A8CcoBGpIhnmS5l7C6NT681oBeh9UmFXhIxp1+ITbuEmrc0RtctduXKlV4T7SXAevDWbBO+CuXBJJpwpyYJYEmOAI7scXh8T2T5L884Jx7mCJon2wCQAtDB5hCu7NuE0C7+cAUjyzsmLFOOYirOEOxfxUVjuykIwKeOSgfR1GxrFH+3eG3dPTsTkVvAPhJlZwi/zOaBAWCqsjwks9ty9TsZOHXFT895IghE4u2st0luf2FWrGgMdujLYPOuqKXGHMXxin/1jHiwSDSiqnXITlUoLpHTFxKRJRxQCujMlmyIBJM+NAF0H1Ma5uCBiGnpg1ba4eKUXF65ei3PT1+Ls5WsxT66Na2Uu4nhsYU6MkMC1AYzDpvGR2DoxGts2rYvNxLI3kKIxgRKwgfsib1LCvhFMV0pP9RS0aRKtOfcwRYi0pSKxNpStZeUv5sc/5rY67wVqVfH1tdCAFEq548ePYw5hF9M5q6+rDGL11YZ99P0/ZkPvXPtOD9zpgX+3PfBRLXP1va/uiQmsvK5qqWqs/x/dokptZZ72KAAAAABJRU5ErkJggg==;" vertex="1" parent="1">
          <mxGeometry x="-186.72" y="1931.5" width="43.43" height="30" as="geometry" />
        </mxCell>
        <mxCell id="MWodSLqaEYV7RXacXT7l-53" value="" style="shape=image;verticalLabelPosition=bottom;labelBackgroundColor=default;verticalAlign=top;aspect=fixed;imageAspect=0;image=data:image/png,iVBORw0KGgoAAAANSUhEUgAAAH8AAAByCAYAAAB6Iw7NAAAK22lDQ1BJQ0MgUHJvZmlsZQAASImVlwdUU9kWhs+96SEhQADphN4E6QSQEnoApVdRCUkgoYSQEATsyOAIjgoiIqgMZRREwdERkLEgFiyIYsM+QQYR9TlYsKHyLvAIM/PWe2+9f61zz7f23Wefvc+6Z619ASD7sITCdFgBgAxBtijc34sWGxdPw40ACGCAArACZiy2WMgIDQ0GiGbnv+r9HcQb0U3LqVj//v6/SonDFbMBgBIQTuKI2RkIdyHjKVsoygYA1YjYDVZkC6e4F2FlEZIgwtIpTpnhd1OcNM1o/LRPZLg3wloA4EksligFAJIpYqflsFOQOKQAhK0FHL4A4VyE3dk8FgfhDoTnZ2RkTvHvCJsi/kIAyCSE6Ul/ipnyl/hJsvgsVoqMZ+qaFt6HLxams/L+z6P538pIl8zuYYwMEk8UEI7M8sj53U3LDJKxIGlxyCzzOdP+08yTBETNMlvsHT/LHJZPkGxt+uLgWU7m+zFlcbKZkbPMFftGzLIoM1y2V7LImzHLLNHcvpK0KJmdx2XK4ufzImNmOYcfvXiWxWkRQXM+3jK7SBIuy58r8Pea29dPVnuG+E/18pmytdm8yABZ7ay5/LkCxlxMcawsNw7Xx3fOJ0rmL8z2ku0lTA+V+XPT/WV2cU6EbG028nHOrQ2VnWEqKzB0lkEk8AW2wA5YIk9rALK5udlTRXhnCvNE/BReNo2B3DQujSlgW82n2Vrb2gEwdW9nPoW34dP3EVI9NWfLbEA+4ffIXSmdsyWVA9BeBIDa/Tmb4V4AKIUAtHWzJaKcGRt66oEBREABykAd6AADYDqdmSNwBZ5IpoEgBMk4DiwDbMADGUAEVoBVYD0oAiVgG9gBqkANqAeN4BA4AtrBCXAGXABXwHVwGzwAUjAMXoAx8B5MQBCEg8gQFVKHdCEjyAKyheiQO+QLBUPhUByUCKVAAkgCrYI2QCVQGVQF1UJN0M/QcegMdAnqh+5Bg9Ao9Ab6DKNgEqwMa8PG8AKYDjPgIDgSXgqnwFlwPlwIb4Er4Tr4INwGn4GvwLdhKfwCHkcBlBxKFaWHskTRUd6oEFQ8KhklQq1BFaMqUHWoFlQnqgd1EyVFvUR9QmPRVDQNbYl2RQego9BsdBZ6DXozugrdiG5Dn0PfRA+ix9DfMGSMFsYC44JhYmIxKZgVmCJMBWYf5hjmPOY2ZhjzHovFqmJNsE7YAGwcNhW7ErsZuwfbiu3C9mOHsOM4HE4dZ4Fzw4XgWLhsXBFuF+4g7jTuBm4Y9xEvh9fF2+L98PF4Ab4AX4E/gD+Fv4EfwU8QFAhGBBdCCIFDyCNsJTQQOgnXCMOECaIi0YToRowkphLXEyuJLcTzxIfEt3JycvpyznJhcny5dXKVcoflLsoNyn0iKZHMSd6kBJKEtIW0n9RFukd6SyaTjcme5HhyNnkLuYl8lvyY/FGeKm8lz5TnyK+Vr5Zvk78h/4pCoBhRGJRllHxKBeUo5RrlpQJBwVjBW4GlsEahWuG4woDCuCJV0UYxRDFDcbPiAcVLis+UcErGSr5KHKVCpXqls0pDVBTVgOpNZVM3UBuo56nDylhlE2WmcqpyifIh5T7lMRUlFXuVaJVclWqVkypSVZSqsSpTNV11q+oR1Tuqn+dpz2PM487bNK9l3o15H9Q01TzVuGrFaq1qt9U+q9PUfdXT1EvV29UfaaA1zDXCNFZo7NU4r/FSU1nTVZOtWax5RPO+FqxlrhWutVKrXqtXa1xbR9tfW6i9S/us9ksdVR1PnVSdcp1TOqO6VF13Xb5uue5p3ec0FRqDlk6rpJ2jjelp6QXoSfRq9fr0JvRN9KP0C/Rb9R8ZEA3oBskG5QbdBmOGuoaLDFcZNhveNyIY0Y14RjuNeow+GJsYxxhvNG43fmaiZsI0yTdpNnloSjb1MM0yrTO9ZYY1o5ulme0xu24OmzuY88yrza9ZwBaOFnyLPRb98zHznecL5tfNH7AkWTIscyybLQetVK2CrQqs2q1eLTBcEL+gdEHPgm/WDtbp1g3WD2yUbAJtCmw6bd7Ymtuybattb9mR7fzs1tp12L22t7Dn2u+1v+tAdVjksNGh2+Gro5OjyLHFcdTJ0CnRabfTAF2ZHkrfTL/ojHH2cl7rfML5k4ujS7bLEZc/XC1d01wPuD5baLKQu7Bh4ZCbvhvLrdZN6k5zT3T/0V3qoefB8qjzeOJp4Mnx3Oc5wjBjpDIOMl55WXuJvI55ffB28V7t3eWD8vH3Kfbp81XyjfKt8n3sp++X4tfsN+bv4L/SvysAExAUUBowwNRmsplNzLFAp8DVgeeCSEERQVVBT4LNg0XBnYvgRYGLti96uNhosWBxewgIYYZsD3kUahKaFfprGDYsNKw67Gm4Tfiq8J4IasTyiAMR7yO9IrdGPogyjZJEdUdTohOim6I/xPjElMVIYxfEro69EqcRx4/riMfFR8fvix9f4rtkx5LhBIeEooQ7S02W5i69tExjWfqyk8spy1nLjyZiEmMSDyR+YYWw6ljjScyk3UljbG/2TvYLjiennDPKdeOWcUeS3ZLLkp+luKVsTxnlefAqeC/53vwq/uvUgNSa1A9pIWn70ybTY9JbM/AZiRnHBUqCNMG5TJ3M3Mx+oYWwSCjNcsnakTUmChLtE0PipeKObGWkQeqVmEq+kwzmuOdU53xcEb3iaK5iriC3N888b1PeSL5f/k8r0SvZK7tX6a1av2pwNWN17RpoTdKa7rUGawvXDq/zX9e4nrg+bf3VAuuCsoJ3G2I2dBZqF64rHPrO/7vmIvkiUdHARteNNd+jv+d/37fJbtOuTd+KOcWXS6xLKkq+bGZvvvyDzQ+VP0xuSd7St9Vx695t2G2CbXdKPUobyxTL8suGti/a3lZOKy8uf7dj+Y5LFfYVNTuJOyU7pZXBlR27DHdt2/Wlild1u9qrunW31u5Nuz/s4ey5sddzb0uNdk1Jzecf+T/erfWvbaszrquox9bn1D9tiG7o+Yn+U9M+jX0l+77uF+yXNoY3nmtyamo6oHVgazPcLGkePZhw8Pohn0MdLZYtta2qrSWHwWHJ4ec/J/5850jQke6j9KMtvxj9svsY9VhxG9SW1zbWzmuXdsR19B8PPN7d6dp57FerX/ef0DtRfVLl5NZTxFOFpyZP558e7xJ2vTyTcmaoe3n3g7OxZ2+dCzvXdz7o/MULfhfO9jB6Tl90u3jiksul45fpl9uvOF5p63XoPXbV4eqxPse+tmtO1zquO1/v7F/Yf+qGx40zN31uXrjFvHXl9uLb/Xei7twdSBiQ3uXcfXYv/d7r+zn3Jx6se4h5WPxI4VHFY63Hdb+Z/dYqdZSeHPQZ7H0S8eTBEHvoxe/i378MFz4lP60Y0R1pemb77MSo3+j150ueD78Qvph4WfQPxX/sfmX66pc/PP/oHYsdG34tej35ZvNb9bf739m/6x4PHX/8PuP9xIfij+ofGz/RP/V8jvk8MrHiC+5L5Vezr53fgr49nMyYnBSyRKzpVgCFDDg5GYA3+5G+OA4A6nUAiEtm+uppQTP/AtME/hPP9N7TcgSgfgCAyJUABF8FYFcV0soi8SnI/0AoBbG7AtjOTjb+JXGyne1MLJIH0po8mpx8i/TcuFIAvpZOTk7UT05+rUeSfQBAV95MPz8l6xak5+mOjY90eriDuQ78TTO9/p9q/PsMpjKwB3+f/wlO5hogEQgeUAAAADhlWElmTU0AKgAAAAgAAYdpAAQAAAABAAAAGgAAAAAAAqACAAQAAAABAAAAf6ADAAQAAAABAAAAcgAAAABBCBM+AAAnsUlEQVR4Ae3daYxlRdkH8NMwCCgCIi6AYiMCiguugAuC4ApExCUEozHGKBoTY+IHE+NH/IQkLIGEmPhBTYzIpgQF11FkVREc0FEUxn1X3Hf7vb96+TfF6Tp3+nb37Z5h+kmqq07Vsz9PLeece2/P/PrXv57rKpiZmamuFtdcCs0Q55122mloaEn9//3vf7sNGzZ0O++8c/fPf/6zm5ub63bZZZd5Xv/73/86hVw42isFK8mL3pPCOBpjK+vpSbWbMr7AS0yBFQjX2gyXCP/+97/L9a677lrqf/3rX1PWaNtiv2HbUmfltRH8//znPyXwZrwiAdSSQEIYhycJXO8o8IAOvmVckM16S7/y5z//ufvDH/7Q7b777t3ee+9dlvp//OMf88HfUQLPzomCP+nePin+OMebrZmVD3rQg0qwLNv6lAQaj+ChAfDvueee7hvf+EZ3yy23dL/5zW/K7H/sYx/bHXPMMd3BBx88fw7Ivh/ds13oD7+MWTEUSdWC4LXGhvqG9ulxvCalgY/fzGIPfOOEDxkSZw2NT9JvBv/973/v7MvagE4PfvCDS1siGGeYWW0JN/7Tn/60++xnP9t99atf7f70pz/NH/zwkBR/+9vfuoMOOqh72cte1h199NHdvvvuWwKKqcA7G+Aj+GpFP3l4kGPlaMFS7Md7UhgK/jg+JQG2l+BztmCZZWY2x3KU4OmTBBLD2F/+8pfue9/7XnfVVVd1d955Zwn6nnvuWZICDXw1fG1JYzvQfvnLX9696EUvKgnBQbvttlvxYQIZGmOCTt5DHvKQpp8lyqSwHvyGxxIkTudsyaDoB3/84x+7LVu2lGX91ltv7X7+85+XMfgPfehDu0c+8pHdfvvt1x111FHdM5/5zDKjb7rppu62227rfvKTn3S/+93vShIIGL5PfOITu+c+97klCawMVhMJYAUwrp0VSEK0YD34La8soY/DBYBDzVRtS/IPf/jDThDN8Lvvvrss2QLz17/+tXvYwx7WPec5z+me9rSndY95zGO6Aw88cH6plzSWbHi/+MUvus2bN3d33HFHd+ONN5bgZpmXaM4ET3nKU7qnP/3p3ROe8IT5ZR8P+ixltg65YCm8JPikgGa72fM5WgIIiplmD7/iiivKDBcgs1AyOMkfcsgh3Wte85ru8MMPLyd6SzcahzPtBIyj0QD8OcTB8LrrrivnhB//+MfdHnvsUXjDJeNxj3tcOR9YQYyRl3NHPwBLCcoDOvgl4wb2QkGJw9TZZ+2rgjQ6n5Sgf+lLXyp7tNlv35UQnHbkkUd2r33ta8vs1J9DH17GFTzJqWttiWFFkQRAn5XgsssuK6sK+VnuyXOGOO6440oiCD5ZaGr7tHOtBmT37XQNgl8uJvgT3hOQ/L9eo9ue+60ZUWQSRoxugaDltkybgwEZaNQCoubQGB9jONs+7vD2rW99q7v99ttLEnA2Ovu4pfypT31qOak/4hGPuN9MFkx8kwT4Rb5ZTE5WE/wAHdHoRycZ7rrrrrIdZGuxOkRfdj372c8u54hDDz206GRFwNtY7MNbGz/2GlOD1MaHfBnfFIJF/okfW+jGZqYZfLNP8DmKU2MwA/UBhscw/YoZbh93T/6rX/2q+/3vfz9/kjfbLecObfbfffbZp3v0ox9deOPPuXiYqXGyPnoYJ8t4xmwHOdFnFTEm+PBsKYJCf3cEP/vZz8r54IYbbihJaSxJ4owhGZ/xjGeUZKQbedla4LnOJCCDLPrxB3kZ6wcsPur3j7tGMwTGphp8xtS3YgQmAOo4lNMEx8z6yEc+0v3gBz8oYxzvFC8oAnzCCSd0L3zhC8vs4iyOR+fQZiZLDDLgcypI8pEX2Wg53MoAn55ZAfBJALTxyXlB8PBWjDkobty4sbMNeYYg2Hhpu8N46Utf2r3gBS8oZxD83YLSR7LRHQ/yk6h0iux+0OApk8A4fGNTDT6ncTQjOZ4DACNdc5TZ5ICVe3JLuXHKoX/84x/fnXTSSWU/59Dsy3A4U3By8k+g0QE8BAyNJDSehFTbPtR0BNoBwREUNf7kZRvBxxh76CT5HEA/8YlPlKeHD3/4w4tdAmmMDa9+9au7Zz3rWYWXfglAf1sE+fiRUesQXdRsUSaBcfjGphp8AY7zGcxQtRljH3U/rthDAXwz3FM299lO1PZRDhGEFM7S1i8QeCpxnDGODJiplmsrys0339x997vfLcu520D83R04L+CLDn3tOHqFp2QjC0hqMmvc73//+yWZycqtJ3o67LXXXuXZgTOKhDho9PxAAgk8P+GbRIzuqcmo5aR/XD0O39hUgx/FONQM//a3v919/etf7370ox+VfZ1DOJPB7sPdRz/5yU/uZmdnyz06Z3AcJ+PBSXAVynM8HllGBQg/oDYm2IrbNg9yzES0Cj4SzXJNprsF54msCGQHirNGPFPjr5CZFc41ngJKlgT3/IDNEj4JyZ5HPepR3exI5vOe97zuSU960vztIv4t0D801sLXNw7f2Mxvf/vb+0ljDKcqjAmTLKUylIEcg0GCYgaiZbh+bXu2A9s111zTXXvttWWZyywQWDgcfuqpp3aHHXZY4UUunDgSjqJfTTaZcJRcG6Mjmb/85S+7T37yk+XQaLlHSyf35GafAxlaL3rQCwZ6tpHrdvHYY48tS3pxwOiPcTrjj1c9W8lFCwc9X6j5wlah30pw8cUXlyeKxtkQH3jB5DzjsbItAz86A3Lwwh+/8EZLj2xn7EGDr/5cFya9P8bBguBzBCEgTtOmAKBYlKAQJdAwUr8+s8vsZiyjGcBpFCLYvu5tmufoZh6eZmn2VnzgMiSJlj6yMtPjWDJtHW4Jr7zyyjLTvK5FQy7+Vhb7rpc3ZjZA46XPZz7zmZIY5CnwyXBHQUcPdtCQbYw9dHXN+cbI4gv0/AbPuMIf+tB40UTe9ddfX2zWzw6HRD72SPnEE08sTxXpmNfO4UEvvMmSCIBs/XXQJVyCXJB6f4wtCH4UZwTmybAIUevHXBEctVm1ZXRP7nHrN7/5zXJy5xRBVVvm9t9//zLTzXb7fwLKaHIpFJ74hjcdkgzBU2dpNYOdHSyteNGdM8izrzpoeTwrELWj4JEngJZnp3arhgAlmGTn0a4tAT9BTCJLLjzoTifyXavxlZhAwrCHTGOC6VbWluDdAv9JgOhIjhXK7azCX8boo2QFwMs1oAMZ4WFsCJrBR0D5KJllJ4YxmrBkoIC753WbxmlZAfAw2zhOccARjASPkgA/uIBsTmdYAk/JBAkt2d/5znfKQxcz3bt5p2Z4Es2qYh+NTNfRmQw8BESfwlHk6qcHe3IY9VBJghmHZ0k2E21RtgUrAl5mInp6glpe6Rj9wYOOoDh+dK2PzqOtt3NQZI8VQdIA/PjZCymJ5wDMj/r5QZF8dWKRTR8y+JCMFhQd+nu+zhREGBCGqezMrcmXv/zlssRaOglQtCnu4Ob2zLIJn2PQZ2nKcs2hCnkMoLRbp8w68o2T737fcun8EONiNLlmyete97pyejcz6U2uGj/6JcB00RfdBAAIPl3oqY+9AuIdgke9+Doz4IWHQBx//PFlqUbDLjManqC4VuOpjQYtm+ITycMOCayN3ssl25dDqruQ6IZOIpDp+QHe9AwP+sMBZGZSlY7eH+MLln0EUcwMxJjjOYvTP/e5z3WXXHJJCTLFagEUEnQznhKhIVcACUxQ0GlziAzW5kBtjkp2c4CAO7EzFA6+HGZWu20SdLeIaDgRL7rDEwiylMiiG1zXQEBc44+OfDjaSUoHV0nwla98pfSjkehkCMIrXvGK7vnPf343OztbZPIVesGkj62P/eyLz8iERxYcd0Rpo3VL6tmBlQ4fMiVs9Hvxi1/cveQlLyl3K5KSLvhHb3FE04IS/NEeN0cgJIoItus42H7knbf9yX0rgzOzKGIpd7/soGJZTOAYQ5FkO74x3hiIcgmOcQFwWDTT7IfOEAAfq8IBBxxQilvCI444osyM8EFfjBrZgmeSGC2HGNPP6exzHT3V+o3rT2Lowye0thkz0xnD+UABbKWf179WPs8pJKQXQHijD1++1hcdI5PfJRt5CaK2s4wYOEs5QEtw/fiIhy3OymdrcLbyxDTAToB3Jo84F/rRc/O5ZB9mESbYXqYIvoykbIQSJth5OCKrARz0cRwDBD18yaGM2cupDKUQek71lIxcxhqDK5kklZcnHEqmhKtnNLkt4NRJgf4tYEN0oj9bTAbJ6cxjlrKbk9ltVbJEWw1sf1ZJNBKA7nATfP3a+rX5hk1JFmP42t6cq7aMziUS0AThIzob5ye+ccCVDJIgK2UdfAnjema0pM9xsCA54FhmCGAoBSkhQGa5vcZtiCUmCqrhUZQiFEWjnwCOqB1qPE7iZHvqRz/60WIMZUPPCRzms3UOOgyzvAqCUzF9OYueZLWATpMC/i1gB7sUOHVg+MfLKIc126LkdTBkZ/i5wzn99NM79/QJGJ6CA0cMYgu/ZRLxhzYasl0raEwYE9QzDTL5Cz+88DBB3VLbGsmy+qnR039mtJfNYeqEe84555STJ2LKQ5JJp512WskkjCmYw4kZy0CKUQafAOHwgMQRzDgjjrr88svLhzEsVXjhTTnLl7ODDMYnSRUDBB4vpZYZ2alXMvh4JpD8EvlkZEvRZoPV61Of+lQJjllGR75wqrdFnnLKKeWpHh9HR/ZnIgk2WcbIIS92io1rMvXVMh2ITSb+oQdcq8973vOecouKF5mSVXtmtKTPOUx86EMfKs+kMRVwAZA19lh9mCXAlCOUEukTIHj64MJRXMOVpZapTZs2lQOMWyjJRFF0ZoR9nEwZjCYrTi1PEDgJXwYMzXp4Kwn0SUDwzbW2fvpIcAGhk3H7s+XZliDhrVhw+EoQbGX87P2C8wFaCQ7Y7Lq23ZjJoJ/tsZ8sQAdbkbMBmeQbc1v6pje9qfDib3yK/iOlCuUHP/jBQoDJmWeeWTImQSeMgYQBChCECeVcJwj6jAHGWpYo4wOVEkA2JmEE3JJuWZJwthNADuXwkSCZ+WSgVcg1LkHgtADepBBH9un0xw9sVGIHfekTnehlApjNdDe5rKxO7Q6K2mjR0d1TTs/3fdbQ+UCAyMJHCW86oMEzthmvzz/0pptV5t3vfndJMhP4ve99b+GLXlzx2EDBBEQHZeyvgLNjqGsCEeon1LU6CsGxL3uD5rbIBzKS6fi4ZcTbQxjv5T25wg8PdHDifAYDwZVcwYPLMRnnqNUAculHNvsV/mIfHwLXfEE3fUkYZxmBdRdgyfdAzHMShe8FytNFTyp9noFvjjvuuHLLnCQhXzu+oEtkaRsjX81XCp96VmGSoVf082mxQwNgpMhSWWswYwwFCO1hhMk2wtQMgGuZEXRG5HAmmThBdr/5zW8uh0ZngAS5MB79iaNyraZDgOKAY2OIa8YOQV/GEN5i+ukSfWpdJB+/AbolKV3XugkacOvnLGPvf8c73lEeXH3hC18oTxL5EG+fbfDZQavAySef3M3OzpZZG9ujB/vEAm9j0QUPOBIzbbGLnuJJtwXHZJ2YqRNkQjB3ywcIwdiy7nDjVa0PZGQfl/WEOWy4NbO0eyQqISiANs4oDHfAP3zLR95ovvKVryxb7uc///niQ/s2/zgf8etBo+f8kiXnA5Mns1wg4fKpGGkLuPjVpXaxfrAg+BhQjIA6wwSNsggF273tltH9pgcyOeDBcZBxbyvonvT5TBs+shotZbOi1ArtSG2BM6H4k++AbUFxMPScX+DzVNOkshp4DuLOSDLwsWQQK7z4VlsM+JjPE2T8tVNcgwXBt0wjxCi3dBLB0m5fshwlyzx0sOwTSCGvTBkg89BkhXCtbeWQXMb07ahgdvKDJACuAR879ftwiVfPzgeevVgRJIQkQOPw7Nm/yeURr4JGHDLJJARIwPuJYHxB8CllQC2DHN4I+uIXv1iChkmeM9u/3K5Q0gzP8pOgS46c4Cnt8aekkgS2gB0VBIkf+FjRtgrwJz/xsT63vPZ8nymwwoqDREBjzPnr0ksvLZ+b8GEQD5K8acQridUPen29IPiIZJsnRvYbwRdUs1VSOLnaf8xwjxCd3imTrDOjFQrIRm2GqK0kVhZJ4HpHhWyn/MKnSlZTbf5WC1T85Fb4ne98Z/fGN76xPDvwrN8to3cLJpsHPLYFbxrFxfaAP8CnDnr8PjO6FSjP9j/96U93H/vYx0qQKScJKOE2JCd3M95TQNllVQCUy/4iCShNqLYSofCCG7wosaPWfFUXfgH8pJ//TaoaXPOpZPHM4AMf+EBZMVxLAst+bjPF0JnCV9fe8IY3lJgmJvjv5D4QuLe0hLsXJ9zMN3vdjnhVSyhmnkYJPByQQLqGo46A9MWAZLz+2ui6nSx9INS1Xa12ceDoT2yFA/hP4bfQ6ee/+FtiOB/AEfBXvepVJchW6LxpFEtPTT3hC79MVPw22GcEw1Ogd73rXeXBDCJPnDx5s1Rb+qMYokkhxoXO9Y4A4+yMP+GkvRSfoDfrJYKXYA7dHqPbut1qe7Bk+80kN3FNYrBB4BXLg+XdydE1pvrMfvu8zJkUYny/npTPAxE/PhH4tJdip7jk+YkVwLVX30pWWgdDd2WutcmDV4LvEAacwp3O3XLIEAiUkykSYlKojdKur4d4kflAgcX6rE6ASVcB+Dk42uvFjg8V/jau0CUzXiKg2SBrZIySwCdQGJj9ymINaQUu/DK2mCQI7vZcj7MzQQ5Orie1F72DHvDE1RnAai12YqY2keGZ+cYlgesNOSWa/VEEksxQ68Ms7ZZyFIenJEnQW0nQRQm0wW3xGdcX3cbhbGtjWwsov8Su4Lp2aBOwgLGM6wuNtn4xFD+BTpz0m9hZ5oObVR7NhhAbBE6RmOtPjaHrBFIN9FFSoOEqskp2+aCjL21YYtwiEqrfKiJTkySFUfUHrxaEf39sqB+esUmBTS0Y6oc7ZEv81OcXveZn4MiHmbH89Na3vrU8R4ltfKZNBwEG0UeNNpM4POHnDAA/OuIFjN+XXqVr8j9RgqGEyTb7jo80uWtwypQgVgEKWEUoqrQgxvXH0EZWf2yIZgi/T19fc0oLhuTDX4r80OAreK7t2fzlraiHaPrw57OhSdHSdbF9yw4+QZxMObXMYoyneJQWeLcgkiLZabxe1mplOaMFcURrbCjIQ7xaPNKXoOQ6tSC0EoPsoURmY4uGXtEtfH1u0qeVrbwmkX68zeTgRpeVqpcdfEpSWNA5TtvMt9RT3v7llaVn0RIkW8dQ8IcCqb81Rv5QwFr4W3Mcfi0Ykg93SM5Qwta8BJZP8vF4e3QO4SaPcfhDNrZ0XWzfsoNPMTPZXmUGcJ593r6u7SGRGo6kyJliSEF4LeCgIQcM0QwFssU/fUOzbByvoSWZzi0gg85qtDkD6TPTTQy0gq8vuC1ey+lbdvA5RUAlgbY6DmSUJYzyIIEXxOD0lR8KcJKsjz/uesj542iG9BpHM7SKxe4+bWxkk0lDZg5i9n0+4yv9cMb5q897kutlB58wCgJKRlltS5hlP4YJBqNAaPp1HFOQKryhmad/aCw8FlNHj+gncFYysw//nKLVAgYSnPCPHqn7tgRPbQye1ZCPQkMPflJH/lAS1fyW0l6x4NfKRxEzgrPe9773FWMYajVgnP4WcH4C0a9b+PqGZjinhUdNG131Ga9xsgQLrOLdh2BLYHjpp3+93IdnXfeTIzrAycwWYPzxck4iPzyiV+rQr1S9IsEfUsby5WNd3jIxULZzCKgNirH6OSNjdZ02nD7U9PXYYoOPJvwlbNr6s6QLjn4rgcBLBrrqzyyGH13UNR9jAT6gG96KT+joc9CLf4I7zXqqwZfFnOMnyRwCYxjDayfVztOO0+oafmj6Dgnffr/r8KjHaj4ZT41XZNGT3lYWdriOTfBcSwI44VnXaIYg/PC2CkgAn41k/2rBVIMvq80OH9nOR7gYluDHyQxOAsRhgpGAoAmOdh+Ggj/OkQlSXw7dIssMhxd9yYGvzwogcEmC6BSbXEdGxlIn8BIJP/J8MMPt3mrCVINvqec4ScARjEyfGeOaA5U4nFMT9Lo2PuRMYy0IfWtsqE8wIyezUh999Wuzh0z8c0YJTb9uycEDLVyHYuCUn/v7Fs00+qYafG+ZZLcPF3hjyGgrAaeCOFCdIlk4xodLnIK14ZuFag7ThxdwrR89iGPj3Lo2LnABuOQBfPAwK/W7zoxPG21O//AUYwogC44fcvCYNjoFx7gC9NU2+Kq3BNsahC4yU2+NrjV+nydao8vsS1A+/OEPlxnPWH056Wo74QL7JsdYGXynzwcR/eKGr3S5S+BoM4NzJZDAcC4afBMU/XABXGPqBIpsdPrhZmmHA+Jcuinhr40G4KXEDvootravfe1r5SPuPvtIJ/zDGz26TADXCt50SWIUIY0/wTUUPbfZ4FOSo80Et0yWOA7Rx2BtL39cW/Y4hbM4wceQPB10mygxOFC/cQXUDjAW5+lXch1cdfDUHA7wTnA5mD6KccVYn18hvPcPXCubpL3wwgtLAjvA+YEG/EIbfpJZv+TRxx42WiVjW81/Wu2pznzB5jinfY4QXI5IBgt+9jxtjrD0uTX0jdb8SoePLRvnLDMHCJjiGr8EWk0GucGFnwAYh6+QF9wEW3+Cjx5+go9PH9DTzW2tbyTDt135np0vSOasEDr88a15us5H5SXBasFUg2+2g9e//vVlyWawgHE6J7jmaMa7Flx9Pgvg5Ds7O1uWfFsBp6JTK/DDhwzXwFgCmlnkWgld8NQJdHDU9Xi52MoffPGxitmatH0aWgJI+MhIzV4QnfRLdt+ptyqsFkw1+AIi8xNwjkib4Qm2IHIIJ8p8NJyYrycZQ2tZlBwgCaPNeWhT4uRcwwnoo5e6xjOea/po01Hd4hN+avzgoQP0tBpIvsz82Mv+vO+Ag5ZNav2rCe17pBXSQMDMWtlsT0/gOIkTOIlT9GsDQeXIfA9QgnA+0M9hChrXSoKTGk8ldGhdBzg6AQ69sfBEBye6Gat5ua4BHZ3wZK+AC7y+JDg5NRjHEw6ok7nGm2Z7qjOfU+IQjkywOUTwGZ8AMlJfAL4TM7CH4gNfjV5JQFuBETx0AbqgAakzVtfhXfdp1zIS7OAYo7sE9x0HX5USVP2SoQ9WN/10rHXRNmHQsS0J41ohN0mpNq5eKtw/HZfKZZ1uu/TAevC3y7CtjNLrwV8ZP26XXNaDv12GbWWUXg/+yvhxu+Ry3/H6XvWdKoE6J8m6dgp1HTxtfa6V+gTqlscJ2Ak9dE78rtGFb061Tsye+OGjbRwucGvkNOyWCKBJX+jLQPUnOlZdy2rSJ3qFEf2cwunCXu34Q9vpHR27tWuAVxf4sSU8Yr9+fXjF13jpG4KW/TX+gpnfIghzgqMUvLSNGwtEuTyqpLjx3P8ySEkw1QrAM/f66N2uueYYj0DxCm7LodFhpWty6UDvfPImn0xmmzEPpmKTQEsIdG772AVH4R9JZNyLLTzd+qGHB1Ib0841WvLUy4UFM3+5DGv6KO6xJ6cwIPex8IxLiBgTAz3pSuFoz/bh4pHZxYkeHqlXAwRawOjhK+uCRl+vrfXTK78wKmHZqUhceLFRMgCBTwDRstN/Do0PVsOmqQZfsBh70UUXlaxmEGfIckb6CpfZa2YkqJzL0Wa9fj/q6DWpZOBkDvU7QH53Jj9VGidO02F1QP0Ikn8CQafozVbB9z5Dn18t8+NJcPJ0ky9cs5/OSV4+0Z8VZJp21LynGnzB9QFOL2ksaYLHYIZrM1YBHKDNycYVzvK7vfUPO6Eza3wX8C1veUv5MYnaoGm1BRQIqh8/krw+sGEVYFMCJwkksF+/ZlOe9MFPic3skBgS2hjc1YSpBp9jOMBPvCS4ZrRDnZkjkIpXnwLNcRwDlzP05deo40QO99yf4/w0md8LsnpMG8xMH9Y4//zz5//JkV+/EOgcam1BdE+RwHRjhzGTwM/QulbD0+YTCeTn1lYzASYKvoDUwLh+Xz0uyMbf//73l6Xa7BFgPyF2wQUXlB8W9GODfhGaEwAncxhnwecYM8O1xOAk/5zB7wL6tco4vpY7jbbl3HN7K5kVzdeo/coVH0hEdmbWZ9ViU5Z5trztbW8rtCYDm/HMiuFLmmeffXbhNQ39WzwnCn4CwCgGRvEW4/RxCJDlaMwUjuIw/LSzlLsWbADXLICv3zXQx5Hos3dmrCBM8Y+kJDc13cimH3AN2KSfnnwV29HqV/hOUgf4QN9qAR0X3OqtlvB1OWvvgfXgr30M1kyD9eCvmevXXvB68Nc+BmumwXrw18z1ay94QfBzkqeaU2lOrq7TTr/TaY0PJwDXKditGHzt4LrOXUD6XTvxomsVeE7Nbp2Mw8cHuAY5bZeLJf7BQ2Gboh05rsmiS3RN3dLZXQFaY0726N0BRHenfz7BLxAZbAW17OD068iu+0NX99Vtcia61auJtWsBMbKP456Y4TGes0KbWx0OZmxuo/o8XHMaZ8JjLL65FUSn360fR0YvBk4K9MMrQcIzCeEZA53DX1sgh+ToV+gH3MZKXvzxpKtnIXiA8O23y+AU/iwr+IvRh8MEjYEJHCPjRIEE6syUFl+BxqN+5WvWZGZ6fKzthYs2h7dmRIt33YcnOdEFH/qmnx4CypYEtw5azQsfdLnfpx+d0OmXaGpFX3xR85hme8Gyv5LCYmCCzQnJeGMgsz8OVLcKfIEwW5Q82dPPaRnjcAm3HGfSU6FHAhK9ycYbaLd0TR8afPCAG1sFvb7WZgfdVxOmOvMZ73EoZ5lJmTX6OYjR2pxjzGwacgB8uGgEWoFbzx705MDrryyLdao3il4u4UEGfmqgJp++CWjaLf7GAB0t994N1EklgZOkgp+kavGaRt9Ug894AbnmmmuK4RxnVvpQhnf8HOtLnP6nLlzGC3IL9Nt/7fX+KWFwL7nkkhJojrUlCJxn5l66eBs4KQiUl07eP3iJ5DqJ5IWSLYUdfkyBzpIETgsElN58IHGiM5v9ZxNnAD6QEH6EEa/VhLbWS9CAIxia7NXmJDPJf+bOrNbPSFlv3MsS/96Fc/DgSOP4aNvDOUmfWvJkidT2kgcu/kkAvPxPXv88ImeBzCw86aDUQDYQ8HPPPbf8g0izlUy8AX0VPPzmgO/X0YEMOkRnNchKQXdBpgPw3p/NaH3BI4dAiRs91Pioo6/rvt6F4RL/rEjwKRRlY3gU5rwYFGPUnAg4EnBOIDMFrf7wVnNQDfrIwlMQtPH0Dd8tW7aUf+bYl5tZGL1qfhs3bizftvXKNctyAodPgG4gOuJp5bF9aQMrVV+GrYrt+dAHe/BPAiRB0JOX7VDbWPxqXHupQK8VCf6QApb2/Feo/HPFBGuIhpG+pWtGm4X+/fcRRxxRDO87MjwSFE61fJ511lnlnf/mzZvLjztktqvhBj/0de2/XgvM7Oxs9/a3v704vxXEmkZb8HzCxz8/9P/ufNDE/yNqgZUA0ENwbSu2kY9//OMlgVo00+ibavDNHEubwPtgBwcBGZyZ3zcqS2Uy3Ic5zGiBbx0G4dkzBdYM4lArB6dmqzCun0xj6qFZA8+YgJj9rumL35DOcBxs638zR1ezekgOfWOrtt8mdp4ZktH300pcTzX4HJD7coYykhM5hMNawGGWUrMNjgBm+W05UlLUe67gohO8yEKnDfTTo8XLONnGJCvecLPsD9Hol2BJOjzIQ6/0IXZFP+caPPJBkT7+tK6nGnzO4Lx6pgvmkBMZyVnG0XCSpFHry3JZOwM+XAWoyURDfj27wnecfIEmJ7KyWoR3EdL7gx89EnAyAy1ZWXmsimjiIxNlNWGqwbfM2z8Zm4CYeQLD6BYImBKwAphVeKBrgfE43jj6JIygKAKSIAlskqXPzyzMco0Ob9fh2ceHk4QxJqB4jAM0gE0KfdStRBnHZ7lj5d+s1EwoUCtB0RR4UZZz9Q8FBK7AMSyOi5ESYQjw40yJoy1oce5QwDJum4GjxJlkCaAx8l2rQfQnRz8cdAII9FvCAZ61X0rnvX/YhzZ86IP3EEQ+fmgAHmji/1Y9xG+of0hf+Mam+nh3SKn1/m3DA+vB3zbisCZarAd/Tdy+bQhdD/62EYc10WI9+Gvi9m1D6E45FTv9ObEqOanm9JrTqX74wK2VNnxQTo/VSTsnbuMZiwwna7xaxZiTLyDfHQM5+LXw9QF0+AN0+tXuFtBq01kd+fDh5SRPLlsVJ3YQf2xNPl70VMjJvX5LZ7ziN3c12vrIpJtrhe346NMG0VWfMXhkuKYD2doKW8OTTXRzrQYbNDD0Q//esLnNwUSfe3JP17zeVOv3JUVfSzaOoZoCHEfBPML1M2rGPLK8+uqri1J4exoX4UWD3h9vAb3yzS3WxtGLFr/DC1p0CbBx8jiCU9Bv2rSp6BY6NZs4IAmGrga2waO/167acSLefeCT3ErSkw58cO2113Z+SbtFg1+ArgLmNW8C5G2h/0ZKtj7jajprs4HPfaXbNXu8ZfTKGW86qD2f8Mzh4IMPLi+46GVMYoCZkZFzfjP2vPPOK999E8AgEEYB14xA7BowmgIxPEoKsH54ipczfpQYPoWSzbUDCsN7/3AGnGSu5Eki1Hh1mxwOUaOLQ2t9jdFRod+QfHhJDDbTO9AKpHE8o686NEMy8DcmcCDyor8EJEtQ6arNz/i6BmmzVXzUxtjMf3hqw/NF2DPOOKN8YTY2FFmcJkAyxIcfDFJMMUujqGuz3zhhDNZmAByCM6uSnWgEnuIxRB98TmqBbIUf3vAiM07t0+HHGHho6alPzSn6yUWfILGhBXFunErvOL5FgyfZxtLmB9ctfDLxpBOIbfTDR+2paHzqGo4JoKZXfEIOfcXCOPr4QX/eefhCq1Uh+kX2BkQ+9XLUUUeVT8hgjAHGtRCGUIhinkEHR6AxDeiPgsZcS6w4g1KCMuSYJA4FYzTjhvDJFpysWK6jD8elP8GMfgly9E5NvhlDXhyrL/oHLzVZ9OSryOY7coYg+MbZFrrU5NIXjyQ2+fENPDjkaIOM6UcDyIHjm9BijJ8+fsFvZvSRpTmEHKgjwsJAlib74IQ5GmAMUBYuZRgUQeGTAKKPkYWw9wcdngq8ouRIYUDxFkQemtggGPrRqPFKMsMjZwjoHNzoP4SPLxx2gVrekL6Raxx99IxM44JGTzj64cU3kcdWtECtiEv4Gk9cYrOV1eSFMzNaEuYMQKqXFsIiOIpQAphN+sxgsxoeejWB+BjnEHu21YIMSuMLwqtc9P7gBQ9/BmlH+R5quYwT4NIBqCUjmZKW48jEB370KMjVn/gCTnSE63ockMfmgOuhhDFG1/gITe0/svjOOH2yTeQaPt70csYScG3+gpMxdvtomxiIGVzjWXlL8DELUGxSWArNkIytOXmIrtW/FL2GkqLFf2t9ArdSsBS9xtEYa5+6VkrjNeYzzvg1Vm2bED9+LdsmVFxXYloeWJ/5Pc8uZavosdhuLtdn/nYTqpVXdH3m93y6I838BR/j6vli/nKcU4YOVuNo5hn3Git5Qu6xnr+k15BuqyF/XpFGY8iXDdT5riGarfX/HxTw+CVmOKYmAAAAAElFTkSuQmCC;" vertex="1" parent="1">
          <mxGeometry x="-94.56" y="1921.5" width="44.56" height="40" as="geometry" />
        </mxCell>
        <mxCell id="MWodSLqaEYV7RXacXT7l-54" value="机械臂" style="rounded=0;whiteSpace=wrap;html=1;strokeWidth=0.25;" vertex="1" parent="1">
          <mxGeometry x="83.5" y="1899.5" width="63" height="22" as="geometry" />
        </mxCell>
        <mxCell id="MWodSLqaEYV7RXacXT7l-56" value="输送系统" style="rounded=0;whiteSpace=wrap;html=1;strokeWidth=0.25;" vertex="1" parent="1">
          <mxGeometry x="83.5" y="1931.5" width="63" height="22" as="geometry" />
        </mxCell>
        <mxCell id="MWodSLqaEYV7RXacXT7l-57" value="堆垛设备&lt;span style=&quot;color: rgba(0, 0, 0, 0); font-family: monospace; font-size: 0px; text-align: start;&quot;&gt;%3CmxGraphModel%3E%3Croot%3E%3CmxCell%20id%3D%220%22%2F%3E%3CmxCell%20id%3D%221%22%20parent%3D%220%22%2F%3E%3CmxCell%20id%3D%222%22%20value%3D%22%E8%BE%93%E9%80%81%E7%B3%BB%E7%BB%9F%22%20style%3D%22rounded%3D0%3BwhiteSpace%3Dwrap%3Bhtml%3D1%3Bdashed%3D1%3B%22%20vertex%3D%221%22%20parent%3D%221%22%3E%3CmxGeometry%20x%3D%2283.5%22%20y%3D%221977.5%22%20width%3D%2263%22%20height%3D%2222%22%20as%3D%22geometry%22%2F%3E%3C%2FmxCell%3E%3C%2Froot%3E%3C%2FmxGraphModel%3E&lt;/span&gt;" style="rounded=0;whiteSpace=wrap;html=1;strokeWidth=0.25;" vertex="1" parent="1">
          <mxGeometry x="153.5" y="1899.5" width="63" height="22" as="geometry" />
        </mxCell>
        <mxCell id="MWodSLqaEYV7RXacXT7l-58" value="升降机" style="rounded=0;whiteSpace=wrap;html=1;strokeWidth=0.25;" vertex="1" parent="1">
          <mxGeometry x="153.5" y="1930.5" width="63" height="22" as="geometry" />
        </mxCell>
        <mxCell id="MWodSLqaEYV7RXacXT7l-59" value="穿梭小车" style="rounded=0;whiteSpace=wrap;html=1;strokeWidth=0.25;" vertex="1" parent="1">
          <mxGeometry x="227" y="1899.5" width="63" height="22" as="geometry" />
        </mxCell>
        <mxCell id="MWodSLqaEYV7RXacXT7l-60" value="播种墙" style="rounded=0;whiteSpace=wrap;html=1;strokeWidth=0.25;" vertex="1" parent="1">
          <mxGeometry x="227" y="1931.5" width="63" height="22" as="geometry" />
        </mxCell>
        <mxCell id="MWodSLqaEYV7RXacXT7l-61" value="平台对接" style="rounded=0;whiteSpace=wrap;html=1;strokeWidth=0.25;" vertex="1" parent="1">
          <mxGeometry x="-9.5" y="1753.75" width="93" height="22.5" as="geometry" />
        </mxCell>
      </root>
    </mxGraphModel>
  </diagram>
</mxfile>
